<svg width="1016" height="152" viewBox="0 0 1016 152" fill="none" xmlns="http://www.w3.org/2000/svg">
<g clip-path="url(#clip0_1_3)">
<path d="M920.084 38.5311C923.332 34.0392 928.184 30.9701 933.635 29.9605C938.979 28.8667 944.529 29.4026 949.566 31.4988C954.466 33.6693 958.382 37.5863 960.552 42.4867C961.358 41.4978 961.834 40.9484 962.237 40.3624C964.619 37.0458 967.758 34.346 971.393 32.4877C975.034 30.6365 979.065 29.6821 983.149 29.7041C986.835 29.5413 990.527 29.849 994.136 30.6197C998.444 31.471 1002.46 33.4273 1005.78 36.2968C1009.11 39.1666 1011.63 42.8521 1013.11 46.9918C1014.95 51.8468 1015.9 56.998 1015.89 62.1918V100.65C1015.89 103.653 1015.89 103.726 1012.81 103.726H1007.65C1000.73 103.726 997.688 100.65 997.652 93.8004V66.8067C997.652 65.0853 997.652 63.3638 997.652 61.6424C997.591 59.9253 997.295 58.2247 996.773 56.588C996.219 54.3901 995.118 52.3684 993.571 50.7119C992.025 49.0554 990.083 47.8181 987.929 47.1157C985.774 46.4132 983.477 46.2686 981.251 46.6953C979.025 47.122 976.944 48.1062 975.202 49.5557C973.395 50.9493 971.887 52.6933 970.77 54.6834C969.649 56.6702 968.939 58.8625 968.683 61.1296C968.461 62.8417 968.363 64.5677 968.39 66.294V101.785C968.39 103.177 967.914 103.799 966.449 103.763H952.056C950.847 103.763 950.225 103.323 950.261 102.041V65.4149C950.377 61.6954 949.638 57.9989 948.101 54.6101C947.091 52.3126 945.485 50.3272 943.449 48.8598C941.415 47.391 939.026 46.4931 936.528 46.2593C934.015 46.0216 931.485 46.4644 929.203 47.5412C926.928 48.608 924.981 50.2648 923.563 52.3393C921.011 56.0045 919.725 60.4027 919.901 64.8655V94.7894C919.997 95.9032 919.861 97.0249 919.502 98.0838C919.144 99.1426 918.569 100.116 917.816 100.941C917.062 101.767 916.146 102.428 915.124 102.882C914.103 103.336 912.998 103.574 911.88 103.58C909.06 103.836 906.24 103.58 903.384 103.58C902.065 103.58 901.662 102.92 901.699 101.748V31.9017C901.699 30.7662 902.248 30.3634 903.237 30.3634C907.412 30.3634 911.624 30.3634 915.799 30.3634C916.329 30.3484 916.857 30.4412 917.35 30.636C917.843 30.8309 918.291 31.1238 918.668 31.497C919.044 31.8703 919.341 32.3161 919.541 32.8074C919.74 33.2988 919.838 33.8255 919.828 34.3556C920.01 35.7398 920.096 37.135 920.084 38.5311V38.5311Z" fill="#E52128"/>
<path d="M18.5314 37.9084C21.0459 34.7907 24.3217 32.3742 28.0426 30.8921C31.7634 29.41 35.8035 28.9126 39.7727 29.4477C43.8262 29.577 47.7611 30.8464 51.126 33.1103C54.4847 35.4069 57.1255 38.6067 58.7435 42.3402C60.2817 40.5822 61.6368 39.0438 63.0285 37.5055C65.816 34.6072 69.227 32.382 73.0026 30.9985C76.7782 29.6151 80.8193 29.1098 84.8193 29.521C88.0189 29.5689 91.1972 30.0494 94.268 30.9494C105.255 34.2824 110.822 42.2304 113.202 52.9253C113.82 55.9623 114.114 59.0561 114.081 62.1551V100.21C114.081 103.873 114.081 103.873 110.675 103.873C108.698 103.873 106.72 103.873 104.779 103.873C103.601 103.96 102.418 103.787 101.314 103.367C100.21 102.946 99.2125 102.288 98.3913 101.439C97.5701 100.589 96.9457 99.5699 96.5622 98.4525C96.1788 97.3351 96.0457 96.1471 96.1724 94.9725V68.3817C96.1717 65.2812 95.9514 62.1845 95.5132 59.1151C95.1332 56.3191 94.0355 53.6692 92.327 51.4236C87.4928 44.9407 76.6156 45.5634 71.4518 51.4236C68.2529 55.0743 66.5408 59.7929 66.6541 64.6458V101.602C66.6541 103.14 66.2146 103.873 64.5666 103.873C59.9521 103.873 55.2277 103.873 50.54 103.873C48.5989 103.873 48.3426 102.884 48.3426 101.346V83.252C48.3426 76.4761 48.3426 69.7002 48.3426 62.9243C48.3771 58.5644 46.8138 54.3429 43.9478 51.0573C42.475 49.4367 40.6439 48.1826 38.6008 47.3947C36.5534 46.5894 34.3458 46.2758 32.1552 46.479C29.9695 46.6851 27.8622 47.4001 26.0024 48.5667C24.1504 49.7309 22.5954 51.3111 21.4612 53.1816C19.0699 57.2334 17.8881 61.885 18.0552 66.587V94.3132C18.2631 95.6044 18.1649 96.9265 17.7683 98.1727C17.3718 99.419 16.6881 100.555 15.7723 101.488C14.8566 102.422 13.7343 103.128 12.496 103.548C11.2577 103.969 9.93794 104.092 8.64306 103.909H1.97761C0.769048 103.909 0.146454 103.397 0.146454 102.151V32.5609C0.146454 30.8395 1.06209 30.5465 2.49039 30.5831H13.4773C16.7734 30.5831 17.7623 31.7552 17.982 35.1248C17.982 36.0771 17.4693 36.9561 18.5314 37.9084Z" fill="#959CA1"/>
<path d="M224.097 39.4467V35.7841C224.097 32.5243 225.635 30.9494 228.712 30.8395C232.374 30.8395 236.036 30.8395 239.699 30.8395C241.054 30.8395 241.823 31.279 241.75 32.7441V100.723C241.75 103.909 241.75 103.946 238.453 103.946H230.323C225.342 103.946 223.914 102.408 223.877 97.6096V95.1923C223.291 94.826 222.962 95.1923 222.742 95.1923C215.674 104.019 206.152 106.62 195.421 105.814C190.01 105.4 184.751 103.827 180.003 101.199C173.329 97.5493 168.222 91.5821 165.647 84.4241C161.602 73.995 161.394 62.4678 165.061 51.8998C166.848 46.4093 170.067 41.4951 174.387 37.6642C178.707 33.8334 183.97 31.2245 189.635 30.1069C197.154 27.9774 205.162 28.3503 212.451 31.1691C215.784 32.4914 218.794 34.5149 221.277 37.1026C221.953 38.084 222.911 38.8374 224.024 39.2636L224.097 39.4467ZM181.065 67.5759C181.11 69.6402 181.318 71.6977 181.688 73.7291C182.504 76.7374 183.967 79.5317 185.973 81.9176C187.979 84.3035 190.48 86.2238 193.303 87.5449C196.127 88.866 199.204 89.5562 202.321 89.5676C205.438 89.5789 208.52 88.9111 211.352 87.6106C214.222 86.4508 216.745 84.5713 218.677 82.1532C222.22 77.6585 223.957 72.0027 223.548 66.294C222.632 46.6255 203.991 41.278 191.173 48.3103C183.848 52.1927 181.028 59.0053 181.065 67.5392V67.5759Z" fill="#959CA1"/>
<path d="M504.301 39.4467C505.439 38.9585 506.434 38.1898 507.194 37.2125C509.985 34.5035 513.339 32.4428 517.016 31.1768C520.694 29.9107 524.605 29.4704 528.472 29.8872C530.811 29.9286 533.14 30.1861 535.431 30.6564C539.643 31.5831 543.544 33.5849 546.752 36.4668C549.961 39.3488 552.37 43.0126 553.742 47.1016C555.649 52.0448 556.63 57.2966 556.636 62.5947V100.65C556.636 103.836 556.636 103.836 553.303 103.873H548.139C546.843 103.988 545.538 103.82 544.314 103.38C543.09 102.941 541.976 102.24 541.049 101.328C540.123 100.415 539.406 99.3113 538.948 98.0938C538.49 96.8764 538.302 95.5739 538.397 94.2766C538.397 89.8448 538.397 85.413 538.397 80.9812V65.1219C538.473 63.2691 538.338 61.4136 537.994 59.5913C536.2 52.266 532.135 47.9074 525.652 46.9918C521.995 46.2365 518.192 46.676 514.803 48.2453C511.414 49.8147 508.618 52.431 506.828 55.7089C505.068 58.8281 504.135 62.3459 504.118 65.9277C504.118 75.1942 504.118 84.4241 504.118 93.654C504.325 95.0388 504.206 96.4527 503.771 97.7835C503.336 99.1143 502.597 100.326 501.612 101.321C500.627 102.316 499.424 103.068 498.098 103.518C496.773 103.967 495.36 104.101 493.973 103.909H488.04C486.063 103.909 485.587 103.213 485.733 101.492V4.6882C485.733 0.47615 484.744 -0.073283 490.348 0.0732231C492.32 0.0328896 494.292 0.155416 496.244 0.43951C497.361 0.483946 498.458 0.756395 499.466 1.24016C500.475 1.72392 501.373 2.40877 502.107 3.25261C502.841 4.09645 503.395 5.08146 503.735 6.14714C504.074 7.21283 504.192 8.33665 504.081 9.4496C504.081 17.4708 504.081 25.4554 504.081 33.4766L504.301 39.4467Z" fill="#959CA1"/>
<path d="M669.581 151.854H662.037C659.876 151.854 659.693 151.56 660.499 149.436C662.257 144.565 664.161 139.767 665.919 134.786C668.356 128.818 670.411 122.701 672.072 116.472C674.807 104.52 673.862 92.0202 669.362 80.615C661.305 60.7634 653.431 40.8752 645.41 21.0236C644.612 19.6264 644.249 18.0229 644.366 16.418C644.483 14.8132 645.076 13.2797 646.069 12.0135C647.13 10.8027 648.509 9.91373 650.05 9.44757C651.591 8.98142 653.232 8.95679 654.786 9.37643C657.14 9.63036 659.374 10.5445 661.231 12.0135C663.089 13.4752 664.497 15.4297 665.297 17.654C669.618 29.3012 673.647 41.0583 677.895 52.7422C678.481 54.3538 677.895 55.2328 676.943 56.4049C674.717 59.3627 673.44 62.9255 673.28 66.6236C673.075 70.3418 674.007 74.0342 675.954 77.2087C677.952 80.5635 680.941 83.217 684.508 84.8041C688.076 86.3913 692.047 86.8343 695.877 86.0723C699.961 85.2416 703.657 83.0864 706.392 79.9409C709.127 76.7953 710.747 72.8352 711.002 68.6747C711.205 66.1872 710.855 63.6857 709.977 61.3494C709.087 58.9656 707.673 56.8125 705.838 55.0497C704.891 54.3093 704.254 53.2423 704.05 52.0572C703.847 50.872 704.093 49.6538 704.74 48.64C707.816 41.9008 710.563 35.0882 713.456 28.2757C714.221 26.1677 715.476 24.2721 717.118 22.7451C718.352 21.5241 719.919 20.6958 721.623 20.3644C723.337 20.036 725.109 20.2273 726.714 20.9138C727.57 21.1799 728.357 21.63 729.021 22.2323C729.685 22.8322 730.21 23.5697 730.559 24.3933C730.919 25.2118 731.094 26.0998 731.072 26.9938C731.051 27.8832 730.838 28.7577 730.449 29.5576C727.263 37.4323 724.04 45.2704 720.817 53.1451L700.784 101.602C694.229 117.534 687.637 133.43 681.118 149.216C681.015 149.688 680.819 150.135 680.543 150.531C680.266 150.927 679.914 151.265 679.506 151.524C679.11 151.798 678.663 151.99 678.191 152.091C677.72 152.191 677.233 152.198 676.76 152.11C674.374 151.884 671.977 151.798 669.581 151.854V151.854Z" fill="#959CA1"/>
<path d="M813.547 67.3195C813.374 62.6326 814.107 57.9564 815.708 53.548C818.038 46.7205 822.378 40.7577 828.16 36.4434C833.936 32.1321 840.881 29.668 848.083 29.3744C853.28 28.9367 858.513 29.4961 863.501 31.0226C870.312 32.9794 876.386 36.9185 880.951 42.3386C885.517 47.7587 888.366 54.4146 889.137 61.4593C890.145 68.0719 889.49 74.8313 887.233 81.1277C884.846 88.1211 880.355 94.2051 874.376 98.5459C868.396 102.887 861.221 105.272 853.833 105.374C848.775 105.666 843.706 105.071 838.854 103.616C832.548 101.745 826.894 98.1399 822.536 93.2121C818.179 88.2843 815.293 82.2317 814.206 75.7436C813.907 74.293 813.699 72.8251 813.584 71.3484C813.474 70.0299 813.547 68.7479 813.547 67.3195ZM851.489 88.6728C854.571 88.7857 857.632 88.1179 860.388 86.7316C863.14 85.3382 865.496 83.272 867.237 80.7248C869.902 76.496 871.182 71.5412 870.899 66.5504C870.67 61.537 868.877 56.7211 865.772 52.7788C863.765 50.3099 861.171 48.3833 858.227 47.1749C855.282 45.9778 852.084 45.5371 848.925 45.893C845.766 46.2411 842.744 47.3743 840.136 49.1894C837.536 51.0101 835.433 53.4529 834.019 56.2949C831.147 61.9675 830.595 68.5358 832.481 74.6082C833.476 78.821 835.931 82.5451 839.411 85.1198C842.89 87.6944 847.169 88.9532 851.489 88.6728V88.6728Z" fill="#E52128"/>
<path d="M568.721 67.5027C568.454 62.1973 569.345 56.8975 571.331 51.9707C573.316 47.0438 576.35 42.6079 580.221 38.9706C585.828 33.6847 593.026 30.4011 600.693 29.6309C610.042 28.238 619.582 30.2109 627.611 35.1981C631.988 37.9826 635.713 41.6784 638.532 46.0334C641.35 50.3884 643.197 55.3002 643.945 60.4337C645.475 68.7287 644.334 77.2953 640.686 84.9002C638.5 89.8233 635.173 94.1548 630.981 97.5364C626.788 100.904 621.855 103.227 616.588 104.312C607.072 106.803 596.976 105.762 588.168 101.382C582.651 98.6245 577.955 94.4669 574.549 89.3249C571.143 84.1829 569.146 78.2368 568.758 72.081C568.673 70.6049 568.673 69.1252 568.758 67.6491L568.721 67.5027ZM606.15 88.5995C608.639 88.7583 611.134 88.3966 613.475 87.5374C615.843 86.666 618.002 85.3058 619.811 83.5451C623.56 79.5055 625.768 74.2755 626.05 68.7711C626.331 63.2667 624.667 57.8388 621.349 53.4381C619.542 51.065 617.204 49.1477 614.524 47.8394C611.843 46.5312 608.894 45.8684 605.912 45.904C602.929 45.9396 599.996 46.6726 597.348 48.0444C594.699 49.4162 592.408 51.3888 590.658 53.8043C588.873 56.4658 587.631 59.4534 587.003 62.5959C586.374 65.7385 586.372 68.9742 586.996 72.1176C587.567 76.7613 589.844 81.0272 593.383 84.0865C596.923 87.1459 601.473 88.7804 606.15 88.6728V88.5995Z" fill="#959CA1"/>
<path d="M397.911 67.2096C397.682 61.9099 398.606 56.6237 400.621 51.7166C402.64 46.8076 405.701 42.396 409.594 38.7875C415.06 33.7289 422.004 30.5579 429.407 29.7407C438.486 28.2834 447.791 29.9765 455.775 34.5388C460.318 37.1813 464.22 40.796 467.202 45.1238C470.188 49.4566 472.177 54.3977 473.025 59.5913C475.172 69.5784 473.346 80.009 467.934 88.6727C464.919 93.5772 460.742 97.6632 455.772 100.57C450.803 103.476 445.194 105.114 439.441 105.338C432.898 106.024 426.286 105.107 420.178 102.664C406.407 96.9137 399.595 86.1455 397.911 71.7147C397.823 70.2143 397.823 68.71 397.911 67.2096V67.2096ZM435.559 88.5995C438.053 88.7349 440.548 88.3482 442.884 87.4641C445.247 86.5675 447.393 85.1821 449.183 83.3985C452.903 79.3265 455.073 74.0764 455.314 68.5661C455.555 63.0559 453.852 57.6362 450.502 53.2549C448.873 51.1276 446.814 49.3678 444.459 48.0906C442.105 46.8179 439.509 46.0566 436.841 45.8564C434.171 45.6528 431.488 46.0148 428.967 46.9186C426.45 47.833 424.154 49.2683 422.228 51.1306C419.601 53.8256 417.681 57.1287 416.639 60.7458C415.598 64.3628 415.467 68.1814 416.259 71.8612C416.731 76.5942 418.991 80.9688 422.577 84.0928C426.164 87.2168 430.807 88.8548 435.559 88.6727V88.5995Z" fill="#959CA1"/>
<path d="M308.074 95.1923L303.46 98.8549C298.316 102.612 292.174 104.757 285.81 105.018C279.446 105.278 273.149 103.643 267.715 100.32C263.931 97.5414 260.785 93.9867 258.486 89.8935C256.187 85.8004 254.788 81.2633 254.385 76.586C253.689 68.0586 253.493 59.4978 253.799 50.9475C253.799 45.1605 253.799 39.3735 253.799 33.5865C253.799 31.682 254.458 30.9494 256.362 31.0226C258.267 31.0959 261.306 31.0226 263.687 31.0226C264.835 30.9879 265.978 31.1961 267.041 31.6334C268.104 32.0707 269.062 32.7274 269.854 33.5605C270.645 34.3936 271.252 35.3844 271.635 36.4682C272.017 37.5519 272.167 38.7042 272.073 39.8496V68.6747C272.139 71.7566 272.734 74.8043 273.831 77.6848C274.745 80.08 276.182 82.2404 278.039 84.0076C279.896 85.7747 282.125 87.104 284.562 87.8977C286.999 88.6915 289.583 88.9296 292.124 88.5948C294.665 88.2599 297.099 87.3604 299.248 85.9624C301.446 84.5754 303.34 82.7561 304.815 80.6149C306.287 78.4746 307.309 76.0571 307.818 73.5094C308.361 71.1063 308.619 68.6476 308.587 66.1841V39.9962C308.587 33.6964 311.297 31.0593 317.596 30.986H324.628C325.836 30.986 326.459 31.4988 326.459 32.7441V102.334C326.459 103.763 325.8 104.276 324.445 104.276C321.002 104.276 317.559 104.276 314.117 104.276C313.428 104.287 312.743 104.163 312.103 103.909C311.475 103.656 310.903 103.283 310.418 102.811C309.933 102.328 309.547 101.756 309.283 101.126C309.02 100.499 308.883 99.8273 308.88 99.148C308.477 97.6829 308.916 96.4742 308.074 95.1923Z" fill="#959CA1"/>
<path d="M807.431 94.4232C803.352 98.648 798.359 101.881 792.836 103.875C787.312 105.869 781.405 106.57 775.569 105.924C771.995 105.694 768.464 105.018 765.058 103.909C758.652 101.949 752.961 98.1529 748.69 92.9903C744.42 87.8276 741.758 81.5255 741.033 74.8646C740.118 69.0106 740.292 63.038 741.546 57.2472C742.898 50.0515 746.502 43.4717 751.837 38.4578C757.18 33.4482 763.978 30.2672 771.247 29.3744C777.454 28.3087 783.815 28.5457 789.925 30.0704C795.27 31.602 800.176 34.3756 804.245 38.1648C805.527 39.2636 805.38 40.0694 804.245 41.1682C802.34 43.1094 800.582 45.0872 798.605 47.0284C797.641 48.123 796.362 48.8909 794.943 49.226C793.476 49.5358 791.949 49.369 790.584 48.7499C789.046 48.2005 787.618 47.5412 786.116 47.0284C783.091 45.9514 779.854 45.6001 776.668 46.0029C773.478 46.4115 770.429 47.5659 767.768 49.3725C765.101 51.167 762.893 53.5633 761.322 56.3682C759.761 59.1769 758.883 62.3137 758.759 65.5248C758.59 68.1034 758.788 70.693 759.345 73.2164C760.163 77.2361 762.256 80.8844 765.314 83.6183C768.366 86.3567 772.219 88.0391 776.301 88.4164C781.095 89.047 785.968 88.2708 790.328 86.1822C791.978 85.0215 794.019 84.5589 796.007 84.895C797.996 85.2311 799.772 86.3386 800.949 87.9769C803 90.0279 805.087 92.0791 807.431 94.4232Z" fill="#E52128"/>
<path d="M367.55 64.4992V77.6848C367.55 85.0101 371.212 88.2698 378.354 88.3065C380.463 88.0976 382.589 88.4647 384.507 89.3687C385.385 89.797 386.132 90.4551 386.667 91.2733C387.214 92.0898 387.531 93.0388 387.583 94.0202C387.583 96.9504 387.583 99.9171 387.583 102.884C387.583 103.873 387.217 104.605 386.118 104.569C379.854 104.946 373.568 104.651 367.367 103.69C362.562 102.667 358.232 100.082 355.051 96.3384C351.871 92.5945 350.02 87.9027 349.788 82.9956C348.909 72.9233 349.568 62.8144 349.348 52.7422V49.0795C349.348 47.3214 348.543 46.6988 346.858 46.7354H339.167C336.018 46.7354 335.944 46.7354 335.908 43.3291V37.066C335.815 36.2353 335.91 35.3942 336.186 34.6053C336.462 33.8163 336.912 33.0998 337.503 32.5087C338.094 31.9176 338.811 31.4672 339.6 31.1909C340.389 30.9146 341.23 30.8195 342.06 30.9127H347.078C348.799 30.9127 349.238 30.2168 349.202 28.6785V21.6462C349.158 20.1703 349.294 18.6945 349.605 17.2511C349.875 15.2695 350.866 13.4569 352.388 12.16C353.907 10.8649 355.849 10.174 357.845 10.2188C359.932 10.2188 362.057 10.2188 364.144 10.2188C367.44 10.2188 367.44 10.2188 367.477 13.4419V27.8361C367.477 30.9127 367.477 30.9127 370.553 30.9127H378.244C379.477 30.7654 380.727 30.8999 381.901 31.3061C383.074 31.7123 384.14 32.3796 385.018 33.2578C385.896 34.1359 386.564 35.202 386.97 36.3756C387.376 37.5492 387.511 38.7996 387.363 40.0328C387.363 42.1205 388.242 44.6477 386.96 46.186C385.679 47.7243 382.749 46.772 380.588 46.8453C376.926 46.8453 373.446 46.8453 369.784 46.8453C367.916 46.8453 367.147 47.4679 367.184 49.4091C367.587 54.3903 367.55 59.3715 367.55 64.4992Z" fill="#959CA1"/>
<path d="M150.704 67.2097V101.895C150.747 102.171 150.724 102.453 150.639 102.718C150.553 102.984 150.406 103.226 150.211 103.425C150.015 103.624 149.776 103.775 149.512 103.865C149.248 103.956 148.967 103.983 148.69 103.946H134.297C133.125 103.946 132.429 103.507 132.429 102.225V99.9904C132.429 80.2121 132.613 60.3971 132.429 40.5822C132.277 39.2385 132.43 37.8776 132.877 36.6013C133.324 35.325 134.054 34.1663 135.012 33.2118C135.97 32.2573 137.131 31.5317 138.409 31.0892C139.687 30.6467 141.048 30.4987 142.391 30.6564C144.354 30.7872 146.324 30.7872 148.287 30.6564C150.228 30.6564 150.851 31.3889 150.851 33.2569C150.851 39.6665 150.851 46.0396 150.851 52.4492L150.704 67.2097Z" fill="#959CA1"/>
<path d="M707.23 67.5026C707.325 69.5777 706.977 71.6491 706.21 73.5796C705.443 75.51 704.275 77.2553 702.782 78.6997C701.289 80.144 699.507 81.2544 697.552 81.9572C695.598 82.6599 693.516 82.939 691.445 82.7759C689.4 82.853 687.361 82.5069 685.455 81.7592C683.55 81.0116 681.819 79.8785 680.372 78.431C678.924 76.9835 677.791 75.2527 677.044 73.347C676.296 71.4413 675.95 69.4017 676.027 67.3561C675.959 65.2908 676.319 63.2338 677.086 61.3149C677.853 59.3961 679.01 57.6572 680.483 56.2081C681.956 54.759 683.713 53.6312 685.644 52.896C687.576 52.1607 689.638 51.8339 691.702 51.9364C693.778 51.8072 695.857 52.1217 697.802 52.8588C699.747 53.5959 701.513 54.7388 702.982 56.2114C704.451 57.684 705.59 59.4526 706.322 61.3994C707.054 63.3463 707.364 65.4268 707.23 67.5026Z" fill="#E52128"/>
<path d="M141.475 25.602C140.227 25.6565 138.981 25.4571 137.813 25.0159C136.608 24.5635 135.51 23.865 134.59 22.9648C133.667 22.0629 132.943 20.9774 132.466 19.7784C132 18.6149 131.776 17.3687 131.807 16.1157C131.711 14.7852 131.898 13.4496 132.356 12.1966C132.82 10.9478 133.544 9.81182 134.48 8.86367C135.414 7.91793 136.537 7.18129 137.776 6.70267C139.012 6.22412 140.335 6.01195 141.658 6.08002C142.979 6.07709 144.286 6.33864 145.504 6.8492C146.727 7.35531 147.836 8.10268 148.763 9.04676C149.684 9.99273 150.407 11.1136 150.887 12.3432C151.378 13.5775 151.614 14.8978 151.583 16.2256C151.573 17.4854 151.311 18.7305 150.814 19.8882C150.304 21.077 149.556 22.149 148.617 23.0381C147.679 23.9252 146.57 24.6108 145.357 25.0526C144.116 25.5041 142.793 25.6912 141.475 25.602V25.602Z" fill="#959CA1"/>
</g>
<defs>
<clipPath id="clip0_1_3">
<rect width="1016" height="152" fill="white"/>
</clipPath>
</defs>
</svg>
