<svg width="1016" height="171" viewBox="0 0 1016 171" fill="none" xmlns="http://www.w3.org/2000/svg">
<path d="M920.084 56.531C923.332 52.0391 928.184 48.9701 933.635 47.9604C938.979 46.8667 944.529 47.4026 949.566 49.4987C954.466 51.6693 958.382 55.5863 960.553 60.4867C961.358 59.4978 961.834 58.9484 962.237 58.3624C964.619 55.0458 967.758 52.346 971.393 50.4877C975.034 48.6364 979.065 47.682 983.149 47.704C986.835 47.5413 990.527 47.849 994.136 48.6197C998.444 49.4709 1002.46 51.4273 1005.78 54.2968C1009.11 57.1665 1011.63 60.852 1013.11 64.9917C1014.95 69.8468 1015.9 74.9979 1015.89 80.1918V118.65C1015.89 121.653 1015.89 121.726 1012.81 121.726H1007.65C1000.73 121.726 997.688 118.65 997.652 111.8V84.8067C997.652 83.0852 997.652 81.3638 997.652 79.6423C997.591 77.9253 997.296 76.2246 996.773 74.5879C996.22 72.3901 995.118 70.3684 993.571 68.7119C992.025 67.0554 990.083 65.8181 987.929 65.1156C985.774 64.4132 983.477 64.2686 981.251 64.6953C979.025 65.122 976.944 66.1061 975.202 67.5556C973.395 68.9493 971.888 70.6933 970.77 72.6833C969.649 74.6702 968.939 76.8625 968.683 79.1296C968.461 80.8417 968.363 82.5677 968.39 84.2939V119.785C968.39 121.177 967.914 121.799 966.449 121.763H952.056C950.847 121.763 950.225 121.323 950.261 120.041V83.4149C950.377 79.6954 949.638 75.9989 948.101 72.6101C947.091 70.3126 945.485 68.3272 943.45 66.8597C941.415 65.391 939.026 64.4931 936.528 64.2592C934.015 64.0216 931.485 64.4644 929.203 65.5412C926.928 66.608 924.981 68.2647 923.563 70.3392C921.011 74.0045 919.725 78.4027 919.901 82.8655V112.789C919.997 113.903 919.861 115.025 919.502 116.084C919.144 117.143 918.569 118.116 917.816 118.941C917.062 119.767 916.146 120.428 915.124 120.882C914.103 121.336 912.998 121.574 911.88 121.58C909.06 121.836 906.24 121.58 903.384 121.58C902.065 121.58 901.663 120.92 901.699 119.748V49.9016C901.699 48.7662 902.248 48.3633 903.237 48.3633C907.412 48.3633 911.624 48.3633 915.799 48.3633C916.329 48.3484 916.857 48.4411 917.35 48.636C917.843 48.8309 918.291 49.1238 918.668 49.497C919.044 49.8702 919.341 50.316 919.541 50.8074C919.74 51.2988 919.838 51.8254 919.828 52.3556C920.01 53.7397 920.096 55.1349 920.084 56.531V56.531Z" fill="#E52128"/>
<path d="M18.5314 55.9084C21.0459 52.7907 24.3217 50.3741 28.0426 48.8921C31.7634 47.41 35.8035 46.9125 39.7727 47.4477C43.8262 47.5769 47.7611 48.8464 51.126 51.1103C54.4847 53.4069 57.1255 56.6067 58.7435 60.3402C60.2817 58.5821 61.6368 57.0438 63.0285 55.5055C65.816 52.6072 69.227 50.3819 73.0026 48.9985C76.7782 47.615 80.8193 47.1097 84.8193 47.5209C88.0189 47.5689 91.1972 48.0494 94.268 48.9494C105.255 52.2824 110.822 60.2303 113.202 70.9253C113.82 73.9623 114.114 77.0561 114.081 80.1551V118.21C114.081 121.873 114.081 121.873 110.675 121.873C108.698 121.873 106.72 121.873 104.779 121.873C103.601 121.96 102.418 121.787 101.314 121.367C100.21 120.946 99.2125 120.288 98.3913 119.439C97.5701 118.589 96.9457 117.57 96.5622 116.452C96.1788 115.335 96.0457 114.147 96.1724 112.972V86.3817C96.1717 83.2811 95.9514 80.1845 95.5132 77.1151C95.1332 74.3191 94.0355 71.6692 92.327 69.4236C87.4928 62.9407 76.6156 63.5633 71.4518 69.4236C68.2529 73.0743 66.5408 77.7929 66.6541 82.6457V119.602C66.6541 121.14 66.2146 121.873 64.5666 121.873C59.9521 121.873 55.2277 121.873 50.54 121.873C48.5989 121.873 48.3426 120.884 48.3426 119.346V101.252C48.3426 94.4761 48.3426 87.7002 48.3426 80.9243C48.3771 76.5644 46.8138 72.3428 43.9478 69.0573C42.475 67.4367 40.6439 66.1825 38.6008 65.3946C36.5534 64.5894 34.3458 64.2758 32.1552 64.479C29.9695 64.685 27.8622 65.4 26.0024 66.5667C24.1504 67.7309 22.5954 69.311 21.4612 71.1816C19.0699 75.2334 17.8881 79.885 18.0552 84.5869V112.313C18.2631 113.604 18.1649 114.926 17.7683 116.173C17.3718 117.419 16.6881 118.555 15.7723 119.488C14.8566 120.422 13.7343 121.128 12.496 121.548C11.2577 121.969 9.93794 122.092 8.64306 121.909H1.97761C0.769048 121.909 0.146454 121.397 0.146454 120.151V50.5609C0.146454 48.8394 1.06209 48.5464 2.49039 48.5831H13.4773C16.7734 48.5831 17.7623 49.7551 17.982 53.1248C17.982 54.0771 17.4693 54.9561 18.5314 55.9084Z" fill="#959CA1"/>
<path d="M224.097 57.4467V53.7841C224.097 50.5243 225.635 48.9494 228.712 48.8395C232.374 48.8395 236.036 48.8395 239.699 48.8395C241.054 48.8395 241.823 49.279 241.75 50.7441V118.723C241.75 121.909 241.75 121.946 238.453 121.946H230.323C225.342 121.946 223.914 120.408 223.877 115.61V113.192C223.291 112.826 222.962 113.192 222.742 113.192C215.674 122.019 206.152 124.62 195.421 123.814C190.01 123.4 184.751 121.827 180.003 119.199C173.329 115.549 168.222 109.582 165.647 102.424C161.602 91.995 161.394 80.4678 165.061 69.8998C166.848 64.4093 170.067 59.4951 174.387 55.6642C178.707 51.8334 183.97 49.2245 189.635 48.1069C197.154 45.9774 205.162 46.3503 212.451 49.1691C215.784 50.4914 218.794 52.5149 221.277 55.1026C221.953 56.084 222.911 56.8374 224.024 57.2636L224.097 57.4467ZM181.065 85.5759C181.11 87.6402 181.318 89.6977 181.688 91.7291C182.504 94.7374 183.967 97.5317 185.973 99.9176C187.979 102.304 190.48 104.224 193.303 105.545C196.127 106.866 199.204 107.556 202.321 107.568C205.438 107.579 208.52 106.911 211.352 105.611C214.222 104.451 216.745 102.571 218.677 100.153C222.22 95.6585 223.957 90.0027 223.548 84.294C222.632 64.6255 203.991 59.278 191.173 66.3103C183.848 70.1927 181.028 77.0053 181.065 85.5392V85.5759Z" fill="#959CA1"/>
<path d="M504.301 57.4467C505.439 56.9585 506.434 56.1898 507.194 55.2125C509.985 52.5035 513.339 50.4428 517.016 49.1768C520.694 47.9107 524.605 47.4704 528.472 47.8872C530.811 47.9286 533.14 48.1861 535.431 48.6564C539.643 49.5831 543.544 51.5849 546.752 54.4668C549.961 57.3488 552.37 61.0126 553.742 65.1016C555.649 70.0448 556.63 75.2966 556.636 80.5947V118.65C556.636 121.836 556.636 121.836 553.303 121.873H548.139C546.843 121.988 545.538 121.82 544.314 121.38C543.09 120.941 541.976 120.24 541.049 119.328C540.123 118.415 539.406 117.311 538.948 116.094C538.49 114.876 538.302 113.574 538.397 112.277C538.397 107.845 538.397 103.413 538.397 98.9812V83.1219C538.473 81.2691 538.338 79.4136 537.994 77.5913C536.2 70.266 532.135 65.9074 525.652 64.9918C521.995 64.2365 518.192 64.676 514.803 66.2453C511.414 67.8147 508.618 70.431 506.828 73.7089C505.068 76.8281 504.135 80.3459 504.118 83.9277C504.118 93.1942 504.118 102.424 504.118 111.654C504.325 113.039 504.206 114.453 503.771 115.783C503.336 117.114 502.597 118.326 501.612 119.321C500.627 120.316 499.424 121.068 498.098 121.518C496.773 121.967 495.36 122.101 493.973 121.909H488.04C486.063 121.909 485.587 121.213 485.733 119.492V22.6882C485.733 18.4762 484.744 17.9267 490.348 18.0732C492.32 18.0329 494.292 18.1554 496.244 18.4395C497.361 18.4839 498.458 18.7564 499.466 19.2402C500.475 19.7239 501.373 20.4088 502.107 21.2526C502.841 22.0965 503.395 23.0815 503.735 24.1471C504.074 25.2128 504.192 26.3366 504.081 27.4496C504.081 35.4708 504.081 43.4554 504.081 51.4766L504.301 57.4467Z" fill="#959CA1"/>
<path d="M669.581 169.854H662.037C659.876 169.854 659.693 169.56 660.499 167.436C662.257 162.565 664.161 157.767 665.919 152.786C668.356 146.818 670.411 140.701 672.072 134.472C674.807 122.52 673.862 110.02 669.362 98.615C661.305 78.7634 653.431 58.8752 645.41 39.0236C644.612 37.6264 644.248 36.0229 644.366 34.418C644.483 32.8132 645.076 31.2797 646.069 30.0135C647.13 28.8027 648.509 27.9137 650.05 27.4476C651.591 26.9814 653.232 26.9568 654.786 27.3764C657.14 27.6304 659.374 28.5445 661.231 30.0135C663.089 31.4752 664.497 33.4297 665.296 35.654C669.618 47.3012 673.647 59.0583 677.895 70.7422C678.481 72.3538 677.895 73.2328 676.943 74.4049C674.717 77.3627 673.44 80.9255 673.28 84.6236C673.075 88.3418 674.007 92.0342 675.954 95.2087C677.952 98.5635 680.941 101.217 684.508 102.804C688.076 104.391 692.047 104.834 695.877 104.072C699.961 103.242 703.657 101.086 706.392 97.9409C709.127 94.7953 710.747 90.8352 711.002 86.6747C711.205 84.1872 710.855 81.6857 709.977 79.3494C709.087 76.9656 707.673 74.8125 705.838 73.0497C704.891 72.3093 704.254 71.2423 704.05 70.0572C703.847 68.872 704.093 67.6538 704.74 66.64C707.816 59.9008 710.563 53.0882 713.456 46.2757C714.221 44.1677 715.476 42.2721 717.118 40.7451C718.352 39.5241 719.919 38.6958 721.623 38.3644C723.337 38.036 725.109 38.2273 726.714 38.9138C727.57 39.1799 728.357 39.63 729.021 40.2323C729.685 40.8322 730.209 41.5697 730.559 42.3933C730.919 43.2118 731.094 44.0998 731.072 44.9938C731.051 45.8832 730.838 46.7577 730.449 47.5576C727.263 55.4323 724.04 63.2704 720.817 71.1451L700.784 119.602C694.229 135.534 687.637 151.43 681.118 167.216C681.015 167.688 680.819 168.135 680.542 168.531C680.266 168.927 679.914 169.265 679.506 169.524C679.11 169.798 678.663 169.99 678.191 170.091C677.72 170.191 677.233 170.198 676.76 170.11C674.374 169.884 671.977 169.798 669.581 169.854V169.854Z" fill="#959CA1"/>
<path d="M813.547 85.3195C813.374 80.6326 814.107 75.9564 815.708 71.548C818.038 64.7205 822.378 58.7577 828.16 54.4434C833.936 50.1321 840.881 47.668 848.083 47.3744C853.28 46.9367 858.514 47.4961 863.501 49.0226C870.312 50.9794 876.386 54.9185 880.952 60.3386C885.517 65.7587 888.366 72.4146 889.137 79.4593C890.145 86.0719 889.49 92.8313 887.233 99.1277C884.846 106.121 880.355 112.205 874.376 116.546C868.396 120.887 861.221 123.272 853.833 123.374C848.775 123.666 843.706 123.071 838.854 121.616C832.548 119.745 826.894 116.14 822.536 111.212C818.179 106.284 815.293 100.232 814.206 93.7436C813.907 92.293 813.699 90.8251 813.584 89.3484C813.474 88.0299 813.547 86.7479 813.547 85.3195ZM851.489 106.673C854.571 106.786 857.633 106.118 860.388 104.732C863.14 103.338 865.496 101.272 867.237 98.7248C869.902 94.496 871.182 89.5412 870.899 84.5504C870.67 79.537 868.877 74.7211 865.772 70.7788C863.765 68.3099 861.171 66.3833 858.227 65.1749C855.282 63.9778 852.084 63.5371 848.925 63.893C845.766 64.2411 842.744 65.3743 840.136 67.1894C837.536 69.0101 835.433 71.4529 834.019 74.2949C831.147 79.9675 830.595 86.5358 832.481 92.6082C833.476 96.821 835.931 100.545 839.411 103.12C842.89 105.694 847.169 106.953 851.489 106.673V106.673Z" fill="#E52128"/>
<path d="M568.721 85.5027C568.455 80.1973 569.345 74.8975 571.331 69.9707C573.316 65.0438 576.35 60.6079 580.221 56.9706C585.828 51.6847 593.026 48.4011 600.693 47.6309C610.042 46.238 619.582 48.2109 627.611 53.1981C631.988 55.9826 635.713 59.6784 638.532 64.0334C641.35 68.3884 643.197 73.3002 643.945 78.4337C645.475 86.7287 644.334 95.2953 640.686 102.9C638.5 107.823 635.173 112.155 630.981 115.536C626.788 118.904 621.855 121.227 616.588 122.312C607.072 124.803 596.976 123.762 588.168 119.382C582.651 116.625 577.955 112.467 574.549 107.325C571.143 102.183 569.146 96.2368 568.758 90.081C568.673 88.6049 568.673 87.1252 568.758 85.6491L568.721 85.5027ZM606.15 106.6C608.639 106.758 611.134 106.397 613.475 105.537C615.843 104.666 618.002 103.306 619.811 101.545C623.56 97.5055 625.768 92.2755 626.05 86.7711C626.331 81.2667 624.667 75.8388 621.349 71.4381C619.542 69.065 617.204 67.1477 614.524 65.8394C611.843 64.5312 608.894 63.8684 605.912 63.904C602.929 63.9396 599.996 64.6726 597.348 66.0444C594.699 67.4162 592.408 69.3888 590.659 71.8043C588.873 74.4658 587.631 77.4534 587.003 80.5959C586.374 83.7385 586.372 86.9742 586.996 90.1176C587.567 94.7613 589.844 99.0272 593.383 102.087C596.923 105.146 601.473 106.78 606.15 106.673V106.6Z" fill="#959CA1"/>
<path d="M397.911 85.2096C397.682 79.9099 398.606 74.6237 400.621 69.7166C402.64 64.8076 405.701 60.396 409.594 56.7874C415.06 51.7289 422.004 48.5578 429.407 47.7407C438.486 46.2834 447.791 47.9765 455.775 52.5387C460.318 55.1813 464.22 58.796 467.202 63.1238C470.188 67.4566 472.177 72.3976 473.025 77.5913C475.172 87.5783 473.346 98.009 467.934 106.673C464.919 111.577 460.742 115.663 455.772 118.57C450.803 121.476 445.194 123.114 439.441 123.338C432.898 124.024 426.286 123.107 420.178 120.664C406.407 114.914 399.595 104.145 397.911 89.7146C397.823 88.2142 397.823 86.71 397.911 85.2096V85.2096ZM435.559 106.599C438.053 106.735 440.548 106.348 442.884 105.464C445.247 104.567 447.393 103.182 449.183 101.398C452.903 97.3265 455.073 92.0763 455.314 86.5661C455.555 81.0558 453.852 75.6362 450.502 71.2549C448.873 69.1275 446.814 67.3677 444.459 66.0905C442.105 64.8179 439.509 64.0566 436.841 63.8563C434.171 63.6528 431.488 64.0148 428.967 64.9185C426.45 65.833 424.154 67.2683 422.228 69.1305C419.601 71.8255 417.681 75.1287 416.639 78.7457C415.598 82.3628 415.467 86.1814 416.259 89.8612C416.731 94.5942 418.991 98.9688 422.577 102.093C426.164 105.217 430.807 106.855 435.559 106.673V106.599Z" fill="#959CA1"/>
<path d="M308.074 113.192L303.46 116.855C298.316 120.612 292.174 122.757 285.81 123.018C279.446 123.278 273.149 121.643 267.715 118.32C263.931 115.541 260.785 111.987 258.486 107.894C256.187 103.8 254.788 99.2633 254.385 94.586C253.689 86.0586 253.493 77.4978 253.799 68.9475C253.799 63.1605 253.799 57.3735 253.799 51.5865C253.799 49.682 254.458 48.9494 256.362 49.0226C258.267 49.0959 261.306 49.0226 263.687 49.0226C264.835 48.9879 265.978 49.1961 267.041 49.6334C268.104 50.0707 269.062 50.7274 269.854 51.5605C270.645 52.3936 271.252 53.3844 271.635 54.4682C272.017 55.5519 272.167 56.7042 272.073 57.8496V86.6747C272.139 89.7566 272.734 92.8043 273.831 95.6848C274.745 98.08 276.182 100.24 278.039 102.008C279.896 103.775 282.125 105.104 284.562 105.898C286.999 106.691 289.583 106.93 292.124 106.595C294.665 106.26 297.099 105.36 299.248 103.962C301.446 102.575 303.34 100.756 304.815 98.6149C306.287 96.4746 307.309 94.0571 307.818 91.5094C308.361 89.1063 308.619 86.6476 308.587 84.1841V57.9962C308.587 51.6964 311.297 49.0593 317.596 48.986H324.628C325.836 48.986 326.459 49.4988 326.459 50.7441V120.334C326.459 121.763 325.8 122.276 324.445 122.276C321.002 122.276 317.559 122.276 314.117 122.276C313.428 122.287 312.743 122.163 312.103 121.909C311.475 121.656 310.903 121.283 310.418 120.811C309.933 120.328 309.547 119.756 309.283 119.126C309.02 118.499 308.883 117.827 308.88 117.148C308.477 115.683 308.916 114.474 308.074 113.192Z" fill="#959CA1"/>
<path d="M807.431 112.423C803.352 116.648 798.359 119.881 792.836 121.875C787.312 123.869 781.405 124.57 775.569 123.924C771.995 123.694 768.464 123.018 765.058 121.909C758.652 119.949 752.961 116.153 748.69 110.99C744.42 105.828 741.758 99.5254 741.033 92.8645C740.118 87.0106 740.292 81.038 741.546 75.2472C742.898 68.0515 746.502 61.4717 751.837 56.4578C757.18 51.4482 763.978 48.2672 771.247 47.3744C777.454 46.3087 783.815 46.5457 789.925 48.0703C795.27 49.602 800.176 52.3756 804.245 56.1648C805.527 57.2636 805.38 58.0694 804.245 59.1682C802.34 61.1094 800.583 63.0872 798.605 65.0284C797.641 66.123 796.362 66.8909 794.943 67.226C793.476 67.5358 791.949 67.369 790.584 66.7499C789.046 66.2005 787.618 65.5412 786.116 65.0284C783.091 63.9514 779.854 63.6001 776.668 64.0029C773.478 64.4114 770.429 65.5658 767.768 67.3725C765.101 69.167 762.893 71.5633 761.323 74.3681C759.761 77.1768 758.883 80.3136 758.759 83.5248C758.591 86.1034 758.788 88.693 759.345 91.2163C760.163 95.2361 762.256 98.8844 765.314 101.618C768.366 104.357 772.219 106.039 776.301 106.416C781.095 107.047 785.968 106.271 790.328 104.182C791.978 103.022 794.019 102.559 796.007 102.895C797.996 103.231 799.772 104.339 800.949 105.977C803 108.028 805.087 110.079 807.431 112.423Z" fill="#E52128"/>
<path d="M367.55 82.4992V95.6848C367.55 103.01 371.212 106.27 378.354 106.306C380.463 106.098 382.589 106.465 384.507 107.369C385.385 107.797 386.132 108.455 386.667 109.273C387.214 110.09 387.531 111.039 387.583 112.02C387.583 114.95 387.583 117.917 387.583 120.884C387.583 121.873 387.217 122.605 386.118 122.569C379.854 122.946 373.568 122.651 367.367 121.69C362.562 120.667 358.232 118.082 355.051 114.338C351.871 110.595 350.02 105.903 349.788 100.996C348.909 90.9233 349.568 80.8144 349.348 70.7422V67.0795C349.348 65.3214 348.543 64.6988 346.858 64.7354H339.167C336.018 64.7354 335.944 64.7354 335.908 61.3291V55.066C335.815 54.2353 335.91 53.3942 336.186 52.6053C336.462 51.8163 336.912 51.0998 337.503 50.5087C338.094 49.9176 338.811 49.4672 339.6 49.1909C340.389 48.9146 341.23 48.8195 342.06 48.9127H347.078C348.799 48.9127 349.238 48.2168 349.202 46.6785V39.6462C349.158 38.1703 349.294 36.6945 349.605 35.2511C349.875 33.2695 350.866 31.4569 352.388 30.16C353.907 28.8649 355.849 28.174 357.845 28.2188C359.932 28.2188 362.057 28.2188 364.144 28.2188C367.44 28.2188 367.44 28.2188 367.477 31.4419V45.8361C367.477 48.9127 367.477 48.9127 370.553 48.9127H378.244C379.477 48.7654 380.727 48.8999 381.901 49.3061C383.074 49.7123 384.14 50.3796 385.018 51.2578C385.896 52.1359 386.564 53.202 386.97 54.3756C387.376 55.5492 387.511 56.7996 387.363 58.0328C387.363 60.1205 388.242 62.6477 386.96 64.186C385.679 65.7243 382.749 64.772 380.588 64.8453C376.926 64.8453 373.446 64.8453 369.784 64.8453C367.916 64.8453 367.147 65.4679 367.184 67.4091C367.587 72.3903 367.55 77.3715 367.55 82.4992Z" fill="#959CA1"/>
<path d="M150.704 85.2097V119.895C150.747 120.171 150.724 120.453 150.639 120.718C150.553 120.984 150.406 121.226 150.211 121.425C150.015 121.624 149.776 121.775 149.512 121.865C149.248 121.956 148.967 121.983 148.69 121.946H134.297C133.125 121.946 132.429 121.507 132.429 120.225V117.99C132.429 98.2121 132.613 78.3971 132.429 58.5822C132.277 57.2385 132.43 55.8776 132.877 54.6013C133.324 53.325 134.054 52.1663 135.012 51.2118C135.97 50.2573 137.131 49.5317 138.409 49.0892C139.687 48.6467 141.048 48.4987 142.391 48.6564C144.354 48.7872 146.324 48.7872 148.287 48.6564C150.228 48.6564 150.851 49.3889 150.851 51.2569C150.851 57.6665 150.851 64.0396 150.851 70.4492L150.704 85.2097Z" fill="#959CA1"/>
<path d="M707.23 85.5026C707.325 87.5776 706.977 89.6491 706.21 91.5795C705.443 93.51 704.275 95.2553 702.782 96.6996C701.29 98.144 699.507 99.2544 697.552 99.9572C695.598 100.66 693.516 100.939 691.445 100.776C689.4 100.853 687.361 100.507 685.455 99.7592C683.55 99.0116 681.819 97.8785 680.372 96.431C678.924 94.9835 677.791 93.2526 677.044 91.3469C676.296 89.4412 675.95 87.4017 676.027 85.3561C675.959 83.2908 676.319 81.2337 677.086 79.3149C677.853 77.3961 679.01 75.6572 680.483 74.2081C681.956 72.759 683.713 71.6312 685.644 70.8959C687.576 70.1607 689.638 69.8339 691.702 69.9363C693.778 69.8072 695.857 70.1217 697.802 70.8588C699.747 71.5959 701.513 72.7388 702.982 74.2114C704.451 75.6839 705.59 77.4525 706.322 79.3994C707.055 81.3463 707.364 83.4268 707.23 85.5026Z" fill="#E52128"/>
<path d="M141.475 43.6019C140.227 43.6564 138.981 43.4571 137.813 43.0159C136.608 42.5635 135.51 41.865 134.59 40.9648C133.667 40.0628 132.943 38.9773 132.466 37.7783C132 36.6149 131.776 35.3687 131.807 34.1157C131.711 32.7852 131.898 31.4495 132.356 30.1966C132.82 28.9478 133.544 27.8118 134.48 26.8636C135.414 25.9179 136.537 25.1813 137.776 24.7026C139.012 24.2241 140.335 24.0119 141.658 24.08C142.979 24.0771 144.286 24.3386 145.504 24.8492C146.727 25.3553 147.836 26.1027 148.763 27.0467C149.684 27.9927 150.407 29.1136 150.887 30.3431C151.378 31.5774 151.614 32.8978 151.583 34.2255C151.573 35.4854 151.311 36.7305 150.814 37.8882C150.304 39.077 149.556 40.1489 148.617 41.0381C147.679 41.9251 146.57 42.6107 145.357 43.0526C144.116 43.5041 142.793 43.6912 141.475 43.6019V43.6019Z" fill="#959CA1"/>
</svg>
