<svg width="600" height="600" viewBox="0 0 600 600" fill="none" xmlns="http://www.w3.org/2000/svg">
<path d="M208.742 539.402C207.842 539.202 207.042 538.802 207.042 538.502C207.042 537.802 213.742 519.902 219.042 506.202C221.242 500.402 223.742 493.902 224.442 491.702C225.242 489.502 227.742 482.802 230.042 476.702C232.342 470.702 235.042 463.202 236.042 460.202C237.042 457.202 239.242 450.902 240.842 446.202C245.342 433.802 249.542 416.402 251.542 402.302C252.942 392.302 253.242 386.002 252.742 368.802C252.142 347.402 252.142 347.802 246.042 319.702C245.542 317.502 243.742 312.302 242.042 308.202C240.342 304.102 238.342 299.102 237.642 297.202C236.942 295.302 221.542 257.002 203.542 212.202C172.342 134.402 159.342 101.902 156.442 94.2023C153.442 86.2023 155.242 76.2023 160.742 70.2023C166.242 64.0023 173.642 60.9023 182.342 61.0023C190.442 61.2023 202.942 64.5023 205.942 67.3023C207.042 68.4023 208.342 69.2023 208.942 69.2023C210.742 69.2023 220.942 81.3023 223.342 86.4023C224.742 89.3023 227.642 96.9023 229.842 103.202C234.242 115.702 237.642 125.202 255.942 176.402C262.642 195.002 268.042 210.802 268.042 211.502C268.042 212.202 266.242 215.202 263.942 218.102C255.042 230.002 251.042 241.802 251.042 256.202C251.042 281.902 264.042 302.902 286.742 313.802C300.042 320.102 313.942 321.802 328.342 318.702C338.242 316.602 344.342 313.502 354.542 305.402C364.742 297.202 369.442 290.902 374.242 278.702C376.942 271.802 377.442 269.102 377.842 259.602C378.342 245.602 377.042 239.302 371.342 228.202C368.142 221.802 364.942 217.502 359.642 212.102L352.342 204.702L358.242 191.202C364.142 177.702 369.442 165.302 379.742 140.702C392.042 111.202 393.942 108.102 402.842 102.902C414.142 96.3023 422.942 95.8023 433.042 101.002C439.842 104.502 443.842 110.102 444.742 116.902C445.242 121.302 444.842 123.402 442.042 130.402C440.242 135.002 438.342 139.102 437.842 139.702C437.442 140.202 437.042 141.202 437.042 141.902C437.042 143.602 432.842 152.602 431.942 153.002C431.542 153.202 429.942 157.202 428.542 162.002C427.042 166.802 425.142 171.402 424.442 172.302C423.642 173.102 423.042 174.302 423.042 174.902C423.042 175.402 419.142 185.302 414.442 196.802C409.642 208.302 402.542 225.602 398.642 235.202C394.642 244.802 390.742 254.302 389.842 256.202C388.942 258.102 385.742 266.002 382.642 273.702C376.942 288.002 371.442 301.402 361.542 325.202C358.442 332.602 353.042 345.702 349.542 354.202C341.142 374.602 335.242 389.002 333.542 392.702C332.842 394.402 330.942 398.902 329.442 402.702C327.942 406.602 326.142 410.402 325.342 411.302C324.642 412.202 323.342 415.302 322.642 418.302C321.842 421.302 319.842 426.402 318.242 429.702C316.642 433.002 314.542 437.902 313.642 440.602C312.742 443.302 310.442 449.102 308.642 453.602C306.742 458.002 304.242 464.202 303.042 467.202C301.842 470.202 298.842 476.902 296.442 481.902C294.042 487.002 292.042 491.502 292.042 491.802C292.042 493.502 274.342 537.102 273.142 538.502C272.442 539.202 212.242 540.102 208.742 539.402Z" fill="#939AA1"/>
<path d="M300.842 306.602C283.942 302.602 270.442 290.302 264.942 274.202C261.742 265.002 261.742 249.502 264.842 239.602C269.042 225.902 277.342 216.702 291.242 210.202C316.442 198.402 348.542 208.302 361.242 231.802C365.542 239.702 367.442 251.602 366.242 262.102C363.842 282.202 355.642 294.502 339.542 302.202C327.142 308.202 313.542 309.702 300.842 306.602Z" fill="#E21F25"/>
</svg>
