<svg width="1000" height="1006" viewBox="0 0 1000 1006" fill="none" xmlns="http://www.w3.org/2000/svg">
<path d="M460.645 700.231C382.645 693.131 315.245 665.631 262.845 619.231C200.745 564.331 165.245 495.031 152.245 403.031C150.145 388.131 149.245 335.131 150.745 316.531C161.845 184.931 240.345 75.4306 356.845 29.0306C419.545 4.03061 491.745 -3.1694 563.845 8.3306C636.645 19.9306 702.445 53.1306 751.445 103.031C770.545 122.431 777.645 131.031 791.745 152.031C821.345 196.231 839.345 245.031 847.545 302.831C850.145 321.031 850.145 383.431 847.545 402.831C833.545 509.231 780.545 595.731 696.845 648.531C651.045 677.431 596.745 695.031 536.745 700.331C515.845 702.131 481.045 702.131 460.645 700.231V700.231ZM515.845 548.831C561.545 545.331 598.945 528.331 628.345 497.631C655.445 469.331 671.445 435.531 679.545 389.831C681.845 376.431 682.145 330.531 679.945 319.331C672.945 282.931 663.745 259.831 645.745 232.731C634.545 215.931 613.245 194.431 597.445 183.931C579.445 171.931 564.345 165.131 544.645 159.831C515.345 152.131 482.645 152.031 451.745 159.831C420.245 167.731 396.345 181.231 373.845 203.731C351.945 225.731 338.145 248.431 327.845 278.831C308.545 336.531 313.145 402.831 340.345 456.831C342.145 460.431 346.745 468.031 350.545 473.831C379.645 517.531 424.445 543.631 479.345 548.731C492.445 549.931 500.645 549.931 515.845 548.831V548.831Z" fill="#9A9DA0"/>
<path d="M485.345 1000.93C478.245 998.83 469.245 994.33 462.445 989.53C455.845 984.73 238.445 768.43 236.345 764.53C235.045 762.03 234.945 760.73 235.745 758.53C237.345 754.53 242.745 754.83 251.545 759.43C265.045 766.63 287.545 777.73 296.845 781.83C341.045 801.03 395.145 814.53 445.345 818.83C463.945 820.43 464.845 820.53 464.845 822.83C464.845 824.53 464.145 824.83 459.645 824.83C456.745 824.83 453.345 825.13 452.145 825.43L449.845 826.03V883.53C449.845 930.13 450.145 941.43 451.245 943.63C451.945 945.13 452.845 948.63 453.245 951.33C454.245 958.63 454.745 959.83 456.845 959.83C458.345 959.83 458.845 960.93 459.445 965.43C459.745 968.43 459.845 972.73 459.545 974.83C459.145 978.33 459.345 979.03 462.445 981.33C464.245 982.73 467.245 985.23 469.045 986.83C470.845 988.53 472.645 989.83 473.045 989.83C473.545 989.83 473.845 990.53 473.845 991.33C473.845 992.33 474.845 992.83 476.845 992.83C478.545 992.83 479.845 993.13 479.845 993.63C479.845 994.03 483.645 995.23 488.345 996.33C495.945 998.03 496.845 998.43 496.845 1000.53C496.845 1003.43 494.045 1003.43 485.345 1000.93V1000.93Z" fill="#28D6C3"/>
<path d="M499.845 1000.53C499.845 998.431 500.545 998.131 506.845 997.031C517.045 995.331 519.845 995.431 519.845 997.731C519.845 999.231 518.445 999.931 512.745 1001.23C502.545 1003.53 499.845 1003.43 499.845 1000.53Z" fill="#28D6C3"/>
<path d="M493.845 1001.83C493.845 1001.23 492.745 1001.03 491.345 1001.43C489.745 1001.83 488.845 1001.63 488.845 1000.83C488.845 1000.13 488.145 999.831 487.345 1000.23C486.545 1000.53 485.845 1000.23 485.845 999.731C485.845 999.131 484.945 998.831 483.845 999.131C482.745 999.431 481.845 999.231 481.845 998.631C481.845 998.131 480.945 998.031 479.845 998.331C478.545 998.731 477.645 998.431 477.245 997.431C476.945 996.631 476.045 996.231 475.345 996.431C474.645 996.731 473.045 996.031 471.945 994.931C470.745 993.731 469.845 993.131 469.845 993.631C469.845 994.031 469.345 993.531 468.745 992.531C468.145 991.631 467.345 991.031 466.745 991.331C466.245 991.731 465.845 991.331 465.845 990.631C465.845 989.831 463.645 987.531 460.945 985.531C457.345 982.731 455.945 980.931 455.545 978.531C455.245 976.831 455.445 974.931 455.945 974.431C457.145 973.131 457.045 968.131 455.845 967.331C455.345 967.031 454.845 967.331 454.845 968.231C454.845 969.031 454.345 969.831 453.745 970.031C453.145 970.231 452.645 972.131 452.645 974.231V978.131L449.145 974.531L445.645 971.031L447.445 967.831C448.945 965.331 449.845 964.731 452.045 965.031C453.645 965.331 454.945 964.931 455.245 964.131C455.545 963.331 455.045 962.831 453.845 962.831C451.745 962.831 451.245 961.631 450.245 954.331C449.845 951.631 448.945 948.131 448.145 946.631C447.045 944.331 446.745 932.931 446.745 883.631L446.645 823.331L450.545 822.231C453.145 821.431 466.645 821.131 490.645 821.131H526.845V824.531C526.845 826.931 526.345 827.831 525.245 827.831C524.145 827.831 523.845 828.331 524.245 829.431C524.545 830.331 524.845 831.231 524.845 831.431C524.845 831.631 525.745 831.831 526.845 831.831C528.845 831.831 528.845 832.531 529.045 886.131C529.145 915.931 529.245 945.531 529.345 951.831C529.545 969.231 528.945 974.831 526.845 974.831C525.045 974.831 523.545 979.731 524.745 981.731C526.145 983.931 531.045 984.931 533.945 983.631C535.545 982.931 536.845 982.031 536.845 981.631C536.845 979.231 541.145 976.831 545.345 976.831C547.845 976.831 549.845 977.231 549.845 977.631C549.845 978.631 542.745 985.331 537.245 989.531C530.545 994.631 519.145 999.931 516.345 999.231C514.745 998.831 513.845 999.031 513.845 999.731C513.845 1000.43 512.945 1000.63 511.345 1000.23C509.945 999.931 508.845 1000.03 508.845 1000.53C508.845 1001.03 507.545 1001.33 505.845 1001.03C504.045 1000.73 502.845 1001.03 502.845 1001.73C502.845 1002.33 500.945 1002.83 498.345 1002.83C495.845 1002.83 493.845 1002.33 493.845 1001.83V1001.83Z" fill="#2CC6B6"/>
<path d="M443.945 972.431C443.245 971.631 442.845 970.131 443.145 969.131C443.445 967.731 443.745 967.931 444.745 970.231C446.045 973.531 445.645 974.531 443.945 972.431V972.431Z" fill="#2CC6B6"/>
<path d="M531.845 822.431C531.845 820.731 534.945 819.831 541.145 819.831C545.145 819.831 545.845 820.131 545.845 821.831C545.845 823.631 545.145 823.831 538.845 823.831C533.545 823.831 531.845 823.531 531.845 822.431Z" fill="#2CC6B6"/>
<path d="M516.845 995.83C518.845 994.53 521.145 994.53 520.345 995.83C520.045 996.43 518.745 996.83 517.545 996.83C515.745 996.83 515.645 996.63 516.845 995.83Z" fill="#2FBCAD"/>
<path d="M522.845 989.331C522.845 988.431 523.845 987.831 525.145 987.731C527.245 987.631 527.145 987.631 524.745 986.731C521.645 985.531 519.545 981.431 520.445 978.431C520.845 977.331 521.245 975.431 521.345 974.331C521.445 973.231 521.545 971.131 521.645 969.631C521.945 965.831 524.845 965.831 524.945 969.631C525.045 971.531 525.245 971.131 525.745 968.131C526.145 965.831 526.145 961.831 525.745 959.131L525.145 954.331L524.945 959.131C524.845 963.131 524.545 963.931 523.145 963.631C520.645 963.131 519.845 950.831 522.345 950.831C523.145 950.831 523.845 951.331 523.845 952.031C523.845 952.831 524.145 952.931 524.945 952.131C525.945 951.131 526.345 836.031 525.345 834.931C525.045 834.731 524.845 859.331 524.845 889.631C524.845 937.231 524.645 944.831 523.345 944.831C522.145 944.831 521.845 936.731 521.645 886.631C521.445 854.531 520.945 827.531 520.445 826.631C519.845 825.131 520.045 824.831 521.945 824.831C524.145 824.731 524.245 824.731 522.445 823.731C519.345 821.831 522.545 820.831 531.245 820.831C535.645 820.831 542.845 820.331 547.245 819.831C551.745 819.231 562.145 817.831 570.345 816.831C588.645 814.431 587.845 814.431 587.845 816.631C587.845 818.231 586.545 818.731 579.645 819.631C575.145 820.331 571.245 821.131 570.945 821.431C570.445 821.931 569.545 864.631 568.745 925.331C568.645 929.731 568.945 934.931 569.345 936.831C569.945 940.331 570.145 940.331 574.145 940.031C576.445 939.831 578.745 939.231 579.345 938.731C580.445 937.631 588.845 937.531 588.845 938.631C588.845 939.031 579.645 948.531 568.445 959.731C552.545 975.631 547.345 980.231 545.345 980.331C542.345 980.431 539.645 983.231 540.545 985.431C540.945 986.431 540.545 986.631 539.445 986.231C538.545 985.931 537.145 986.131 536.445 986.731C535.645 987.431 533.045 988.131 530.645 988.431C528.345 988.731 526.245 989.331 526.045 989.931C525.445 991.431 522.845 990.931 522.845 989.331V989.331Z" fill="#2FBCAD"/>
<path d="M568.245 953.231C568.745 951.531 568.345 950.831 566.845 950.331C564.745 949.631 564.145 946.431 565.945 945.231C566.645 944.831 566.745 943.131 566.345 940.431C565.945 938.231 565.645 931.131 565.745 924.831C565.845 918.531 566.045 893.131 566.345 868.331C566.545 843.631 567.045 822.531 567.345 821.631C567.745 820.731 567.745 819.531 567.445 819.031C567.145 818.431 570.545 817.531 575.145 816.831C587.345 815.131 616.445 809.231 630.045 805.831C644.145 802.331 643.845 802.331 643.845 804.731C643.845 806.231 642.345 806.931 636.845 808.431C632.945 809.431 629.845 810.731 629.845 811.431C629.845 812.131 629.445 812.831 628.945 813.031C628.345 813.231 628.345 815.231 628.945 818.331C629.445 821.131 629.845 834.331 629.845 847.831C629.645 886.731 629.345 883.631 632.545 884.031C634.945 884.331 635.445 884.831 635.645 887.731C635.845 890.031 635.445 891.431 634.445 892.031C633.545 892.531 632.845 893.431 632.845 894.131C632.845 895.831 586.445 942.031 585.545 941.231C585.245 940.931 584.145 940.931 583.145 941.231C581.645 941.831 581.645 942.131 582.845 942.831C585.145 944.231 581.245 948.131 578.845 946.831C577.445 946.031 576.545 946.531 574.445 949.331C572.945 951.231 572.245 952.831 572.845 952.831C575.345 952.831 573.045 955.131 570.445 955.331C568.145 955.431 567.845 955.131 568.245 953.231V953.231ZM577.045 943.031C575.145 942.431 572.645 943.631 573.345 944.831C573.745 945.531 574.745 945.431 576.145 944.631C577.545 943.931 577.845 943.331 577.045 943.031V943.031Z" fill="#31B1A4"/>
<path d="M628.145 897.13C626.645 896.83 626.145 896.23 626.545 895.13C626.845 894.33 626.545 893.23 625.845 892.83C624.845 892.23 624.745 891.33 625.545 889.13C627.045 885.13 626.745 819.631 625.245 817.731C623.945 816.131 624.545 809.83 625.945 809.83C626.445 809.83 626.845 809.23 626.845 808.63C626.845 807.83 631.145 806.13 637.145 804.43C656.145 799.03 683.745 789.43 698.645 783.13C699.445 782.83 699.845 783.531 699.845 785.231C699.845 786.631 699.445 787.83 698.845 787.83C698.345 787.83 697.845 788.431 697.845 789.231C697.845 789.931 696.545 791.131 695.045 791.731C692.145 792.931 692.145 793.031 693.145 798.031C693.845 801.531 693.845 804.03 693.145 805.93C692.445 807.63 692.445 809.03 692.945 809.43C694.145 810.13 694.145 816.031 692.845 819.231C692.045 821.331 692.245 821.731 694.145 822.031C695.945 822.231 696.345 823.03 696.645 826.83L696.845 831.33L663.645 864.43C636.945 890.93 629.945 897.43 628.145 897.13V897.13ZM632.045 887.531C631.645 886.631 627.845 890.63 627.845 891.93C627.845 892.43 628.845 891.731 630.145 890.531C631.445 889.331 632.245 887.931 632.045 887.531V887.531Z" fill="#369E95"/>
<path d="M690.445 834.531C688.545 833.131 688.545 833.031 691.245 830.331C694.345 827.231 694.245 825.431 690.745 825.331C687.645 825.331 687.045 822.031 689.445 817.031C691.045 813.531 691.045 813.431 688.945 811.731C686.445 809.631 686.245 808.131 688.545 805.631C690.545 803.431 690.445 798.331 688.445 796.231C686.345 794.131 687.745 790.831 691.445 789.031C693.345 788.231 694.845 786.931 694.845 786.231C694.845 785.231 702.645 780.831 704.445 780.831C704.945 780.831 728.045 769.331 745.845 760.231C748.345 758.931 752.545 757.331 755.145 756.631C761.045 755.131 763.245 756.131 763.645 760.831C763.945 763.931 762.145 765.931 728.145 800.031C694.945 833.231 692.145 835.831 690.445 834.531V834.531Z" fill="#3A8C85"/>
</svg>
