<svg width="2560" height="804" viewBox="0 0 2560 804" fill="none" xmlns="http://www.w3.org/2000/svg">
<path d="M455.2 802C454.3 800.6 454.1 798.4 454.5 795.9C455.2 791.6 456.6 790.2 458.3 791.9C459.8 793.4 464.7 793.3 465.7 791.7C466.1 790.9 467.4 790 468.4 789.7C469.4 789.3 470 788.7 469.7 788.4C469.4 788 469.7 787.1 470.5 786.3C471.6 785.3 471.8 783.7 471.4 780.8C470.9 777.9 471.1 776.5 472.1 775.8C473.2 775.1 473.2 774.7 472.3 774.3C471.3 774 471 766.8 471 743.2C471 726.3 471.3 711.5 471.6 710.3C472.2 708 473.3 707.8 480.8 708.6L485.1 709.1L484.5 789.5L481.7 794.2C477.8 800.9 473.7 803 463 803.7C457.2 804.1 456.4 803.9 455.2 802Z" fill="#BDC2C3"/>
<path d="M695.8 801.3C691.4 798.3 691.2 797.3 694 792.8C695.9 789.6 696.1 789.5 702.3 789.8C707.4 790.1 709 789.8 711.2 788.1C712.6 786.9 714.3 786 715 786C716.6 786 720.5 776.9 719.2 776.1C718.6 775.7 717.9 774.2 717.6 772.6C717.3 771.1 716.4 768.7 715.5 767.4C714.7 766.1 714.2 765 714.6 765C714.9 765 714.5 763.9 713.6 762.5C712.7 761.1 712.2 760 712.5 760C712.8 760 712.5 759 711.8 757.8C711.2 756.5 710.5 755 710.4 754.4C710.1 752.6 698.4 724.7 694.7 716.9C691.6 710.4 691.4 709.8 693.1 708.9C698 706.3 704.6 708.8 706.6 714C713.6 732.5 725.3 761.7 725.9 762.3C726.8 763.2 734.1 743.4 734.4 739.5C734.4 738.1 734.9 737 735.4 737C735.8 737 736 736.3 735.6 735.5C735.3 734.7 735.4 734 735.8 734C736.7 734 738.6 729.9 743 718.3C744.7 713.8 746.8 709.6 747.6 708.9C748.9 707.8 757.4 708.1 758.6 709.2C758.8 709.5 754.4 721.1 748.7 735.1C743 749.1 735.7 767.1 732.6 775.2C726.2 791.6 723 796.7 716.8 800.7C713.4 802.8 711.1 803.5 706 803.7C700.4 803.9 699 803.6 695.8 801.3Z" fill="#BDC2C3"/>
<path d="M185 732V686H215.9C250.2 686 249.4 685.8 248.8 692.7L248.5 696.5L223.3 696.8L198 697L197.4 699.5C196.5 703 197.3 724.7 198.4 725.7C198.9 726.1 199.5 726 199.7 725.3C200.3 723.8 240 723.4 240 725C240 725.5 240.7 726 241.5 726C242.7 726 243 727.3 243 731.5V737H220.6C201.1 737 198.1 737.2 197.6 738.6C197.3 739.5 197 745 197 751C197 762.6 198.2 768.2 200.2 766.2C201.9 764.5 247.1 764.5 248.8 766.2C250.6 768 250.3 776.7 248.4 777.4C247.5 777.7 232.9 778 215.9 778H185V732Z" fill="#BDC2C3"/>
<path d="M328.4 775.5C328.1 774.1 327.4 773 326.9 773C326.4 773 326 759.7 326 742.5C326 722.8 326.4 712 327 712C327.6 712 328 711.4 328 710.6C328 708.9 330.2 708 334 708C339.4 708 340 708.7 340 715.3V721.3L343.8 717.2C349.5 711 355.7 708.6 365.5 708.7C373.7 708.8 377.1 709.1 378 710C378.3 710.3 380.1 711.6 382.1 712.9C386.4 715.8 389.7 720.4 391.1 725.4C392.4 730.2 392.8 775.8 391.6 777C391 777.6 388.9 778 386.9 778C379.7 778 380 779.1 380 755.2C380 735.3 379.8 733.3 377.9 729.2C374.4 722 365.8 718 357 719.5C351.9 720.4 345.3 726.2 342.4 732.4C340.2 737.2 340 738.7 340 756.6C340 770 339.6 776 338.8 776.8C338.1 777.5 335.7 778 333.3 778C329.6 778 329 777.7 328.4 775.5Z" fill="#BDC2C3"/>
<path d="M629.98 742.86C629.98 762.466 614.086 778.359 594.481 778.359C574.875 778.359 558.981 762.466 558.981 742.86C558.981 723.254 574.875 707.361 594.481 707.361C614.086 707.361 629.98 723.254 629.98 742.86ZM617.876 742.942C617.876 729.832 607.249 719.204 594.139 719.204C581.029 719.204 570.401 729.832 570.401 742.942C570.401 756.052 581.029 766.68 594.139 766.68C607.249 766.68 617.876 756.052 617.876 742.942Z" fill="#BDC2C3"/>
<path d="M936.2 777C932.3 775.4 927.1 770.9 926.3 768.7C925.3 765.5 925.3 766.3 925.2 742.3L925 720.1L920.3 719.8L915.5 719.5V715.5C915.5 711.7 915.7 711.5 918.9 711.2C924 710.7 924.9 709.2 925.2 700.4L925.5 692.5L936.9 691.9L937.5 710.5L947.7 710.8C957.5 711.1 957.8 711.1 958.4 713.6C958.8 714.9 958.6 716.9 958 718C957.1 719.7 955.7 720 947.2 720.2L937.5 720.5L937.2 739.1C937 758 938 765.8 940.8 765.3C941.5 765.1 942 765.5 942 766C942 767.3 946.7 767.3 947.2 766C947.4 765.5 949.4 764.8 951.7 764.4C955.9 763.8 956 763.8 957.5 767.3C958.3 769.3 959 771.5 959 772.3C959 775.9 941.9 779.4 936.2 777Z" fill="#BDC2C3"/>
<path d="M1034.7 777.4C1034.3 777 1034 755.2 1034 728.9C1034 691.7 1034.3 681.1 1035.3 680.8C1035.9 680.5 1038.6 680.5 1041.2 680.8L1046 681.2L1045.9 699.7C1045.9 709.8 1046.1 718.5 1046.5 718.8C1047.4 719.7 1050.5 717.5 1050.5 715.9C1050.5 714.5 1052 713.8 1063 709.8C1073 706.2 1087.9 709.8 1093.1 717.2C1098 724 1099 730.5 1099 754.6V777L1096.7 777.6C1095.4 777.9 1092.6 778 1090.4 777.8L1086.5 777.5L1086 754C1085.5 729.6 1085.3 728.4 1080.8 724.4C1073.2 717.4 1062.9 717.2 1054.2 723.8C1047.8 728.7 1045.8 737.1 1045.6 760L1045.5 777.5L1040.5 777.8C1037.7 778 1035.1 777.8 1034.7 777.4Z" fill="#BDC2C3"/>
<path d="M1196.3 776.5C1186.3 773.4 1179.6 767.7 1175.4 758.5C1172.2 751.8 1172 734.8 1174.9 728.3C1177.7 722.3 1184.2 714 1186.2 714C1187.1 714 1188.2 713.6 1188.5 713C1188.8 712.5 1192.3 711.1 1196.2 709.9C1205.6 707 1214 707.7 1222.8 712.1C1233.2 717.2 1239 727.7 1239 741.6V747.5L1212 747.2C1185.2 746.9 1185 746.9 1185 749C1185 753.8 1191.7 764 1194.9 764C1195.5 764 1196 764.4 1196 764.8C1196 765.8 1196 765.8 1206.5 766.1C1213 766.2 1215.4 765.8 1218.8 764.1C1221 763 1223.6 762 1224.5 762C1225.3 762 1226 761.6 1226 761C1226 759.1 1228.6 760 1231.3 762.8C1232.8 764.3 1234 766.1 1234 766.8C1234 768.9 1225.9 774 1219.2 776C1211.9 778.3 1202.5 778.5 1196.3 776.5ZM1205.4 737C1213.9 737 1221.1 737.4 1221.4 737.8C1222.1 739 1228 738 1228 736.8C1228 733.2 1225.1 727.3 1221.8 724.2C1217.1 719.7 1213.2 718.2 1206.2 718.1C1198.3 718 1191.9 721.6 1188 728.3C1184 735.3 1184 740.2 1188.1 738C1189.1 737.4 1196.8 737 1205.4 737Z" fill="#BDC2C3"/>
<path d="M485.88 688.23C485.88 692.59 482.346 696.124 477.986 696.124C473.626 696.124 470.091 692.59 470.091 688.23C470.091 683.87 473.626 680.335 477.986 680.335C482.346 680.335 485.88 683.87 485.88 688.23Z" fill="#BDC2C3"/>
<path d="M2323 592.4C2312.1 591.4 2291.5 587.5 2280.5 584.4C2249.4 575.4 2224.4 562.2 2203 543.2C2192.2 533.6 2185.7 526.9 2179.5 519C2173.4 511 2163 496.1 2163 495.1C2163 494.7 2162.1 493.3 2161.1 492.1C2158.8 489.5 2148 464.3 2144.5 453.3C2143.1 449 2141.7 444.8 2141.3 444C2141 443.2 2140.8 441.9 2140.9 441.3C2141 440.6 2140.6 440 2140 440C2139.4 440 2139.2 439 2139.6 437.5C2139.9 436.1 2139.8 435 2139.2 435C2138.6 435 2138.4 434.1 2138.7 433C2139 431.9 2138.7 431 2138.1 431C2137.4 431 2137.2 430.1 2137.6 428.5C2138 426.9 2137.8 426 2137 426C2136.2 426 2136 425.1 2136.4 423.3C2136.9 421.7 2136.7 420.4 2135.9 419.9C2135 419.4 2134.6 416.7 2134.7 411.8C2134.8 407.5 2134.4 404.2 2133.7 403.8C2132.1 402.8 2132.3 351.1 2134 350C2134.7 349.6 2134.9 348.4 2134.5 347.1C2134.1 345.9 2134.3 345 2134.9 345C2135.5 345 2136 344.3 2136 343.5C2136 342.7 2135.4 342 2134.8 342C2133.9 342 2133.9 341.7 2134.9 341.1C2135.7 340.6 2136 339.5 2135.7 338.6C2135.3 337.7 2135.5 337 2136.1 337C2136.8 337 2136.9 335.6 2136.5 333C2136 330.3 2136.2 329 2137 329C2137.7 329 2137.9 328.2 2137.5 327C2137.1 325.8 2137.3 325 2138 325C2138.7 325 2138.9 324.3 2138.6 323.3C2138.2 322.4 2138.5 321.3 2139.1 320.9C2139.7 320.5 2140.3 318.8 2140.4 317.1C2140.4 315.4 2140.9 314 2141.4 314C2141.8 314 2142 313.1 2141.7 312C2141.4 311 2141.6 310 2142.2 309.8C2142.7 309.6 2144.2 306.3 2145.5 302.4C2148.1 294.7 2159.4 268.6 2161 266.7C2161.6 266 2164.6 261.5 2167.8 256.5C2171 251.6 2176.7 243.7 2180.4 239.1C2184.1 234.6 2186.9 230.6 2186.6 230.3C2186.3 230 2187.8 228.5 2190 226.9C2192.2 225.3 2194.7 222.9 2195.6 221.5C2196.5 220.1 2197.6 219 2198.1 219C2199.3 219 2216 204.8 2216 203.8C2216 203.4 2216.7 203 2217.5 203C2218.4 203 2220.2 201.9 2221.6 200.5C2223 199.1 2224.5 198 2225.1 198C2225.7 198 2225.8 197.6 2225.5 197C2225.2 196.5 2225.8 196 2227 196C2229.8 196 2237 191.9 2237 190.3C2237 189.6 2238 189.1 2239.3 189.2C2241.7 189.4 2247 186.8 2250.7 183.6C2252 182.5 2253.3 181.9 2253.6 182.3C2254.3 183 2259.5 180.6 2262 178.5C2264.2 176.7 2276.8 172.7 2278 173.5C2278.5 173.8 2279 173.7 2279 173.1C2279 172.6 2281 172.2 2283.5 172.2C2285.9 172.2 2288.4 171.9 2289 171.5C2289.6 171.1 2296.5 169.7 2304.3 168.4C2328.2 164.3 2360.3 164.2 2385 168.1C2389.1 168.8 2393.6 169.4 2395 169.4C2396.4 169.5 2397.8 169.9 2398.1 170.3C2398.4 170.8 2400.3 171.2 2402.3 171.3C2404.3 171.4 2406 171.9 2406 172.4C2406 172.8 2406.9 173 2408 172.7C2409.1 172.4 2410.3 172.6 2410.6 173.1C2410.9 173.6 2411.5 173.8 2412 173.5C2412.5 173.2 2413.2 173.5 2413.5 174.1C2413.9 174.6 2414.8 174.9 2415.6 174.6C2416.4 174.3 2417 174.5 2417 175.1C2417 175.7 2417.7 176 2418.5 175.6C2419.3 175.3 2420 175.5 2420 176.1C2420 176.6 2420.6 177 2421.3 176.9C2421.9 176.8 2424.1 177.4 2426 178.3C2427.9 179.1 2429.8 179.6 2430.2 179.4C2430.7 179.1 2431 179.3 2431 179.8C2431 180.7 2434.3 182 2436.4 181.9C2436.9 181.8 2437.6 182.2 2437.9 182.7C2438.2 183.1 2441.6 185.1 2445.5 187C2464.8 196.6 2480.6 207.8 2495.9 222.5C2514.1 240.2 2527.6 258.9 2538.7 282C2547.2 299.5 2554.9 326.1 2557.2 345.3C2557.8 350.6 2558.7 355 2559.2 355C2559.6 355 2560 365.4 2560 378C2560 390.7 2559.6 401 2559.2 401C2558.8 401 2557.9 406.1 2557.3 412.3C2555 435 2544.7 467.9 2533.8 487.5C2522.5 507.7 2514.2 518.8 2498.7 534.2C2469 563.8 2433.8 581.4 2387 590C2377.9 591.7 2370.6 592.2 2351.5 592.5C2338.3 592.6 2325.5 592.6 2323 592.4ZM2363.6 499C2376 496.8 2386.6 493.7 2389.3 491.3C2390.2 490.4 2391.3 490 2391.6 490.3C2392.5 491.1 2404 485.2 2404 484C2404 483.4 2404.7 483 2405.7 483C2408.5 483 2425 469.9 2425 467.7C2425 467.2 2426.2 465.9 2427.6 464.8C2429 463.7 2429.9 462.1 2429.6 461.4C2429.3 460.6 2429.7 460 2430.5 460C2433.3 460 2446.7 437.3 2445.6 434.4C2445.3 433.6 2445.6 433 2446.2 433C2446.8 433 2447.1 432.7 2446.7 432.4C2446.4 432.1 2447.1 430.9 2448.2 429.8C2449.5 428.5 2450 426.9 2449.7 425.4C2449.5 424.1 2449.7 422.9 2450.3 422.7C2450.8 422.6 2451.3 421 2451.4 419.2C2451.4 417.4 2451.9 416 2452.4 416C2452.8 416 2453 415.1 2452.7 414C2452.4 412.9 2452.6 412 2453.2 412C2453.8 412 2453.9 410.9 2453.6 409.5C2453.2 407.9 2453.4 407 2454.1 407C2454.8 407 2455 406 2454.8 404.5C2454.5 403.1 2454.7 402 2455.2 402C2455.8 402 2456 400.4 2455.8 398.5C2455.6 396.6 2455.8 395 2456.3 395C2457.6 395 2456.6 356.7 2455.3 356.3C2454.8 356.1 2454.5 354.8 2454.8 353.5C2455 352.1 2454.8 351 2454.2 351C2453.6 351 2453.4 350.2 2453.7 349.1C2454 348.1 2453.7 346.9 2453.1 346.6C2452.6 346.2 2452.3 345.3 2452.7 344.5C2453 343.7 2452.7 343 2452 343C2451.3 343 2451.1 342.2 2451.5 341C2451.9 339.9 2451.7 339 2451.1 339C2450.5 339 2450.3 338.3 2450.6 337.5C2451 336.7 2450.7 336 2450.1 336C2449.5 336 2449.3 335.3 2449.6 334.5C2450 333.7 2449.7 333 2448.9 333C2448.2 333 2448 332.7 2448.3 332.3C2448.7 332 2448.5 331.1 2447.9 330.3C2447.3 329.6 2447.1 329 2447.5 329C2447.9 329 2447.5 327.8 2446.5 326.4C2445.6 325 2444.7 323 2444.5 321.9C2443.9 318.9 2435.6 305.6 2429.5 298C2415.9 281 2401.7 270.6 2382.3 263.6C2368.8 258.8 2362.6 257.8 2345.5 257.8C2331.6 257.8 2328.2 258.1 2319.3 260.4C2299.2 265.5 2282 274.8 2270.2 287C2253.6 304 2242.1 326.7 2237 352.4C2234.1 366.5 2234.2 392.7 2237.1 406.5C2242.8 433.7 2254.2 455.6 2271.1 471.6C2277.4 477.6 2286.2 484 2288.1 484C2288.6 484 2289 484.4 2289 484.9C2289 487.2 2312.7 496.1 2325.5 498.5C2334.1 500.1 2355.5 500.4 2363.6 499Z" fill="#BDC2C3"/>
<path d="M1251.1 581L1248 577.8V7.6L1250.6 3.8L1253.3 0H1274.6C1286.4 0 1296 0.4 1296 0.8C1296 1.3 1299.1 2.4 1303 3.4C1319.4 7.7 1335.9 22.2 1343.8 39.2C1345 41.8 1346 44.7 1346 45.6C1346 46.4 1346.6 48.1 1347.3 49.3C1348.2 51 1348.6 69.2 1349 127.2L1349.5 202.8L1351.8 205.3C1356.4 210.2 1363.9 209.4 1370.4 203.2C1384 190.3 1405.2 178 1423.1 172.6C1443.4 166.5 1451.4 165.5 1479.5 165.5C1507.5 165.6 1517.5 166.6 1538 171.7C1558.5 176.7 1573.2 183.4 1588.6 194.9C1611.4 211.9 1629.2 239.3 1636 268C1637.1 272.7 1638.5 278.1 1639 280C1641.2 288.1 1643.4 305 1645 325C1645.6 333.3 1646 384.5 1646 457.1V575.6L1638.8 584H1611.7C1582.9 583.9 1578.9 583.5 1570.3 579.3C1559.3 573.9 1551.2 564.3 1546.4 551.2L1544 544.5V451.6C1544 347.8 1543.7 341.1 1537.3 320C1532.2 302.8 1522.9 287.9 1511.5 278.7C1503.6 272.3 1489.9 265.7 1477.5 262.3C1468.4 259.8 1466 259.6 1451 259.6C1436 259.7 1433.7 260 1425.6 262.4C1399.7 270.2 1377.8 287.1 1365.8 308.5C1361.4 316.3 1354.6 333 1353.1 340C1352.4 343 1351.3 347.1 1350.7 349C1350 351.4 1349.5 384.1 1349.1 449.5C1348.5 545.5 1348.5 546.6 1346.4 552.2C1343.5 559.8 1339.4 565.4 1331.7 572.7C1320.6 583.1 1319 583.4 1283.9 583.8L1254.3 584.1L1251.1 581Z" fill="#BDC2C3"/>
<path d="M2032.3 582.9C2024 581.5 2014.8 576.5 2008.7 570.1C2002 563.1 1998.8 557 1996.4 546.5C1994.6 538.9 1994.5 530.4 1994.2 363.6C1994.1 234.9 1994.3 188.4 1995.1 187.4C1995.9 186.4 1995.9 186 1995.1 186C1994.4 186 1994 183.9 1994 180.6C1994 175.9 1993.6 174.9 1991.4 173.1C1987.9 170.4 1982.1 170.4 1978.7 173.1C1977.2 174.2 1972 180.8 1967.1 187.8C1959.1 199.1 1950.2 211.2 1914.1 260.6C1895.2 286.5 1873.4 316.4 1867.6 324.4C1858.4 337.2 1855.1 341 1848.8 345.5C1834.8 355.9 1815.5 357.5 1799.5 349.6C1788.4 344.1 1784.5 339.7 1760.5 306.4C1756.7 301 1753 296.2 1752.4 295.6C1751.9 295 1748.8 290.7 1745.6 286C1742.3 281.3 1738.9 276.6 1737.9 275.5C1737 274.4 1734.1 270.6 1731.6 267C1729.1 263.4 1725.7 258.6 1724 256.2C1722.4 253.9 1720.6 251.4 1720 250.7C1719.4 250.1 1715.8 245.2 1712 240C1708.2 234.8 1704.7 230 1704.2 229.5C1703.7 228.9 1702.5 227.1 1701.4 225.5C1700.4 223.8 1694.3 215.5 1688 207C1681.6 198.5 1674.2 188.4 1671.5 184.5C1664.2 173.8 1660.9 171 1656 171C1652.7 171 1651.2 171.6 1648.9 173.9L1646 176.8V203.9C1646 218.8 1645.6 231 1645.1 231C1644.7 231 1642.2 227.4 1639.6 223.1C1629.9 206.7 1613.3 188.1 1598.7 177.3C1587.1 168.8 1569.2 159.9 1556.9 156.6C1553.2 155.6 1549 153.7 1547.4 152.5L1544.5 150.2V26.5L1547.7 20.4C1551.5 13.1 1559.5 5.5 1565.2 3.8C1567.4 3.2 1569.4 2 1569.7 1.3C1570.1 0.3 1578.5 0 1612.1 0C1635.9 0 1654 0.4 1654 0.9C1654 1.4 1655.7 2.1 1657.8 2.5C1662.3 3.3 1674.6 9.3 1677.8 12.3C1680.9 15.2 1689.3 26.4 1719 67.5C1814.1 198.9 1808.5 192 1820.2 192C1827.5 192 1831.5 190.3 1836.1 185.4C1840.8 180.3 1871 138.6 1871 137.1C1871 136.5 1871.4 136 1871.8 136C1872.8 136 1895 105.6 1895 104.2C1895 103.6 1895.4 103 1895.9 102.8C1896.4 102.7 1905.1 91.3 1915.1 77.5C1942.3 40.2 1945.2 36.1 1944.5 35C1944.2 34.4 1944.5 34 1945.2 34C1946 34 1949.4 30.3 1952.8 25.8C1959.6 16.6 1967.6 8 1969.1 8C1969.7 8 1969.8 7.6 1969.5 7C1969.1 6.4 1970.1 6 1971.8 6C1973.6 6 1975 5.4 1975.4 4.4C1975.7 3.5 1976.7 3 1977.5 3.4C1979.3 4 1985 2.2 1985 0.9C1985 0.4 2002.7 0 2027 0C2050.9 0 2069 0.4 2069 0.9C2069 1.4 2070.1 2.1 2071.5 2.4C2072.8 2.7 2074.9 3.4 2076.2 3.9C2077.5 4.4 2078.7 4.7 2079 4.6C2081.1 4.1 2091.2 15.2 2093.9 20.9L2096.5 26.5L2096.8 301C2097 510.6 2096.7 576.2 2095.8 578.4C2093.7 583.5 2090.7 584 2062.8 583.9C2048.9 583.8 2035.2 583.4 2032.3 582.9Z" fill="#BDC2C3"/>
<path d="M1408.2 743.3L1408.5 708.5H1419.5L1419.8 714.3C1420 717.4 1420.2 720 1420.4 720C1420.5 720 1422.6 718.2 1425 715.9C1429.8 711.4 1436.6 708 1441.1 708C1444 708 1444 708 1444 714C1444 719.5 1443.8 720 1441.8 720C1438.3 720.1 1432.3 722.5 1428 725.5C1421.2 730.2 1420.6 732.7 1420 756.5L1419.5 777.5L1413.7 777.8L1408 778.1L1408.2 743.3Z" fill="#64F3E4"/>
<path d="M1516.7 777.3C1516.3 777 1516 761.5 1516 742.9V709L1518.3 708.4C1519.6 708.1 1522.4 708 1524.6 708.2L1528.5 708.5L1528.8 741C1528.9 758.9 1528.8 774.5 1528.5 775.8C1528 777.7 1527.3 778 1522.6 778C1519.7 778 1517 777.7 1516.7 777.3Z" fill="#64F3E4"/>
<path d="M1626.1 776.8C1611.9 772.8 1603.1 758.2 1604.3 740.5C1605.1 726.4 1611.4 716.7 1623.5 710.9C1634.2 705.7 1648.4 707.4 1657 714.7C1659.1 716.5 1661.3 718 1661.9 718C1662.6 718 1663 711.7 1663.2 699.3L1663.5 680.5L1668.6 680.2C1672.1 680 1674.1 680.4 1674.8 681.3C1675.7 682.4 1676 695 1675.8 730.1L1675.5 777.5L1670.2 777.8C1663.3 778.2 1661.7 776.9 1662.5 771.8C1663.4 766.9 1662.3 767 1656.6 772C1654 774.1 1650.3 776.4 1648.2 777C1643.6 778.2 1630.7 778.2 1626.1 776.8ZM1663.53 743.45C1663.53 730.319 1652.89 719.674 1639.76 719.674C1626.63 719.674 1615.98 730.319 1615.98 743.45C1615.98 756.581 1626.63 767.225 1639.76 767.225C1652.89 767.225 1663.53 756.581 1663.53 743.45Z" fill="#64F3E4"/>
<path d="M1776.5 777.1C1759.8 773 1749.3 756 1751.9 737.4C1753.7 725.3 1762.4 714.2 1773.8 710C1781.5 707 1794.3 707.5 1801.4 710.9C1812.3 716.2 1818.1 725.8 1818.3 739.2L1818.5 747.5L1791.8 747.8C1761.7 748.1 1763.2 747.6 1767.1 755.6C1773.7 769.3 1791.2 772 1805.3 761.6L1808 759.6L1811.3 762.8C1813.9 765.4 1814.3 766.4 1813.4 767.8C1811.5 770.8 1803.2 775.8 1798 776.9C1792.4 778.1 1781.2 778.2 1776.5 777.1ZM1806.7 734C1805.2 722.9 1791.7 716.3 1778.6 720.2C1773.1 721.9 1766.6 728.4 1765.3 733.8L1764.2 738H1807.3L1806.7 734Z" fill="#64F3E4"/>
<path d="M2338.9 777C2328.1 775.2 2329.7 776.6 2231.6 678.2C2206 652.4 2185 630.6 2185 629.6C2185 628.7 2186.1 627.5 2187.4 626.9C2189.5 625.9 2192 626.9 2207.7 634.7C2234.8 648.2 2252.4 654.2 2285 661C2287.5 661.5 2292.9 662.4 2297 662.9C2301.1 663.5 2308.2 664.4 2312.6 665.1C2324.7 666.7 2369 666.5 2384 664.6C2402.6 662.3 2426.3 657.7 2433 655C2434.4 654.5 2436.4 653.9 2437.5 653.7C2438.6 653.6 2440 653.2 2440.5 652.9C2441.1 652.6 2445.3 651.1 2450 649.5C2462.7 645.4 2473.9 640.6 2489.1 632.8C2498.9 627.8 2503.4 626 2504.9 626.5C2510.5 628.3 2509.2 629.7 2438.3 701.1C2400.5 739.1 2367.7 771.2 2365.5 772.5C2361.3 775 2350.2 778 2346 777.9C2344.6 777.8 2341.4 777.4 2338.9 777Z" fill="#64F3E4"/>
<path d="M1516.9 694.1C1513.1 690.3 1513.2 687.6 1517.4 683.4C1521.5 679.3 1523.9 679.1 1527.4 682.6C1530.9 686.1 1530.9 690.5 1527.3 694.2C1523.9 697.8 1520.6 697.8 1516.9 694.1Z" fill="#64F3E4"/>
<path d="M1026.5 596C995.8 594 958.7 583.7 935 570.8C907.2 555.6 884.7 535.5 867.8 510.9C851.6 487.3 841.4 461.4 834.5 426.8C830 403.8 829.9 357.7 834.4 331.9C846.5 262.8 884.6 211.2 944.5 182.9C963.9 173.8 988.2 167 1017 162.9C1028.2 161.3 1070.2 161.3 1080 162.9C1115.3 168.7 1135.7 176.2 1160.5 192.5C1174.2 201.5 1189.5 214.1 1191.5 218C1193.5 221.9 1193.4 223.8 1190.9 228C1187.8 233.1 1155.2 265.7 1150.5 268.5C1144.6 272 1132.6 275 1124.5 275C1117.1 275 1109.5 273 1099.8 268.6C1083.3 261.2 1067.8 257.8 1049.4 257.8C1029 257.8 1014 261.4 995.7 270.6C984.4 276.2 979.4 279.7 969.8 288.3C951.9 304.3 938.9 328.9 934.7 355C932.2 370.1 931.7 383.3 933 393.9C936.9 424.5 947.4 448.3 964.5 465.6C973.6 474.7 980.4 479.7 991.5 485.3C1011.4 495.3 1025 498.3 1050 498.3C1074.3 498.3 1085.8 496 1106.3 487.1C1120.6 480.8 1126.1 479.6 1137 480.3C1153.3 481.2 1159.4 484.9 1184.3 509.2L1202 526.5V531C1201.9 536.6 1198.6 540.7 1185 551.5C1162.6 569.4 1138.3 581.8 1111.2 589.1C1087.8 595.3 1055.8 598 1026.5 596Z" fill="#64F3E4"/>
<path d="M557 594C529 591.3 503.1 585.1 480.9 576C468.8 571 450.1 560 437.9 550.8C402.4 523.9 377.7 484.5 367.2 438C361.8 414 360 398.4 360 375.4C360 337 367.7 302.8 383 272.5C392.2 254.2 399.6 243 410.9 230.1C428.1 210.5 447 196 470.7 184.1C506.9 166 560.2 156.5 600.4 161C648.2 166.3 675.7 175.1 705 194.5C733.2 213 756.7 242.3 768.9 274C770.7 278.7 772.6 283.4 773.1 284.5C775.5 290.1 779 302.6 780.8 312C785.7 337.3 787 350.9 787 379C787 400.8 786.7 404 785.1 407.6C781.4 415.7 796.6 415 627.8 415C534 415 476.2 415.4 474.6 416C467.3 418.7 466.4 423.9 470.9 436.5C474.6 447.1 478 452.9 485.7 462.2C503 483 529.6 496.2 564 501C577.6 502.9 617.8 501.4 629 498.5C630.4 498.2 633.5 497.4 636 496.8C649.7 493.6 663.4 487.9 676.5 479.8C688.4 472.5 693.8 471.1 701.1 473.5C708.8 476 713.8 480.2 736.8 503.3C757 523.6 757 523.6 757 528.1C757 532.3 756.6 532.8 749.3 539.8C724.8 563.2 678.2 583.7 633 590.9C629.4 591.5 623.6 592.5 620 593C611.5 594.4 568 595.1 557 594ZM682.2 326.9C685.1 324.1 685.2 323.5 684.7 318.1C683.4 303 667.3 279.6 651.3 269.3C632.1 257 609.1 251 581.6 251C546.2 251 517.9 261.3 495.6 282.1C486 291.1 479.7 299.4 474.7 309.7C470.3 319 470.2 322.8 474.5 327.4L476.9 330H679.2L682.2 326.9Z" fill="#64F3E4"/>
<path d="M188.7 581.7C187 580.3 185.5 577.7 185 575.4C184.4 573.1 184 474.4 184 339.5C184 121.2 183.9 107.4 182.2 105.4C181.3 104.2 179.5 102.7 178.3 102.1C176.8 101.3 152.1 101 92.3 101H8.4L0 95.6V68.3C0 44.7 0.2 41 1.5 41C2.3 41 3 40.4 3 39.6C3 36.3 11 24 17.5 17.4C24.1 10.8 36.6 3 40.7 3C41.4 3 42.3 2.3 42.6 1.5C43.1 0.2 68 0 257.9 0C461.2 0.1 472.6 0.2 474.6 1.8C478.7 5.3 479 7.1 479 29.2C479 53 478 59.5 473 68.9C465.7 82.5 452.9 93.6 439.2 98.2C432.6 100.4 431.5 100.4 366.7 101L300.8 101.5L297.9 104.8L295 108V319.1C295 553.2 295.4 538.3 288.4 552.2C284.5 559.9 274.3 571.3 267.1 575.9C256.3 582.9 253.6 583.3 221 583.7L191.5 584L188.7 581.7Z" fill="#64F3E4"/>
<path d="M1251.1 581L1248 577.8V7.6L1250.6 3.8L1253.3 0H1274.6C1286.4 0 1296 0.4 1296 0.8C1296 1.3 1299.1 2.4 1303 3.4C1319.4 7.7 1335.9 22.2 1343.8 39.2C1345 41.8 1346 44.7 1346 45.6C1346 46.4 1346.6 48.1 1347.3 49.3C1348.2 51 1348.6 69.2 1349 127.2L1349.5 202.8L1351.8 205.3C1356.4 210.2 1363.9 209.4 1370.4 203.2C1384 190.3 1405.2 178 1423.1 172.6C1443.4 166.5 1451.4 165.5 1479.5 165.5C1507.5 165.6 1517.5 166.6 1538 171.7C1558.5 176.7 1573.2 183.4 1588.6 194.9C1611.4 211.9 1629.2 239.3 1636 268C1637.1 272.7 1638.5 278.1 1639 280C1641.2 288.1 1643.4 305 1645 325C1645.6 333.3 1646 384.5 1646 457.1V575.6L1638.8 584H1611.7C1582.9 583.9 1578.9 583.5 1570.3 579.3C1559.3 573.9 1551.2 564.3 1546.4 551.2L1544 544.5V451.5C1544 344 1543.7 339.5 1536.3 316.5C1531.8 302.1 1521.9 287.1 1511.5 278.7C1503.6 272.3 1489.9 265.7 1477.5 262.3C1468.4 259.8 1466 259.6 1451 259.6C1436 259.7 1433.7 260 1425.6 262.4C1399.7 270.2 1377.8 287.1 1365.8 308.5C1361.4 316.3 1354.6 333 1353.1 340C1352.4 343 1351.3 347.1 1350.7 349C1350 351.4 1349.5 384.1 1349.1 449.5C1348.5 545.5 1348.5 546.6 1346.4 552.2C1343.5 559.8 1339.4 565.4 1331.7 572.7C1320.6 583.1 1319 583.4 1283.9 583.8L1254.3 584.1L1251.1 581Z" fill="#64F3E4"/>
<path d="M455 801.6C454.1 799.7 454 798.2 454.6 795.8C455.6 792.6 455.7 792.5 460.5 792.8C465.8 793 468.6 791.6 470.9 787.2C471.8 785.5 472.1 774.8 472 747V709.2L474.9 708.5C476.5 708.2 479.5 708.2 481.5 708.6L485.1 709.2L484.8 749.4L484.5 789.5L481.7 794.2C478.1 800.5 473.9 802.8 464.8 803.7C460.9 804.1 460 803.9 460 802.6C460 800.6 458.4 800.5 457.2 802.5C456.5 803.8 456.2 803.7 455 801.6Z" fill="#A9ACAE"/>
<path d="M701 802.5C701 801.7 700.6 801 700 801C699.5 801 699 801.4 699 802C699 802.5 697.4 802 695.5 800.9C691.4 798.5 691.3 797.4 694.1 792.6C695.9 789.5 696.4 789.2 698.6 790.1C700 790.6 703.1 791 705.5 791C710.9 791 716 787.1 718.3 781.1L719.9 777.3L711.5 756.7C706.9 745.4 700.6 730.2 697.4 723C691.3 708.9 691.2 708 697.2 708C703.2 708 707.1 711.8 708.3 719C708.5 719.8 709.2 721.5 709.8 722.8C710.5 724 710.8 725 710.5 725C710.2 725 710.7 726.1 711.6 727.5C712.5 728.9 712.9 730 712.5 730C712.1 730 712.3 730.7 713 731.5C713.7 732.3 714 733 713.6 733C713.2 733 713.7 734.1 714.6 735.5C715.5 736.9 715.9 738 715.5 738C715.1 738 715.2 738.6 715.8 739.3C716.4 739.9 718.7 745.2 721 751C723.3 756.8 725.5 761.9 725.9 762.3C726.4 762.7 728.4 758.2 730.5 752.3C737.4 732.6 745.1 712.5 746.7 710.1C748 708 748.8 707.8 753.1 708.2C755.8 708.5 758.3 708.9 758.5 709.2C758.9 709.6 745.8 742.7 740.5 754.5C737.9 760.4 736.5 763.9 734.5 769.3C733.5 771.9 732.4 774 731.9 774C731.4 774 731.3 774.6 731.6 775.4C733 779.1 722 799 718.6 799C717.9 799 716.5 799.9 715.6 800.9C714.2 802.5 713.3 802.7 710.7 801.9C706.7 800.8 707 800.7 707 802.5C707 803.5 706 804 704 804C702 804 701 803.5 701 802.5Z" fill="#A9ACAE"/>
<path d="M185 732V686H215.9C250.2 686 249.4 685.8 248.8 692.7L248.5 696.5L223.5 696.8C205.3 697 198.4 697.4 197.8 698.3C197.3 699 197.1 705.3 197.2 712.4L197.5 725.3L217.6 725.1C228.6 725 238.8 725.2 240.3 725.5C242.8 726.2 243 726.6 243 731.6V737H220.6C201.1 737 198.1 737.2 197.6 738.6C196.8 740.8 197 762.1 197.9 764.4C198.6 766.1 200.1 766.2 222.6 766.1C235.8 766 247.4 766.2 248.3 766.6C250.6 767.5 250.7 776.5 248.4 777.4C247.5 777.7 232.9 778 215.9 778H185V732Z" fill="#A9ACAE"/>
<path d="M328.4 775.8C327.1 772 328 709.6 329.4 708.8C330.7 707.9 336.2 707.8 338.4 708.6C339.6 709.1 340 710.7 340 715.3V721.3L343.8 717.2C349.4 711.1 355.7 708.6 365.5 708.6C374.5 708.5 380.4 710.6 385.3 715.6C390.1 720.4 391.4 723.9 391.3 731.3C391.2 735 391.6 738 392.1 738C392.6 738 393 739.1 393 740.5C393 741.9 392.6 743 392 743C391.4 743 391 748 391 756C391 764 391.4 769 392 769C393.4 769 393.2 775.4 391.8 776.8C391.1 777.5 388.9 778 386.9 778C379.7 778 380 779.2 380 755V733.2L377.2 727.9C375.2 724 373.4 722.1 370.1 720.3C364.5 717.4 357.4 717.2 352.3 720C350.2 721.1 348.9 722 349.5 722C350 722 349 723.5 347.3 725.3C340.8 731.9 340 735.4 340 756.6C340 770 339.6 776 338.8 776.8C338.1 777.5 335.7 778 333.4 778C329.9 778 329 777.6 328.4 775.8Z" fill="#A9ACAE"/>
<path d="M629.9 743.09C629.9 762.589 614.092 778.397 594.593 778.397C575.093 778.397 559.286 762.589 559.286 743.09C559.286 723.59 575.093 707.783 594.593 707.783C614.092 707.783 629.9 723.59 629.9 743.09ZM618.371 742.8C618.371 729.554 607.633 718.815 594.386 718.815C581.14 718.815 570.402 729.554 570.402 742.8C570.402 756.047 581.14 766.785 594.386 766.785C607.633 766.785 618.371 756.047 618.371 742.8Z" fill="#A9ACAE"/>
<path d="M935.5 776.6C931.3 774.7 927.1 770 926 765.9C925.4 764.1 925 753 925 741.4V720.3L922.4 719.2C921 718.5 918.8 718.3 917.4 718.6C915 719.2 914.9 719.1 915.2 715.4C915.5 711.6 915.6 711.5 920 711L924.5 710.5L925.5 692.5L936.9 691.9L937.5 710.5L947.7 710.8C957.6 711.1 957.8 711.1 958.5 713.7C959.3 717.2 955.9 720.6 953.1 719C950.4 717.6 939.7 717.7 938.2 719.2C936.7 720.7 936.5 755.8 938.1 761.3C939.6 766.7 942.5 767.8 950.2 765.8L956.2 764.3L957.6 767.6C959.5 772.1 959.5 772.2 955.5 774.9C951.1 777.9 940.2 778.8 935.5 776.6Z" fill="#A9ACAE"/>
<path d="M1034.7 777.4C1034.3 777 1034 755.2 1034 728.9C1034 691.7 1034.3 681.1 1035.3 680.8C1035.9 680.5 1038.6 680.5 1041.3 680.8L1046 681.2V685.1C1046 687.2 1045.6 689 1045 689C1043.5 689 1043.7 702.7 1045.3 703.3C1046.2 703.7 1046.1 704.1 1045 705C1043.9 705.9 1043.8 706.3 1044.8 706.7C1045.4 706.9 1046 708.2 1046 709.5C1046 710.8 1045.4 712.1 1044.8 712.4C1043.8 712.9 1043.8 713.1 1044.8 713.6C1045.4 713.9 1046 715.5 1046 717.1C1046 720.8 1046.9 720.8 1050.9 716.6C1063 704.1 1088.1 706.2 1094.9 720.3C1096.1 722.8 1097.2 726 1097.4 727.4C1097.5 728.9 1098 730.3 1098.3 730.7C1098.7 731 1099 741.6 1099 754.1V777L1096.7 777.6C1095.4 777.9 1092.6 778 1090.4 777.8L1086.5 777.5L1086 754C1085.5 731.5 1085.4 730.3 1083.2 726.7C1081.2 723.6 1078.2 721 1076 720.5C1075.7 720.4 1074.2 719.8 1072.5 719.1C1067.9 717.1 1057.8 718.9 1055 722.1C1054.7 722.4 1053.7 722.9 1052.7 723.3C1051.8 723.7 1051.1 724.3 1051.2 724.7C1051.3 725.1 1050.4 727.7 1049.2 730.4C1048 733.1 1047 736.1 1047 737.1C1047 738.2 1046.6 739 1046.1 739C1045.6 739 1045.4 739.9 1045.7 741C1046 742.1 1045.7 743 1045.1 743C1043.6 743 1043.7 745.7 1045.3 746.4C1046.3 746.9 1046.3 747.1 1045.3 747.6C1043.7 748.3 1043.5 764 1045 764C1045.7 764 1046 766.5 1045.8 770.8L1045.5 777.5L1040.5 777.8C1037.7 778 1035.1 777.8 1034.7 777.4Z" fill="#A9ACAE"/>
<path d="M1196.5 776.6C1190.9 774.9 1181.7 768.8 1179.1 765.2C1174.2 758.3 1173 754 1173 743C1173 731.7 1174.3 727.5 1179.5 720.5C1185.6 712.6 1198.7 707.3 1209.9 708.4C1228 710 1239 722.7 1239 741.8C1239 747.9 1238.4 749 1236.4 747C1235.7 746.3 1226.2 746.1 1209.8 746.2L1184.3 746.5L1185.5 751.3C1187 757.2 1191.3 762.7 1196.6 765.4C1199.6 767 1202.2 767.5 1207.8 767.4C1214.2 767.3 1216.1 766.8 1222 763.7L1228.8 760.2L1231.4 762.9C1232.8 764.4 1234 766.1 1234 766.6C1234 768.2 1230.6 771 1228.8 771C1227.9 771 1227 771.6 1226.7 772.4C1225.8 774.7 1213.6 778 1206.6 777.9C1203.3 777.9 1198.7 777.3 1196.5 776.6ZM1227.8 737.6C1228 737.3 1227.7 735 1227 732.5C1225.6 727.5 1219.6 720.1 1216.5 719.5C1215.4 719.3 1214.4 719.1 1214.3 719C1214.1 718.8 1213.6 718.7 1213.1 718.6C1212.6 718.6 1211.8 718.2 1211.4 717.8C1211 717.3 1208.4 717 1205.6 717.1C1199.8 717.1 1189.5 721.6 1189.5 724C1189.5 724.8 1188.5 727.4 1187.2 729.7C1185.2 733.6 1184.4 737.1 1185.4 738.1C1186 738.7 1227.2 738.2 1227.8 737.6Z" fill="#A9ACAE"/>
<path d="M1626.3 776.9C1624.5 776.4 1623 775.5 1623 774.9C1623 774.3 1622.6 774.2 1622 774.5C1621.5 774.8 1621 774.6 1621 774C1621 773.4 1620.5 773.2 1620 773.5C1619.4 773.8 1618.7 773.4 1618.4 772.6C1618.1 771.7 1617.5 771.2 1617.1 771.5C1616.2 772 1611.1 766.7 1608.6 762.7C1607.7 761.2 1606.2 756.4 1605.4 752.2C1601.6 733 1608.1 718.3 1623.5 710.9C1634.5 705.6 1648.6 707.4 1657.5 715.2C1659.9 717.3 1662.1 719 1662.4 719C1662.7 719 1663.1 710.3 1663.2 699.8L1663.5 680.5L1668.6 680.2C1672.2 680 1674 680.3 1675 681.5C1676 682.7 1676 683 1674.6 683C1673.7 683 1673 683.7 1673 684.5C1673 685.3 1673.7 686 1674.5 686C1675.3 686 1676 686.9 1676 688C1676 689.1 1675.3 690 1674.5 690C1673.2 690 1673 695.1 1673 729.5C1673 763.9 1673.2 769 1674.5 769C1675.3 769 1676 769.5 1676 770C1676 770.6 1675.3 771 1674.5 771C1672.4 771 1672.6 774 1674.8 774.1C1675.9 774.1 1675.5 774.5 1673.8 775.2C1672.2 775.7 1671 776.6 1671 777.1C1671 777.6 1669.4 778 1667.5 778C1663.5 778 1662 776 1662.7 771.3C1663 769.6 1662.7 767.4 1662.1 766.3C1661.3 764.9 1661.1 764.8 1661 766.1C1661 768.4 1655.2 773.5 1652.9 773.2C1651.5 773 1651.2 773.3 1651.6 774.5C1652.1 775.8 1651.8 776 1649.8 775.5C1648 775 1647.1 775.3 1646.7 776.4C1646.2 777.7 1644.5 778 1637.8 777.9C1633.2 777.9 1628 777.4 1626.3 776.9ZM1663.97 742.801C1663.97 729.392 1653.09 718.522 1639.69 718.522C1626.28 718.522 1615.41 729.392 1615.41 742.801C1615.41 756.21 1626.28 767.081 1639.69 767.081C1653.09 767.081 1663.97 756.21 1663.97 742.801Z" fill="#A9ACAE"/>
<path d="M486.05 688.42C486.05 692.541 482.709 695.882 478.588 695.882C474.466 695.882 471.125 692.541 471.125 688.42C471.125 684.298 474.466 680.957 478.588 680.957C482.709 680.957 486.05 684.298 486.05 688.42Z" fill="#A9ACAE"/>
<path d="M1529.8 688.24C1529.8 692.471 1526.37 695.9 1522.14 695.9C1517.91 695.9 1514.48 692.471 1514.48 688.24C1514.48 684.009 1517.91 680.579 1522.14 680.579C1526.37 680.579 1529.8 684.009 1529.8 688.24Z" fill="#A9ACAE"/>
<path d="M2323.5 592.4C2308.6 591 2284 586.2 2284 584.8C2284 584.3 2283.6 584.1 2283.1 584.4C2282.1 585.1 2272 582.2 2270.3 580.8C2269.6 580.2 2269 580.1 2269 580.5C2269 580.9 2268.3 580.7 2267.5 580C2266.7 579.3 2266 579.1 2266 579.5C2266 579.9 2265.3 579.7 2264.5 579C2263.7 578.3 2263 578.1 2263 578.4C2263 578.8 2262 578.5 2260.8 577.8C2259.5 577.1 2258.3 576.5 2258 576.5C2257.7 576.5 2256.4 575.8 2255 575C2253.6 574.3 2252.4 573.8 2252.2 573.9C2251.6 574.4 2245 571.5 2245 570.6C2245 570.1 2244.7 570 2244.4 570.3C2243.7 571 2234.7 566.1 2234.2 564.8C2234 564.4 2233.3 564 2232.6 564C2232 564 2230.5 563.3 2229.5 562.5C2228.4 561.7 2222.1 557.2 2215.5 552.4C2175.1 523.4 2148.1 479.8 2138 427.1C2133.6 403.9 2132.6 393.6 2133.3 373.9C2134.3 339.8 2140.7 311.2 2153.3 283.2C2172.6 240.5 2203.7 208.1 2245.5 187.2C2264.2 177.9 2268.7 176.2 2286 172C2308.1 166.7 2318.3 165.6 2344.5 165.6C2370.5 165.5 2376.4 166.1 2398 170.7C2437.7 179.1 2471.9 197.8 2500.1 226.7C2508.3 235 2523 252.6 2523 254C2523 254.4 2525 257.8 2527.5 261.5C2532.5 269.2 2543.7 291.4 2544.4 295.1C2544.7 296.4 2544.9 297.6 2545.1 297.8C2545.2 297.9 2545.4 298.5 2545.5 299C2545.6 299.6 2545.9 300.3 2546 300.8C2546.1 301.2 2546.2 301.8 2546.1 302.3C2546.1 302.7 2546.5 303 2547.1 303C2547.7 303 2548 303.6 2547.7 304.4C2547.4 305.1 2547.7 306.3 2548.3 306.9C2548.9 307.5 2549 308 2548.6 308C2548.1 308 2548.2 308.6 2548.8 309.3C2550.4 311.1 2555.7 333.6 2557.1 343.7C2557.7 348.3 2558 353.9 2557.8 356C2557.6 358.8 2557.8 360 2558.7 360C2559.7 360 2560 364.5 2560 380.5C2560 391.8 2559.6 401 2559.2 401C2558.8 401 2557.9 406.1 2557.2 412.3C2556 424.1 2551.7 443.3 2550.1 443.8C2549.6 444 2549.4 445 2549.7 446C2550 447.1 2549.7 448 2549.1 448C2548.6 448 2548.3 448.7 2548.6 449.5C2549 450.3 2548.7 451 2548.1 451C2547.5 451 2547.3 451.7 2547.6 452.5C2548 453.3 2547.7 454 2547.1 454C2546.5 454 2546.3 454.7 2546.6 455.5C2547 456.3 2546.7 457 2546.1 457C2545.5 457 2545.3 457.7 2545.6 458.5C2546 459.3 2545.8 460 2545.4 460C2544.9 460 2544.4 461.2 2544.3 462.6C2544.3 464.1 2543.7 466.2 2543.2 467.4C2542.7 468.5 2541.2 472 2540 475C2537.8 480.3 2529.3 496 2528.1 497C2527.7 497.3 2526.9 498.7 2526.3 500.3C2525.6 501.8 2524.5 503 2523.7 503C2523 503 2522.4 503.9 2522.3 505C2522.1 507.3 2511.8 521.5 2509 523.2C2507.9 523.9 2507 524.8 2507 525.2C2507 526.4 2494.6 539 2493.4 539C2492.8 539 2491 540.6 2489.6 542.5C2488.1 544.4 2486.4 546 2485.7 546C2485 546 2483.9 546.9 2483.2 548C2482.5 549.1 2481.3 550 2480.5 550C2479.7 550 2479 550.5 2479 551C2479 551.6 2478.1 552 2477 552C2475.9 552 2475 552.7 2475 553.5C2475 554.3 2474.3 555 2473.5 555C2472.7 555 2472 555.5 2472 556C2472 556.6 2471.6 557 2471.1 557C2470.5 557 2469 558 2467.7 559.3C2464.5 562.2 2446.2 572.3 2444.1 572.3C2443.2 572.3 2441.5 573.1 2440.2 574.1C2438.9 575.1 2437.2 575.6 2436.3 575.3C2435.4 574.9 2434.4 575.4 2433.8 576.4C2433.3 577.3 2432.5 577.8 2432 577.5C2430.9 576.8 2418.8 580.6 2413.9 583.2C2411.8 584.3 2409.6 584.9 2409.1 584.5C2408.5 584.2 2407 584.6 2405.8 585.4C2403.5 586.8 2400.4 587.5 2384 590.6C2375.8 592.1 2333.3 593.4 2323.5 592.4ZM2363.6 499C2396.4 493.3 2419 479.1 2436.9 452.7C2441.7 445.7 2448.9 429.8 2451.5 420.5C2456.1 404.6 2456.5 401.2 2456.5 379.5C2456.5 360 2456.3 357.7 2453.7 347.7C2447.6 323.4 2436.5 303.5 2419.5 286.5C2411 278 2403.2 272.5 2394 268.4C2390.4 266.9 2387.3 265.3 2387 265C2386.7 264.7 2385.6 264.3 2384.5 264.2C2383.4 264 2382.3 263.5 2382 263.2C2381.7 262.8 2380.8 262.4 2380 262.3C2379.2 262.3 2374.7 261.2 2370 260C2362.9 258.1 2358.8 257.8 2345.5 257.8C2328.9 257.8 2318.6 259.5 2306.9 264.1C2304.3 265.1 2301.9 265.6 2301.6 265.3C2301.3 265 2300.2 265.4 2299.3 266.2C2296.7 268.4 2288 273 2286.4 273C2285.6 273 2285 273.5 2285 274C2285 274.6 2284.1 275 2283 275C2281.9 275 2281 275.7 2281 276.5C2281 277.3 2280.4 278 2279.7 278C2278.9 278 2277.3 279.1 2276 280.5C2274.7 281.9 2273 283 2272.3 283C2271.5 283 2271.1 283.4 2271.4 283.9C2271.7 284.4 2271.1 285 2270 285.3C2268.7 285.6 2268.2 286.4 2268.6 287.3C2269.1 288.7 2263.9 294 2262 294C2261.5 294 2261.3 294.7 2261.6 295.5C2262 296.3 2261.5 297.2 2260.6 297.6C2259.7 297.9 2259 298.8 2259 299.5C2259 300.2 2258.7 301 2258.3 301.2C2257.2 301.6 2254.8 305.9 2249.1 317C2243.9 327.3 2238.8 341.8 2236.9 351.8C2236.3 355.2 2235.5 358 2235.1 358C2234.8 358 2234.6 368 2234.7 380.1C2234.8 396.4 2235.1 402.5 2236 403C2236.8 403.5 2237 404.8 2236.6 406.4C2236.3 407.8 2236.3 409 2236.8 409C2237.3 409 2238.3 411.6 2238.9 414.8C2240.6 422.4 2246.3 437 2250.6 444.8C2260.8 463.5 2276.8 479.3 2294.8 488.4C2301.9 492 2316.8 496.9 2325.4 498.5C2334.1 500.1 2355.6 500.4 2363.6 499Z" fill="#A9ACAE"/>
<path d="M1255 582.9C1255 582.4 1254.6 582.2 1254 582.5C1253.5 582.8 1251.9 581.9 1250.5 580.4L1248 577.7V6.80005L1254 0.800049L1276.3 1.30005C1295.5 1.70005 1299.4 2.00005 1305.1 3.90005C1317 7.70005 1330.7 18.2001 1337.9 29C1342.1 35.2001 1346 43.2 1346 45.6C1346 46.4 1346.6 48.1 1347.3 49.3C1348.2 51 1348.6 69.2 1349 127.2L1349.5 202.8L1351.8 205.3C1356.4 210.2 1363.9 209.4 1370.4 203.2C1384 190.3 1405.2 178 1423.1 172.6C1443.4 166.5 1451.4 165.5 1479.5 165.5C1507.5 165.6 1517.5 166.6 1538 171.7C1558.5 176.7 1573.2 183.4 1588.6 194.9C1611.4 211.9 1629.2 239.3 1636 268C1637.1 272.7 1638.4 277.9 1638.9 279.5C1639.8 282.3 1640.6 287.2 1643 303.5C1643.5 306.8 1644.2 314.8 1644.6 321.4C1645.1 330.8 1644.9 333.4 1643.9 334.1C1642.8 334.8 1642.9 335 1644.3 335C1645.9 335 1646 341.4 1646 455.3V575.6L1638.8 584H1611.9C1595.1 584 1585 583.6 1585 583C1585 582.5 1583.7 582.3 1582 582.7C1580 583 1579 582.8 1579 582.1C1579 581.4 1578.6 581.2 1578 581.5C1577.5 581.8 1577 581.7 1577 581.2C1577 580.1 1571 577.7 1570.3 578.4C1570 578.6 1569 578 1567.9 576.9C1566.8 575.8 1565.5 575.2 1565 575.5C1564.4 575.9 1563.7 575.4 1563.4 574.6C1563.1 573.7 1562.5 573.2 1562.1 573.5C1561 574.1 1554.8 567.3 1551.5 562.1C1550 559.7 1547.7 554.7 1546.4 551.1L1544 544.5V451.5C1544 344 1543.7 339.5 1536.3 316.5C1531.8 302.1 1521.9 287.1 1511.5 278.7C1488.7 260.3 1449.8 253.9 1421.3 264C1416.4 265.7 1411.6 267.2 1410.5 267.3C1409.4 267.4 1407.6 268.3 1406.5 269.3C1405.4 270.3 1401.1 273.3 1397 275.9C1383.9 284.2 1373.2 295.4 1365.8 308.5C1361.4 316.3 1354.6 333 1353.1 340C1352.4 343 1351.3 347.1 1350.7 349C1350 351.4 1349.5 384.1 1349.1 449.5C1348.5 545.5 1348.5 546.6 1346.4 552.2C1343.5 559.6 1339.6 565.2 1332.3 572.2C1327.7 576.6 1325.8 577.8 1324.1 577.3C1322.4 576.9 1322.1 577.1 1322.7 578.6C1323.2 579.9 1323 580.2 1321.7 579.7C1319.5 578.9 1312.8 580.9 1311.3 582.9C1310.5 583.9 1310.1 584.1 1310 583.3C1310 581.8 1306 581.5 1306 583C1306 583.6 1296.8 584 1280.5 584C1263.2 584 1255 583.7 1255 582.9Z" fill="#A9ACAE"/>
<path d="M2036.6 583.1C2036.2 582.6 2034.1 582.2 2031.7 582.2C2026.6 582.3 2014.7 576 2008.3 569.8C2003.2 564.8 1998.6 556.3 1997.1 549.2C1996.3 545.5 1996 490.8 1996 361.9C1996 169.4 1996.1 175.8 1991.6 172.1C1990.5 171.2 1988 170.7 1984.8 170.9C1980.7 171.1 1978.9 171.7 1976.3 174C1974.5 175.6 1973 177.1 1973 177.2C1972.8 179.5 1971.4 182.1 1969.9 182.5C1968.8 182.9 1968.3 183.7 1968.7 184.6C1969 185.3 1968.7 186 1968.1 186C1967.5 186 1967 186.6 1967 187.4C1967 188.1 1965.9 189.9 1964.5 191.4C1963.1 192.9 1962 194.5 1962 194.9C1962 195.4 1960.8 197.1 1959.3 198.7C1957.7 200.4 1955.9 202.8 1955.1 204.3C1954.4 205.7 1952.5 208.2 1950.9 210C1949.3 211.7 1948 213.5 1948 213.9C1948 214.4 1946.9 215.9 1945.5 217.4C1944.1 218.9 1943 220.3 1943 220.6C1943 221.7 1925.6 245 1924.8 245C1924.4 245 1924 245.7 1924 246.5C1924 247.4 1923.3 248.3 1922.5 248.6C1921.7 249 1921 249.8 1921 250.6C1921 251.4 1920.6 252 1920 252C1919.5 252 1919 252.4 1919 253C1919 254.4 1903.9 275 1902.9 275C1902.4 275 1902 275.7 1902 276.5C1902 277.4 1901.3 278.3 1900.5 278.6C1899.7 279 1899 279.8 1899 280.5C1899 281.1 1898 282.8 1896.8 284.2C1895.5 285.5 1893.9 287.8 1893.1 289.2C1892.4 290.6 1890.6 293.1 1889.1 294.7C1887.7 296.3 1885.9 298.8 1885.1 300.2C1884.4 301.6 1882.6 304.1 1881.1 305.8C1879.7 307.4 1877.8 310 1876.8 311.6C1875.9 313.2 1874.3 315 1873.3 315.5C1872.2 316.1 1871.5 317.1 1871.8 317.8C1872 318.4 1871.7 319 1871.1 319C1870.5 319 1870 319.5 1870 320.2C1870 322.5 1853.8 343 1851.9 343C1851.5 343 1849.8 344.3 1848.1 345.9C1841.5 352.1 1825.1 356 1813.4 354.1C1800.1 352.1 1788.8 344.6 1778.8 331.2C1775.2 326.4 1765.4 313.1 1757 301.5C1748.6 290 1739.2 277.1 1736.1 272.9C1733 268.7 1724.9 257.5 1718 248C1711.1 238.5 1699.8 223 1692.9 213.6C1686 204.2 1676.9 191.7 1672.6 185.8C1668.4 179.9 1663.9 174.1 1662.6 172.9C1658.6 169 1648 170.1 1647.1 174.5C1646.8 175.6 1646.5 188.8 1646.3 203.8C1646.1 218.7 1645.6 231 1645.1 231C1644.7 231 1642.2 227.4 1639.5 223C1636.9 218.6 1631.8 211 1628 206.2C1620.1 196 1600.7 176.9 1596.2 174.9C1594.4 174.1 1593 173.2 1593 172.8C1593 172.3 1592.4 172 1591.6 172C1590.8 172 1589.5 171.4 1588.8 170.6C1588 169.9 1586.4 168.9 1585.2 168.6C1584 168.2 1583 167.4 1583 166.9C1583 166.3 1582.6 166.1 1582.1 166.5C1581.6 166.8 1580.5 166.3 1579.7 165.5C1578.8 164.7 1577.7 164 1577.2 164C1576.6 164 1573.2 162.6 1569.5 161C1565.8 159.3 1562.4 158 1562 158C1561.5 158 1559.9 157.5 1558.3 156.9C1556.8 156.2 1554.5 155.6 1553.3 155.4C1552.1 155.3 1550.5 154.6 1549.8 154C1549.1 153.4 1547.6 152.3 1546.5 151.5C1544.5 150.2 1544.5 149 1544.5 88.2999V26.4999L1547.7 20.3999C1553.3 9.79993 1564.2 1.99993 1573.7 1.99993C1575.5 1.99993 1577 1.59993 1577 0.999932C1577 0.399932 1590.1 0.0999323 1611.8 0.0999323C1650 0.0999323 1657.7 0.999932 1668 6.29993C1679.1 12.0999 1677.8 10.4999 1719 67.4999C1814.1 198.9 1808.5 192 1820.2 192C1827.5 192 1831.5 190.3 1836.1 185.4C1838.1 183.2 1852.2 164.2 1867.6 143C1882.9 121.8 1904 92.7999 1914.4 78.4999C1924.8 64.1999 1936 48.6999 1939.4 43.9999C1955.5 21.1999 1962.7 12.5999 1969 8.59993C1974.8 4.79993 1983.7 1.99993 1989.5 1.99993C1992.7 1.99993 1995 1.59993 1995 0.999932C1995 0.199932 2005.8 -6.7696e-05 2028.8 0.0999323C2057.7 0.299932 2063.5 0.499932 2069.8 2.09993C2082.6 5.29993 2090.6 12.2999 2095 23.8999C2097 28.8999 2097 33.5999 2097 302.8C2096.9 587.7 2097 580 2093.1 580C2092.5 580 2092.1 580.6 2092.3 581.3C2092.4 582 2091.6 582.4 2090.3 582.2C2089 582 2088 582.4 2088 582.9C2088 584.3 2037.4 584.4 2036.6 583.1Z" fill="#A9ACAE"/>
<path d="M466.9 801.4C464.1 799.8 458 799.5 458 801C458 801.6 457.4 802 456.6 802C454.6 802 453.8 798.8 454.9 795.7C455.8 793.4 456.4 793.1 460.9 793.2C464.6 793.3 466.6 792.8 468.1 791.4C472.8 787.3 473 785.4 473 746.1V709.2L475.6 708.6C477 708.2 479.7 708.2 481.6 708.6L485.1 709.2L484.8 749.4C484.5 785.6 484.3 789.8 482.7 792.8C481.6 794.8 480.2 796 478.9 796C477.8 796 477.2 796.4 477.5 797C478.5 798.7 476.1 800.8 474 800.3C472.9 800 472 800.2 472 800.8C472 802.5 469.5 802.8 466.9 801.4Z" fill="#9A9DA0"/>
<path d="M707.7 800.9C706.7 800.3 703.4 800 700.4 800.2C697.4 800.3 695 800.1 695 799.7C695 799.2 694.6 799.1 694.1 799.4C692.3 800.5 692.1 796.9 693.7 793.5C695.4 789.8 696.8 789.2 698.8 791.2C700.3 792.7 707.9 792.7 710.8 791.1C713.8 789.5 718.8 781.6 719.6 777.3C720 775.1 719.8 773.3 718.8 772.2C718 771.3 716.8 768.7 716.1 766.5C715.4 764.3 713.6 760 712.3 757C707.4 746.2 706.1 743.3 700.1 729.3C696.7 721.5 694 714.2 694 713.2C694 712.2 693.5 710.9 692.9 710.3C691.7 709.1 696.3 707.9 699.6 708.5C700.6 708.7 702 708.9 702.7 708.9C703.4 709 703.7 709.7 703.4 710.5C703 711.4 703.4 712 704.3 712C705.1 712 706 712.7 706.4 713.5C706.7 714.3 706.5 715 706 715C705.4 715 705 715.5 705 716C705 716.6 705.8 717 706.8 717C708.2 717 708.3 717.2 707 718C705.7 718.9 705.9 719.3 707.9 720.9C709.4 722 709.8 722.9 709.1 723.1C707.4 723.7 708.9 727 710.9 727C712.1 727 712.2 727.2 711.2 727.8C709.5 728.9 710.7 732 712.9 732C714.1 732 714.2 732.2 713.2 732.9C712.1 733.5 712.2 733.9 713.6 734.4C715.2 735 715.2 735.2 714 736C712.8 736.8 712.9 737 714.5 737C716 737 716.2 737.3 715.2 737.9C714.1 738.5 714.2 738.9 715.6 739.4C717.2 740 717.2 740.2 716 741C714.7 741.9 714.7 742 716 742C717 742 718.9 745.5 721.4 752C723.6 757.6 725.6 762.3 726 762.5C726.7 763 728.1 759.5 738.4 731C747.1 707 747.2 706.9 755.6 708.5C759.4 709.2 760.2 711 756.8 711C754.9 711 754.8 711.2 756 712C757.3 712.8 757.2 713 755.8 713C754.8 713 754 713.5 754 714C754 714.6 754.5 715 755 715C756.9 715 756 718.1 753.8 719C752.5 719.5 752.1 719.9 752.8 719.9C754.8 720 754.3 721.6 747.1 738.9C742.5 749.9 739.7 755.6 738.4 756.1C737.3 756.5 737.1 756.9 737.8 756.9C739.6 757 739.3 760 737.5 760C735.5 760 733.8 764.2 735.4 765.2C736.1 765.7 735.9 766 734.8 766C732.7 766 732.4 767.6 734.3 768.3C735 768.6 734.8 768.9 733.7 768.9C731.7 769 729.2 774.2 730.9 774.8C732.8 775.4 732.1 778 730 778C727.8 778 727.3 779.6 729.2 780.2C730.1 780.5 730 781.8 728.7 785.2C726 792.1 721.4 798 718.7 798C717.4 798 715.4 798.9 714.2 800C711.8 802.2 710.4 802.4 707.7 800.9Z" fill="#9A9DA0"/>
<path d="M247 776.5C247 775.4 242.6 775.1 220.5 775C205.9 775 194 775.3 194 775.8C194 776.3 192 776.2 189.5 775.6L185 774.5V686H215.9C242.1 686 246.9 686.2 248 687.5C249 688.7 249 689 247.6 689C246.6 689 246 689.9 246 691.4C246 695.6 244.9 697 241.9 697C240.3 697 239 696.6 239 696C239 695.4 235.7 695 231 695C225.9 695 223 695.4 223 696.1C223 696.9 218.9 697.1 209.8 696.8L196.5 696.5L197 710.3C197.3 719.1 197.1 724 196.5 724C196 724 196.2 724.5 197 725C197.8 725.5 207.3 726 218.5 726C229.5 726 239.5 726.3 240.8 726.6C242.7 727.2 243 727.9 243 732.2V737.1L219.8 736.8L196.5 736.5L197 750.5C197.3 758.2 197.9 765.1 198.3 765.8C198.9 766.7 205 767 223.1 767H247V769.5C247 771.1 247.6 772 248.5 772C249.4 772 250 772.9 250 774.4C250 775.7 249.3 777 248.5 777.4C247.6 777.7 247 777.4 247 776.5Z" fill="#9A9DA0"/>
<path d="M590 777C590 776.5 588.7 776.3 587 776.7C585 777 584 776.8 584 776.1C584 775.4 583.6 775.2 583 775.5C582.5 775.8 582 775.6 582 775C582 774.3 581.4 774 580.8 774.2C580.1 774.5 579.1 774.3 578.5 773.8C578 773.4 574.7 771 571.3 768.5C562.8 762.2 560.6 757.6 560.2 744.7C559.9 737.1 560.2 733.8 561.7 729.8C564.3 722.5 571.4 715 579.2 711.4C584.7 708.9 586.7 708.5 594.5 708.6C602.4 708.6 604.3 708.9 610.1 711.7C618.1 715.4 623.4 720.5 626.9 727.9C629.1 732.7 629.5 734.8 629.5 743C629.5 751.2 629.1 753.3 626.8 758.3C624.7 762.8 623.6 764 621.8 764C620.1 764 619.9 764.3 620.9 764.9C622.5 766 621.5 768.1 619.6 767.4C618.9 767.1 616 768.5 613.1 770.5C610.1 772.4 606.7 774.3 605.4 774.6C604.1 774.9 603 775.6 603 776C603 776.4 601.9 776.5 600.5 776.2C599 776 598 776.2 598 776.9C598 777.5 596.3 778 594 778C591.8 778 590 777.6 590 777ZM619.187 742.296C619.187 728.58 608.068 717.461 594.353 717.461C580.637 717.461 569.518 728.58 569.518 742.296C569.518 756.012 580.637 767.131 594.353 767.131C608.068 767.131 619.187 756.012 619.187 742.296Z" fill="#9A9DA0"/>
<path d="M939 777C939 776.5 938.4 776.3 937.6 776.6C936.9 776.9 934.6 775.6 932.6 773.8C926 767.8 925.8 766.9 925.9 743.3C926.1 719 925.6 717 919.5 717C917 717 916 716.5 915.5 715C914.5 712 915.7 711 920.4 711C925.6 711 926 710.2 926 699.1C926 692 926.1 691.8 928.3 692.4C929.5 692.7 932 693 933.8 693H937.1L936.8 701.5C936.6 707.9 936.8 710.1 937.8 710.5C938.6 710.8 943.4 711 948.6 711H958V717H949.3C935.2 717 936.5 714.9 936.8 737.8C937 748.6 937.5 759.2 938.1 761.2C939.4 766.2 941.9 767.4 949.2 766.6C952.7 766.3 955 766.4 955 767C955 767.6 955.6 768 956.4 768C957.2 768 958 768.7 958.4 769.5C958.7 770.3 958.5 771 958 771C957.4 771 956.1 771.9 955 773C953.9 774.1 952.3 775 951.5 775C950.7 775 950 775.4 950 775.9C950 776.4 949.1 776.6 948 776.3C946.9 776 946 776.3 946 776.9C946 777.5 944.4 778 942.5 778C940.6 778 939 777.6 939 777Z" fill="#9A9DA0"/>
<path d="M1095 776.9C1095 776.4 1093 776 1090.5 776H1086V753.8L1085.9 731.5L1083.2 726.6C1077.2 715.8 1061.9 713.7 1052.2 722.3C1050.5 723.9 1050.3 724.6 1051.2 725.2C1052.1 725.7 1052 726 1050.7 726C1049.7 726 1049.2 726.5 1049.5 727C1049.8 727.6 1049.4 728 1048.6 728C1046.5 728 1045.5 730.1 1047.1 731.1C1048.2 731.8 1048.2 732 1046.8 732C1044.2 732 1043 740.2 1043 757.5C1043 770.6 1043.2 773 1044.5 773C1046.6 773 1046.4 774.7 1044.3 775.2C1043.3 775.4 1040.6 775.4 1038.3 775.2L1034 774.8V728C1034 691.5 1034.3 681.1 1035.3 680.8C1035.9 680.5 1038.8 680.6 1041.5 681C1044.3 681.4 1045.7 681.8 1044.8 681.9C1043.1 682 1043 683.6 1043 701.4C1043 714.5 1043.4 721.1 1044.1 721.6C1044.7 721.9 1047.3 720.2 1049.8 717.7C1060.6 707.1 1076 705.2 1088.3 713C1093 716 1098.6 725 1096.2 725.8C1094.4 726.4 1094.8 728 1096.8 728.1C1097.8 728.1 1098 728.4 1097.3 728.7C1095.4 729.4 1095.6 737 1097.5 737C1098.8 737 1099 739.5 1099 753.5C1099 767.5 1098.8 770 1097.5 770C1096.7 770 1096 770.5 1096 771C1096 771.6 1096.7 772 1097.5 772C1099.8 772 1099.4 776.7 1097 777.3C1095.9 777.6 1095 777.4 1095 776.9Z" fill="#9A9DA0"/>
<path d="M1202 777C1202 776.4 1200.9 776.2 1199.5 776.6C1198.1 776.9 1197 776.8 1197 776.2C1197 775.6 1196.1 775.4 1195 775.7C1193.9 776 1193 775.7 1193 775.1C1193 774.1 1185.5 769.6 1183.6 769.5C1182 769.5 1176.1 761.2 1174.9 757.2C1172.9 750.7 1172.6 735.7 1174.3 730.6C1177.9 720 1185.8 712.8 1197.4 709.5C1210 705.8 1225.7 710.5 1232.5 719.8C1236.7 725.6 1238.8 731.9 1236.8 733.1C1235.8 733.8 1235.9 734 1237.3 734C1238.7 734 1239 734.9 1239 739.5V745H1211.6C1194.3 745 1183.9 745.4 1183.5 746C1183.2 746.6 1183.3 747 1183.8 747C1184.3 747 1185 748.7 1185.4 750.8C1186.1 755.7 1190.5 761.7 1196 765.5C1199.9 768.2 1201.1 768.5 1207.4 768.4C1213.7 768.4 1215.4 767.9 1221.7 764.5L1229 760.6L1231.5 763C1234.4 765.7 1234.7 767.8 1232.3 768.6C1228.9 769.6 1216.5 775.5 1216.2 776.2C1216 776.6 1214.5 776.7 1212.9 776.3C1211.1 776 1210 776.2 1210 776.9C1210 777.5 1208.3 778 1206 778C1203.8 778 1202 777.5 1202 777ZM1227.6 737.5C1227.9 736.7 1227.4 733.5 1226.4 730.5C1223.3 720.5 1212.7 713.9 1202.6 715.6C1196.3 716.6 1186.7 722.6 1189 724C1189.7 724.4 1189.2 726.2 1187.5 729.1C1186.2 731.5 1185 734.3 1185 735.3C1185 736.2 1184.4 737 1183.8 737C1182.9 737 1183 737.4 1184 738C1184.8 738.5 1194.6 739 1206.3 739C1223.7 739 1227.2 738.8 1227.6 737.5Z" fill="#9A9DA0"/>
<path d="M336.5 775.9C335.4 775.5 333.3 775.1 331.8 775.1L329 775V743.6C329 726.3 328.7 711.5 328.4 710.7C328 709.6 329 709.1 332.3 708.6C339.1 707.6 340 708.3 340 715.1C340 721.3 341 722.6 342.7 718.7C344.3 715.2 352.4 710.3 358.8 708.9C369 706.8 379.4 709.5 385.7 716C389.6 720 392 725.2 390.2 725.8C388.5 726.3 388.7 730 390.5 730C391.3 730 392 730.5 392 731C392 731.6 391.6 732 391 732C389.4 732 389.7 773 391.3 773.1C391.9 773.1 391 773.8 389.2 774.6C387.4 775.4 385.4 775.8 384.8 775.4C384.3 775 383.4 775.4 382.9 776.1C382.5 776.8 381.9 777.2 381.6 776.9C381.3 776.6 380.9 766.3 380.7 753.9C380.5 735.4 380.1 730.9 378.8 728C377.8 726.1 377.1 725 377 725.5C377 726.1 376.4 725.4 375.7 724.1C372.7 718.1 359.7 715.2 352.2 718.7C347.5 720.9 343.7 724.2 344.9 725C345.5 725.3 344.6 728.1 343 731.4L340 737.3V756.6C340 767.2 339.7 776.1 339.3 776.3C338.8 776.6 337.6 776.4 336.5 775.9Z" fill="#9A9DA0"/>
<path d="M474.9 693.3C473.3 692.9 471 689 471 686.6C471 684.3 475.5 681 478.6 681C482.6 681 486 684.6 486 688.8C486 691.3 485.6 692 484.1 692C483 692 481.8 692.5 481.5 693C480.9 694 477.9 694.1 474.9 693.3Z" fill="#9A9DA0"/>
<path d="M2319 591.8C2314.3 591.4 2310.4 590.7 2310.2 590.2C2310.1 589.8 2308.4 589.6 2306.5 589.8C2304.6 590 2303 589.8 2303 589.4C2303 588.9 2300.9 588.4 2298.3 588.4C2295.7 588.3 2293.4 587.8 2293.2 587.2C2293.1 586.7 2292 586.4 2291 586.7C2289.9 587 2289 586.8 2289 586.2C2289 585.6 2288.1 585.4 2287 585.7C2285.8 586 2285 585.7 2285 585C2285 584.3 2284.3 584 2283.5 584.4C2282.7 584.7 2282 584.5 2282 583.9C2282 583.3 2281.4 583 2280.6 583.3C2279.8 583.6 2279 583.4 2278.8 582.9C2278.6 582.4 2277.1 581.8 2275.5 581.7C2273.8 581.6 2272.3 581.2 2272 580.9C2271 579.6 2247.9 570.9 2247.1 571.5C2246.6 571.7 2245.9 571.3 2245.6 570.4C2245.2 569.5 2244.3 569 2243.5 569.4C2242.7 569.7 2242 569.5 2242 568.9C2242 568.3 2241.6 568.2 2241 568.5C2240.5 568.8 2240 568.6 2240 568C2240 567.4 2239.6 567.2 2239 567.5C2238.5 567.8 2238 567.6 2238 566.9C2238 566.2 2237.7 565.9 2237.4 566.3C2237.1 566.6 2236 566 2234.9 564.9C2233.8 563.8 2232.5 563.2 2232 563.5C2231.4 563.9 2231 563.7 2231 563.1C2231 562.5 2228.4 560.4 2225.3 558.4C2222.1 556.4 2216.3 552.3 2212.4 549.4C2208.4 546.4 2204.9 544 2204.5 544C2203.4 544 2184 524.1 2184 523.1C2184 522.6 2182.9 521.5 2181.5 520.6C2180.1 519.7 2179 518.6 2179 518.1C2179 517.6 2177.7 515.8 2176 514C2174.4 512.2 2173 510.4 2173 509.9C2173 509.4 2172.1 508.1 2171 507C2169.9 505.9 2169 504.3 2169 503.5C2169 502.7 2168.6 502 2168 502C2167.5 502 2167 501.3 2167 500.5C2167 499.7 2166.6 499 2166.1 499C2165.6 499 2164.9 497.8 2164.5 496.3C2164.2 494.8 2163 492.5 2162 491.1C2157.8 485.1 2148.8 466 2146 457.1C2142.8 446.8 2139.1 430.6 2136.3 414.5C2133.9 400.2 2133.8 358 2136.3 342.5C2138.4 329.1 2144.1 306 2147.7 296.5C2150.6 288.5 2159.4 270.7 2165.1 260.9C2174.5 244.6 2193.5 223 2210 209.7C2236.6 188.2 2267.9 174.7 2307 167.8C2317.6 166 2323.3 165.6 2345 165.6C2361.4 165.6 2373 166 2377.5 166.8C2381.4 167.5 2387.2 168.5 2390.5 169.1C2399.8 170.6 2419.2 176 2426.8 179.1C2431.7 181.1 2433.7 181.9 2438 183.5C2447.1 186.8 2476 204 2476 206.1C2476 206.6 2476.5 207 2477.1 207C2479.2 207 2490.6 216.8 2501 227.7C2511.4 238.4 2516.9 245 2515.3 245C2514.9 245 2515.6 245.7 2516.8 246.6C2518 247.4 2518.8 248.5 2518.5 249C2518.2 249.4 2518.7 250.1 2519.6 250.4C2520.4 250.7 2520.9 251.4 2520.6 251.9C2520.3 252.4 2520.7 253.1 2521.6 253.4C2522.5 253.8 2523 254.3 2522.6 254.7C2522.3 255 2522.9 256 2524.1 256.8C2525.2 257.6 2525.9 258.8 2525.6 259.6C2525.3 260.4 2525.7 261 2526.5 261C2527.9 261 2528.2 261.4 2528.4 264.3C2528.5 264.9 2529.3 266.2 2530.3 267C2533 269.3 2543.1 290.3 2541.9 291.1C2541.3 291.5 2541.5 292 2542.6 292.4C2544 292.9 2544.1 293.3 2543.2 293.9C2541.5 294.9 2542.8 298 2544.9 298.1C2546 298.1 2546.1 298.3 2545.2 298.7C2544.2 299.1 2544.3 299.5 2545.7 300.6C2546.8 301.4 2547 301.9 2546.3 302C2544.3 302 2544.8 304 2546.8 304.1C2547.9 304.1 2548 304.3 2547.2 304.7C2546.2 305.1 2546.3 305.5 2547.7 306.6C2548.8 307.4 2549 307.9 2548.3 308C2546.5 308 2546.7 310 2548.5 310C2549.3 310 2550 310.5 2550 311C2550 311.6 2549.6 312 2549 312C2548.5 312 2548 312.5 2548 313C2548 313.6 2548.6 314 2549.4 314C2550.4 314 2551.6 317.1 2553.1 323.6C2555.1 331.8 2555.2 333.2 2554 334C2552.7 334.8 2552.7 335 2554.1 335C2556.1 335 2556.8 338.2 2557.7 350.3C2558 355.2 2557.9 359 2557.4 359C2556.2 359 2556.2 396.3 2557.4 397.2C2558.8 398.2 2558 411.8 2555.9 422.8C2555.1 426.6 2554.4 428 2553.2 428C2551.8 428 2551.8 428.2 2552.9 428.9C2554.9 430.2 2553.5 437 2551.2 437.1C2550.2 437.1 2550 437.4 2550.8 437.7C2552.8 438.5 2552.2 442.1 2550 442.7C2547.8 443.3 2547.3 445.6 2549.3 446.3C2550 446.6 2549.8 446.9 2548.8 446.9C2546.7 447 2546.4 448.6 2548.3 449.3C2549.1 449.7 2549 449.9 2547.9 449.9C2545.8 450 2542.3 460.9 2544 462C2544.8 462.5 2544.5 462.9 2543.1 463.3C2541 463.8 2540.1 466 2542 466C2542.6 466 2543 466.5 2543 467C2543 467.6 2542.2 468 2541.3 468C2539.8 468 2539.7 468.2 2541 469C2542.2 469.8 2542.2 470 2540.5 470.1C2539.4 470.1 2539.1 470.4 2539.8 470.7C2541.7 471.4 2541.3 472.8 2536.8 481.7C2533.6 488.1 2532.2 490 2530.6 490C2529.1 490 2528.9 490.3 2529.8 490.8C2531.7 492 2530.1 495 2527.6 495C2525.9 495 2525.8 495.2 2527 496C2528.2 496.8 2528.2 497 2526.5 497.1C2525.4 497.1 2525.1 497.4 2525.8 497.7C2527.8 498.5 2527.2 500 2524.8 500.1C2523.5 500.1 2523.1 500.4 2523.8 500.7C2525.8 501.5 2525.2 503 2522.8 503C2521.1 503 2520.9 503.3 2521.8 503.9C2522.8 504.5 2522.6 504.9 2520.8 505.4C2519.1 505.8 2518.8 506.2 2519.9 506.9C2521.8 508.1 2518.5 513 2515.6 513C2514 513 2513.8 513.2 2514.9 513.9C2516.2 514.7 2516.2 515.1 2515 516.7C2511.5 521.3 2508.5 524 2506.9 524C2504.9 524 2499.7 529.7 2500.6 531.1C2500.9 531.6 2500.5 532 2499.7 532C2498.9 532 2498.3 532.8 2498.4 533.8C2498.5 534.9 2497.7 535.6 2495.9 535.8C2492.9 536.2 2487.5 541.3 2487.5 543.8C2487.5 544.8 2486.8 545.4 2485.8 545.2C2484.9 545.1 2479 548.8 2472.6 553.4C2461.6 561.4 2443.3 571.6 2435.8 573.9C2434 574.4 2428 576.5 2422.5 578.5C2417 580.5 2410.8 582.6 2408.8 583.2C2406.7 583.8 2405 584.6 2405 585C2405 585.5 2404.1 585.6 2403 585.3C2401.9 585 2401 585.2 2401 585.8C2401 586.4 2400.1 586.6 2399 586.3C2397.9 586 2397 586.3 2397 586.9C2397 587.6 2396.1 587.8 2394.5 587.4C2392.9 587 2392 587.2 2392 587.9C2392 588.6 2391.1 588.8 2389.5 588.4C2387.9 588 2387 588.2 2387 589C2387 589.9 2385.9 590 2383.5 589.6C2381.4 589.2 2380 589.3 2380 589.9C2380 590.5 2378.8 590.7 2377 590.4C2375.1 590 2374 590.2 2374 590.9C2374 592.3 2365.6 592.4 2363 591C2361.6 590.3 2360.7 590.4 2359.6 591.5C2358.5 592.7 2355.3 593 2344.6 593C2336.2 593 2331 592.6 2331 592C2331 590.8 2328.3 590.6 2327.8 591.8C2327.7 592.2 2323.7 592.2 2319 591.8ZM2363.6 499C2389.9 494.4 2412.7 482.6 2426.6 466.3C2438.6 452.2 2445.9 439.4 2450.8 424C2461.8 389.7 2459.9 352.1 2445.9 323.3C2443 317.4 2440.3 312.3 2440 312C2438.7 310.9 2433 302.1 2433 301.1C2433 300.5 2432.6 300 2432 300C2431.5 300 2431 299.4 2431 298.6C2431 297.9 2429.9 296.5 2428.5 295.6C2427.1 294.7 2426 293.4 2426 292.8C2426 291.3 2415.1 280.9 2407.5 275.3C2400.7 270.2 2390.3 264.7 2389.1 265.5C2388.6 265.8 2387.9 265.3 2387.6 264.4C2387.2 263.4 2386.2 263 2385.2 263.2C2384.2 263.5 2382.9 263.1 2382.2 262.3C2381.4 261.5 2379.9 261.2 2378.5 261.6C2377 262 2376 261.8 2376 261.1C2376 260.5 2375.3 260.3 2374.5 260.6C2373.7 261 2373 260.8 2373 260.4C2373 259.9 2371.8 259.4 2370.3 259.4C2364.5 259.1 2355.5 257.7 2355 257C2354.7 256.6 2351.2 256.5 2347.3 256.9C2343.3 257.3 2340 257.2 2340 256.8C2340 255.6 2335.2 255.8 2334.8 257C2334.7 257.5 2331.4 258.1 2327.5 258.2C2323.4 258.4 2319.9 259 2319.1 259.8C2318.3 260.5 2316.8 260.9 2315.6 260.6C2312.6 259.9 2299.4 264.1 2291.3 268.5C2279.8 274.7 2262.8 288.6 2265.1 290C2266.7 291 2265.3 293 2263.1 293C2262.1 293 2260.7 293.7 2260 294.5C2259.1 295.5 2259.1 296 2259.9 296C2262.1 296 2261 298 2258.8 298.1C2257.5 298.1 2257.1 298.4 2257.8 298.7C2259.7 299.4 2259.2 301 2257.1 301C2254.9 301 2253.4 302.6 2255.1 303.2C2257 303.8 2250.8 314 2248.5 314C2246.8 314 2246.8 314.2 2248 315C2249.2 315.8 2249.2 316 2247.5 316C2245.9 316 2245.8 316.2 2246.9 316.9C2248.1 317.7 2247.7 319.1 2245 325.4C2242.9 330.1 2241 333 2240.1 333.1C2239 333.1 2238.9 333.3 2239.8 333.7C2241.6 334.4 2241.3 336 2239.3 336.1C2238.2 336.1 2238 336.4 2238.8 336.7C2240.6 337.4 2240.3 339 2238.3 339.1C2237.2 339.1 2237 339.4 2237.8 339.7C2239.5 340.4 2239.3 342 2237.5 342C2235.7 342 2235.5 344.6 2237.3 345.3C2238 345.6 2237.8 345.9 2236.8 345.9C2234.9 346 2234.2 348 2236 348C2236.6 348 2237 348.7 2237 349.5C2237 350.3 2236.3 351 2235.5 351C2234.7 351 2234 351.9 2234 353C2234 354.1 2234.5 355 2235 355C2235.6 355 2236 355.5 2236 356C2236 356.6 2235.3 357 2234.5 357C2233.7 357 2233 357.7 2233 358.5C2233 359.3 2233.5 360 2234 360C2235.4 360 2235.4 395.7 2234 396.2C2232.4 396.7 2233.9 405 2235.6 405C2236.4 405 2237 405.5 2237 406C2237 406.6 2236.6 407 2236 407C2235.5 407 2235 407.7 2235 408.5C2235 409.3 2235.7 410 2236.5 410C2237.3 410 2238 410.5 2238 411C2238 411.6 2237.6 412 2237 412C2236.5 412 2236 412.5 2236 413C2236 413.6 2236.7 414 2237.5 414C2238.3 414 2239 414.5 2239 415C2239 415.6 2238.6 416 2238 416C2237.5 416 2237 416.5 2237 417C2237 417.6 2237.6 418 2238.3 418C2238.9 418 2240.8 421.7 2242.4 426.3C2244 430.8 2247.5 438.7 2250.1 443.8C2252.7 448.8 2254.6 453 2254.2 453C2253.8 453 2254.3 453.5 2255.3 454.1C2256.2 454.7 2256.8 455.5 2256.5 456.1C2256.1 456.6 2256.6 457 2257.4 457C2258.8 457 2259.4 458.2 2259.1 460.3C2259.1 460.7 2259.5 461 2260.1 461C2261.3 461 2265.3 465.6 2264.8 466.4C2264.3 467.1 2268.2 471 2269.4 471C2270 471 2272.9 473.3 2275.8 476C2278.7 478.8 2281.5 481 2282 481C2282.6 481 2283 481.5 2283 482C2283 482.6 2283.6 483 2284.4 483C2285.2 483 2286 483.3 2286.2 483.8C2286.7 485 2303.9 492.6 2311.5 495C2315.4 496.2 2321.7 497.7 2325.5 498.5C2334.1 500.1 2355.5 500.4 2363.6 499Z" fill="#9A9DA0"/>
<path d="M1255 582.9C1255 582.4 1254.6 582.2 1254 582.5C1253.5 582.8 1251.9 581.9 1250.5 580.4L1248 577.7V6.80005L1254 0.800049L1276.3 1.30005C1295.5 1.70005 1299.4 2.00005 1305.1 3.90005C1317 7.70005 1330.7 18.2001 1337.9 29C1342.1 35.2001 1346 43.2 1346 45.6C1346 46.4 1346.6 48.1 1347.3 49.3C1348.2 51 1348.6 69.2 1349 127.2L1349.5 202.8L1351.8 205.3C1356.4 210.2 1363.9 209.4 1370.4 203.2C1384 190.3 1405.2 178 1423.1 172.6C1443.4 166.5 1451.4 165.5 1479.5 165.5C1507.5 165.6 1517.5 166.6 1538 171.7C1558.5 176.7 1573.2 183.4 1588.6 194.9C1611.4 211.9 1629.2 239.3 1636 268C1637.1 272.7 1638.4 277.9 1638.9 279.5C1639.8 282.3 1640.6 287.2 1643 303.5C1643.5 306.8 1644.2 314.8 1644.6 321.4C1645.1 330.8 1644.9 333.4 1643.9 334.1C1642.8 334.8 1642.9 335 1644.3 335C1645.9 335 1646 341.4 1646 455.3V575.6L1638.8 584H1611.9C1595.1 584 1585 583.6 1585 583C1585 582.5 1583.7 582.3 1582 582.7C1580 583 1579 582.8 1579 582.1C1579 581.4 1578.6 581.2 1578 581.5C1577.5 581.8 1577 581.7 1577 581.2C1577 580.1 1571 577.7 1570.3 578.4C1570 578.6 1569 578 1567.9 576.9C1566.8 575.8 1565.5 575.2 1565 575.5C1564.4 575.9 1563.7 575.4 1563.4 574.6C1563.1 573.7 1562.5 573.2 1562.1 573.5C1561 574.1 1554.8 567.3 1551.5 562.1C1550 559.7 1547.7 554.7 1546.4 551.1L1544 544.5V451.9C1544 363 1543.5 345.8 1540.9 333.5C1533.8 300.6 1520.2 281 1496.5 269.5C1473.1 258 1444.2 255.9 1421.3 264C1416.4 265.7 1411.6 267.2 1410.5 267.3C1409.4 267.4 1407.6 268.3 1406.5 269.3C1405.4 270.3 1401.1 273.3 1397 275.9C1383.9 284.2 1373.2 295.4 1365.8 308.5C1361.4 316.3 1354.6 333 1353.1 340C1352.4 343 1351.3 347.1 1350.7 349C1350 351.4 1349.5 384.1 1349.1 449.5C1348.5 545.5 1348.5 546.6 1346.4 552.2C1343.5 559.6 1339.6 565.2 1332.3 572.2C1327.7 576.6 1325.8 577.8 1324.1 577.3C1322.4 576.9 1322.1 577.1 1322.7 578.6C1323.2 579.9 1323 580.2 1321.7 579.7C1319.5 578.9 1312.8 580.9 1311.3 582.9C1310.5 583.9 1310.1 584.1 1310 583.3C1310 581.8 1306 581.5 1306 583C1306 583.6 1296.8 584 1280.5 584C1263.2 584 1255 583.7 1255 582.9Z" fill="#9A9DA0"/>
<path d="M2037.6 582.4C2037.1 581.2 2035.9 580.9 2032.5 581.2C2030 581.4 2027.9 581.3 2027.8 581C2027.6 580.7 2024 578.7 2019.6 576.6C2007.7 570.7 2003.8 566.8 1999.6 556.7L1997.5 551.5L1997 364.3C1996.5 177.2 1996.5 177.1 1994.4 174.3C1991.7 170.6 1985.7 167.6 1982.4 168.4C1978.7 169.4 1971.6 176.1 1973.2 177.1C1974.2 177.8 1974.1 178 1972.9 178C1970.7 178 1968.1 181 1970.1 181.1C1970.9 181.1 1970.4 181.6 1969 182.2C1967.5 182.8 1967 183.4 1967.8 183.7C1969.8 184.5 1969.2 186 1966.8 186C1965.1 186 1964.9 186.3 1965.9 186.9C1967.7 188.1 1966.4 190 1963.7 190.1C1962.5 190.1 1962.1 190.4 1962.8 190.7C1964.7 191.4 1964.2 193 1962.1 193C1961 193 1959.8 193.5 1959.5 194C1959.2 194.6 1959.4 195 1959.9 195C1960.5 195 1961 195.5 1961 196C1961 196.6 1960 197 1958.8 197C1957.1 197 1956.9 197.3 1957.9 197.9C1959.7 199.1 1958.4 201 1955.7 201C1954.1 201 1953.8 201.3 1954.9 201.9C1956.7 203.1 1955.4 205 1952.7 205C1951.1 205 1950.8 205.3 1951.9 205.9C1953.7 207.1 1952.4 209 1949.7 209.1C1948.5 209.1 1948.1 209.4 1948.8 209.7C1950.8 210.5 1950.2 212 1947.8 212C1946.1 212 1945.9 212.3 1946.9 212.9C1948.7 214.1 1947.4 216 1944.7 216.1C1943.5 216.1 1943.1 216.4 1943.8 216.7C1945.7 217.4 1945.2 219 1943.1 219C1942 219 1940.8 219.4 1940.5 220C1940.2 220.6 1940.4 221 1940.9 221C1941.5 221 1942 221.5 1942 222C1942 222.6 1941 223 1939.8 223C1938 223 1937.8 223.2 1938.9 223.9C1940.5 224.9 1940.8 224.3 1931.5 236.8C1929.1 240 1926.8 242 1925.5 242.1C1924.4 242.1 1924.1 242.4 1924.8 242.7C1926.7 243.4 1926.2 245 1924.1 245C1923 245 1921.8 245.5 1921.5 246C1921.2 246.6 1921.4 247 1921.9 247C1922.5 247 1923 247.5 1923 248C1923 248.6 1922.1 249 1921.1 249C1918.9 249 1917.1 251 1919.2 251.1C1919.9 251.1 1919.4 251.6 1918 252.1C1916.2 252.9 1915.9 253.3 1916.9 253.9C1918.8 255.1 1915.4 260 1912.6 260C1911 260 1910.8 260.2 1911.9 260.9C1913.9 262.2 1909.6 268 1906.7 268.1C1905.5 268.1 1905.1 268.4 1905.8 268.7C1907.8 269.5 1907.2 271 1904.8 271C1903.1 271 1902.9 271.3 1903.9 271.9C1905.7 273.1 1904.4 275 1901.7 275C1900.1 275 1899.8 275.3 1900.9 275.9C1902.7 277.1 1901.4 279 1898.7 279C1897.1 279 1896.8 279.3 1897.9 279.9C1899.7 281.1 1898.4 283 1895.7 283.1C1894.5 283.1 1894.1 283.4 1894.8 283.7C1896.8 284.5 1896.2 286 1893.8 286C1892.1 286 1891.9 286.3 1892.9 286.9C1894.7 288.1 1893.4 290 1890.7 290C1889.1 290 1888.9 290.3 1889.9 290.9C1891.8 292.1 1888.5 297 1885.6 297C1884 297 1883.8 297.2 1884.9 297.9C1886.9 299.2 1880.5 308 1877.6 308C1876 308 1875.8 308.2 1876.9 308.9C1878.7 310.1 1877.4 312 1874.7 312C1873.1 312 1872.8 312.3 1873.9 312.9C1875.7 314.1 1874.4 316 1871.7 316.1C1870.5 316.1 1870.1 316.4 1870.8 316.7C1872.8 317.5 1872.2 319 1869.8 319C1868.1 319 1867.9 319.3 1868.9 319.9C1870.7 321.1 1869.4 323 1866.7 323C1865.1 323 1864.8 323.3 1865.9 323.9C1867.7 325.1 1866.4 327 1863.7 327C1862 327 1861.8 327.2 1862.9 327.9C1864.9 329.2 1860.6 335 1857.7 335C1856 335 1855.8 335.2 1856.9 335.9C1858.9 337.2 1856.6 340 1853.6 340C1852.4 340 1850.1 341.3 1848.6 342.9C1847 344.5 1844.5 346.4 1842.9 347C1841.4 347.7 1840.3 348.7 1840.6 349.4C1840.9 350.2 1839.9 350.6 1837.5 350.6C1835.3 350.6 1833.5 351.3 1832.7 352.5C1831.5 354.1 1830.4 354.2 1824.7 353.6C1821 353.3 1818 353.3 1818 353.8C1818 355 1806.6 353.4 1806.2 352.1C1806 351.6 1805.2 351.4 1804.4 351.7C1803.6 352 1803 351.7 1803 351C1803 350.4 1802.6 350.2 1802 350.5C1801.5 350.8 1801 350.6 1801 350C1801 349.4 1800.6 349.2 1800 349.5C1799.5 349.8 1799 349.6 1799 349C1799 348.4 1798.6 348.2 1798 348.5C1797.5 348.8 1797 348.7 1797 348.1C1797 346.8 1788.4 340.9 1787.6 341.7C1787.3 342.1 1787 341.6 1787 340.7C1787 339.9 1785.7 338.2 1784 337C1782.4 335.8 1781 334.3 1781 333.5C1781 332.8 1780.3 332 1779.5 331.6C1778.7 331.3 1778 330.4 1778 329.5C1778 328.7 1777.6 328 1777 328C1776.5 328 1776 327.3 1776 326.5C1776 325.6 1775.3 324.7 1774.5 324.4C1773.7 324 1773 323.2 1773 322.5C1773 321.8 1772.3 321 1771.5 320.6C1770.7 320.3 1770 319.4 1770 318.5C1770 317.7 1769.6 317 1769 317C1768.5 317 1768 316.4 1768 315.6C1768 314.8 1767.3 314 1766.5 313.6C1765.7 313.3 1765 312.6 1765 312.1C1765 311.6 1763.7 309.8 1762 308C1760.4 306.2 1759 304.2 1759 303.5C1759 302.8 1758.4 302 1757.7 301.7C1757 301.5 1755.3 299.1 1754 296.5C1752.7 293.9 1751 291.5 1750.3 291.3C1749.6 291 1749 290.1 1749 289.4C1749 288.6 1748.3 287.7 1747.5 287.4C1746.7 287 1746 286.2 1746 285.5C1746 284.8 1745.3 284 1744.5 283.6C1743.7 283.3 1743 282.6 1743 282.1C1743 281.6 1741.7 279.6 1740 277.8C1738.4 276 1737 274 1737 273.3C1737 272.6 1736.6 272 1736 272C1735.5 272 1735 271.4 1735 270.6C1735 269.8 1734.3 269 1733.5 268.6C1732.7 268.3 1732 267.4 1732 266.5C1732 265.7 1731.6 265 1731 265C1730.5 265 1730 264.4 1730 263.6C1730 262.8 1729.3 262 1728.5 261.6C1727.7 261.3 1727 260.4 1727 259.6C1727 258.9 1726.4 258 1725.7 257.7C1724.9 257.4 1723.5 255.6 1722.6 253.6C1721.7 251.6 1720.5 250 1720 250C1719.4 250 1719 249.4 1719 248.6C1719 247.8 1718.3 247 1717.5 246.6C1716.7 246.3 1716 245.4 1716 244.6C1716 243.9 1715.3 243 1714.5 242.6C1713.7 242.3 1713 241.4 1713 240.5C1713 239.7 1712.6 239 1712 239C1711.5 239 1711 238.4 1711 237.6C1711 236.8 1710.3 236 1709.5 235.6C1708.7 235.3 1708 234.4 1708 233.5C1708 232.7 1707.6 232 1707 232C1706.5 232 1706 231.3 1706 230.5C1706 229.6 1705.3 228.7 1704.5 228.4C1703.7 228 1703 227.4 1703 227C1703 226.5 1701.7 224.7 1700.1 223C1698.5 221.2 1696.6 218.7 1695.9 217.3C1695.1 215.8 1693.3 213.4 1691.8 211.7C1690.2 210.1 1689 208.2 1689 207.5C1689 206.8 1688.4 206 1687.7 205.7C1687 205.5 1685.3 203.1 1684 200.5C1682.7 197.9 1681 195.5 1680.3 195.3C1679.6 195 1679 194.1 1679 193.4C1679 192.6 1678.3 191.7 1677.5 191.4C1676.7 191 1676 190.2 1676 189.5C1676 188.8 1675.3 188 1674.5 187.6C1673.7 187.3 1673 186.4 1673 185.5C1673 184.7 1672.6 184 1672 184C1671.5 184 1671 183.3 1671 182.5C1671 181.7 1670.5 181 1670 181C1669.4 181 1668.5 179.9 1668 178.5C1667.5 177.1 1666.6 176 1666 176C1665.5 176 1665 175.4 1665 174.6C1665 172 1660 169 1655.8 169C1651.4 169 1645 171.8 1646.8 172.9C1648.3 173.8 1646.1 180 1644.3 180C1643.6 180 1643 180.5 1643 181C1643 181.6 1643.7 182 1644.5 182C1646.7 182 1646.2 227.3 1644 227.8C1643.1 227.9 1641.5 226.2 1640 223.3C1638.6 220.7 1636.7 217.7 1635.8 216.6C1634.8 215.5 1633.4 213.4 1632.8 211.8C1632.1 210.3 1631.2 209 1630.8 209C1630.3 209 1630 208.3 1630 207.5C1630 206.6 1629.3 205.7 1628.5 205.4C1627.7 205 1627 204.2 1627 203.4C1627 202.7 1625.9 201.3 1624.5 200.4C1623.1 199.5 1622 198.2 1622 197.6C1622 196.9 1620.9 195.3 1619.5 194C1618.1 192.7 1617 192 1617 192.4C1617 193.8 1613.8 190.7 1613 188.5C1611.4 184.2 1583.3 164.1 1581 165.5C1580.6 165.8 1579.9 165.3 1579.6 164.4C1579.2 163.5 1578.3 163 1577.5 163.4C1576.7 163.7 1576 163.5 1576 162.9C1576 162.3 1575.6 162.2 1575 162.5C1574.5 162.8 1574 162.6 1574 162C1574 161.4 1573.6 161.2 1573 161.5C1572.5 161.8 1572 161.6 1572 161C1572 160.3 1571.3 160 1570.5 160.4C1569.7 160.7 1569 160.5 1569 159.9C1569 159.3 1568.6 159.2 1568 159.5C1567.5 159.8 1567 159.6 1567 159C1567 158.3 1566.3 158 1565.5 158.4C1564.7 158.7 1564 158.5 1564 157.9C1564 157.3 1563.6 157.2 1563 157.5C1562.5 157.8 1562 157.7 1562 157.1C1562 156.5 1559 155.2 1555.3 154C1543.3 150.4 1544.5 158 1544.5 87.6999V26.4999L1547.7 20.3999C1549.5 16.8999 1553.1 12.2999 1556 9.6999C1564.7 1.7999 1564.5 1.8999 1615.6 2.1999L1660.5 2.4999L1667.3 5.8999C1671.1 7.7999 1674.7 10.0999 1675.3 10.9999C1676 11.8999 1677.2 12.8999 1678.1 13.1999C1679.8 13.8999 1693.8 31.9999 1694.2 34.1999C1694.4 34.8999 1695.3 36.0999 1696.3 36.7999C1697.2 37.4999 1697.8 38.4999 1697.5 38.9999C1697.2 39.3999 1697.7 40.0999 1698.6 40.3999C1699.4 40.6999 1699.8 41.3999 1699.5 41.9999C1699.2 42.4999 1699.6 42.9999 1700.4 42.9999C1701.3 42.9999 1702 43.4999 1702 43.9999V45.4999C1702.1 45.6999 1703.4 47.2999 1705.1 48.9999C1706.8 50.5999 1707.9 52.3999 1707.5 52.9999C1707.2 53.4999 1707.4 53.9999 1708 53.9999C1709.4 53.9999 1724.1 73.9999 1723.4 75.0999C1723.1 75.5999 1723.5 75.9999 1724.2 75.9999C1725.8 75.9999 1729.3 81.3999 1728.3 82.3999C1728 82.6999 1728.3 82.9999 1729.1 83.0999C1730.7 83.0999 1749.6 109.3 1749.3 110.9C1749.1 111.5 1749.7 112 1750.5 112C1751.9 112 1752.4 113.2 1752.1 115.2C1752.1 115.7 1752.4 116 1753 116C1754.4 116 1761.1 125.1 1760.4 126.1C1760.1 126.6 1760.5 127 1761.2 127C1762.5 127 1771.7 139.4 1771 140.1C1770.8 140.3 1772.1 142 1773.9 143.7C1775.7 145.5 1776.9 147.4 1776.5 148C1776.2 148.5 1776.4 149 1776.9 149C1778.1 149 1791.7 166.9 1792.2 169.1C1792.4 169.8 1793.5 171.3 1794.7 172.4C1795.9 173.6 1797.1 175.2 1797.2 176C1797.4 176.8 1798.4 178.2 1799.5 179.2C1800.6 180.1 1801.1 180.9 1800.7 181C1799.5 181 1808.7 188.8 1812 190.5C1815.6 192.4 1825 192.4 1829.3 190.6C1833.9 188.6 1838.2 183.7 1851.7 165C1858.3 155.9 1879.1 127.1 1898.1 101C1917.1 74.8999 1938 46.0999 1944.5 36.9999C1959.3 16.5999 1965.7 9.9999 1974.7 5.6999L1981.5 2.4999H2073.5L2078 4.7999C2082.2 7.0999 2091.1 14.9999 2089.4 14.9999C2088.9 14.9999 2089.5 15.6999 2090.7 16.4999C2091.9 17.2999 2093.8 20.4999 2094.9 23.4999L2097 29.0999V577L2094.6 578C2093.3 578.5 2091.9 579.4 2091.5 579.9C2091.2 580.5 2090 581 2088.9 581C2087.8 581 2086.7 581.7 2086.4 582.5C2085.6 584.5 2071.5 584.7 2070.6 582.8C2070.1 581.8 2069.9 581.8 2069.4 582.8C2068.7 584.2 2062 584.5 2062 583C2062 582.5 2061.1 582 2060 582C2058.9 582 2058 582.5 2058 583C2058 583.6 2054 584 2048.1 584C2040 584 2038.1 583.7 2037.6 582.4Z" fill="#9A9DA0"/>
<path d="M1408.2 743.3L1408.5 708.5H1419.5L1419.8 714.3C1420 717.4 1420.2 720 1420.4 720C1420.5 720 1422.6 718.2 1425 715.9C1429.8 711.4 1436.6 708 1441.1 708C1444 708 1444 708 1444 714.1V720.2L1439.6 719.6C1434.9 718.9 1430 720.4 1430 722.6C1430 723.3 1428.7 724.8 1427.1 725.9C1421.3 730 1420.6 733.4 1420 756.5L1419.5 777.5L1416.6 777.8C1415 778 1413.3 777.6 1412.8 776.8C1412.1 775.8 1411.7 775.8 1411.3 776.8C1411.1 777.4 1410.2 778 1409.4 778C1408.2 778 1408 772.8 1408.2 743.3Z" fill="#21DAC6"/>
<path d="M1516.6 776.4C1516.3 775.5 1516 760 1516 741.9V709L1518.3 708.4C1519.6 708.1 1522.4 708 1524.6 708.2L1528.5 708.5L1528.8 742.3L1529 776H1526.6C1525.3 776 1523.9 776.6 1523.6 777.3C1523.1 778.3 1522.9 778.3 1522.4 777.3C1521.7 775.8 1519 775.6 1519 777C1519 778.6 1517.3 778.2 1516.6 776.4Z" fill="#21DAC6"/>
<path d="M1626.3 776.9C1624.5 776.4 1623 775.5 1623 774.9C1623 774.3 1622.6 774.2 1622 774.5C1621.5 774.8 1621 774.6 1621 774C1621 773.4 1620.5 773.2 1620 773.5C1619.4 773.8 1618.7 773.4 1618.4 772.6C1618.1 771.7 1617.5 771.2 1617.1 771.5C1616.2 772 1611.1 766.7 1608.6 762.7C1607.7 761.2 1606.2 756.4 1605.4 752.2C1601.6 733 1608.1 718.3 1623.5 710.9C1634.5 705.6 1648.6 707.4 1657.5 715.2C1659.9 717.3 1662.1 719 1662.4 719C1662.7 719 1663.1 710.3 1663.2 699.8L1663.5 680.5L1668.6 680.2C1672.2 680 1674 680.3 1675 681.5C1676 682.7 1676 683 1674.6 683C1673.7 683 1673 683.7 1673 684.5C1673 685.3 1673.7 686 1674.5 686C1675.3 686 1676 686.9 1676 688C1676 689.1 1675.3 690 1674.5 690C1673.2 690 1673 695.1 1673 729.5C1673 763.9 1673.2 769 1674.5 769C1675.3 769 1676 769.5 1676 770C1676 770.6 1675.3 771 1674.5 771C1672.4 771 1672.6 774 1674.8 774.1C1675.9 774.1 1675.5 774.5 1673.8 775.2C1672.2 775.7 1671 776.6 1671 777.1C1671 777.6 1669.4 778 1667.5 778C1663.5 778 1662 776 1662.7 771.3C1663 769.6 1662.7 767.4 1662.1 766.3C1661.3 764.9 1661.1 764.8 1661 766.1C1661 768.4 1655.2 773.5 1652.9 773.2C1651.5 773 1651.2 773.3 1651.6 774.5C1652.1 775.8 1651.8 776 1649.8 775.5C1648 775 1647.1 775.3 1646.7 776.4C1646.2 777.7 1644.5 778 1637.8 777.9C1633.2 777.9 1628 777.4 1626.3 776.9ZM1663.97 742.801C1663.97 729.392 1653.09 718.522 1639.69 718.522C1626.28 718.522 1615.41 729.392 1615.41 742.801C1615.41 756.211 1626.28 767.081 1639.69 767.081C1653.09 767.081 1663.97 756.211 1663.97 742.801Z" fill="#21DAC6"/>
<path d="M1777.3 777.3C1776 777.1 1775 776.5 1775 776C1775 775.5 1774.3 775.3 1773.5 775.6C1772.7 776 1772 775.7 1772 775C1772 774.4 1771.6 774.2 1771 774.5C1770.5 774.8 1770 774.6 1770 774C1770 773.4 1769.6 773.2 1769 773.5C1768.5 773.8 1768 773.6 1768 773.1C1768 772.5 1767.7 772.1 1767.3 772.2C1765.7 772.7 1760.8 768.6 1758 764.5C1754.2 758.9 1751.7 749.1 1751.9 740.5C1752.2 727.2 1761.2 714.7 1773.8 710C1781.5 707 1794.3 707.5 1801.4 710.9C1812.3 716.2 1818.1 725.8 1818.3 739.2L1818.5 747.5L1791.8 747.8C1761.7 748.1 1763.2 747.6 1767.1 755.6C1773 767.9 1788 771.5 1801.8 764C1804.9 762.4 1807.9 761 1808.5 761C1809.9 761 1814 765.2 1814 766.7C1814 768.4 1808 773.1 1806.8 772.4C1805.7 771.7 1798.2 774.7 1796.2 776.7C1794.9 778 1782.6 778.3 1777.3 777.3ZM1807 735.4C1807 727.9 1797.4 716.8 1792.5 718.6C1791.6 719 1790.5 718.8 1790.1 718.2C1788.9 716.2 1784.4 715.8 1782.6 717.5C1781.7 718.4 1781 718.7 1781 718.2C1781 716.5 1773.9 719.6 1772.7 721.7C1772 722.9 1770.3 725.3 1768.8 727.1C1767.4 729 1765.7 732.2 1765.2 734.3L1764.2 738H1807V735.4Z" fill="#21DAC6"/>
<path d="M2340.5 777.3C2336.1 776.8 2329 774 2329 772.9C2329 772.3 2328.5 772.2 2328 772.5C2327.4 772.8 2326.7 772.4 2326.4 771.6C2326.1 770.7 2325.5 770.2 2325.1 770.5C2324.2 771 2188.7 635.7 2188.1 633.7C2187.9 633.1 2187.1 632.1 2186.4 631.7C2184.2 630.5 2184.8 628.1 2187.4 626.9C2189.5 625.9 2192 626.9 2207.7 634.7C2234.8 648.2 2252.4 654.2 2285 661C2287.5 661.5 2292.9 662.4 2297 662.9C2301.1 663.5 2308.2 664.4 2312.6 665.1C2324.7 666.7 2369 666.5 2384 664.6C2402.6 662.3 2426.3 657.7 2433 655C2434.4 654.5 2436.4 653.9 2437.5 653.7C2438.6 653.6 2440 653.2 2440.5 652.9C2441.1 652.6 2445.3 651.1 2450 649.5C2462.7 645.4 2473.9 640.6 2489.1 632.8C2498.9 627.8 2503.4 626 2504.9 626.5C2510.5 628.3 2509.2 629.7 2438.3 701.1C2400.5 739.1 2367.7 771.2 2365.5 772.5C2361.2 775.1 2350.2 778.1 2346 777.8C2344.6 777.8 2342.2 777.5 2340.5 777.3Z" fill="#21DAC6"/>
<path d="M1529.8 688.24C1529.8 692.471 1526.37 695.9 1522.14 695.9C1517.91 695.9 1514.48 692.471 1514.48 688.24C1514.48 684.009 1517.91 680.579 1522.14 680.579C1526.37 680.579 1529.8 684.009 1529.8 688.24Z" fill="#21DAC6"/>
<path d="M1026.5 595.9C1011.5 595 986 590.7 986 589.1C986 588.6 984.9 588.5 983.6 588.7C982.3 589 980.7 588.5 979.9 587.7C979.2 587 977.8 586.5 976.8 586.8C975.8 587 975 586.7 975 586.1C975 585.6 974.3 585.3 973.5 585.6C972.7 586 972 585.8 972 585.2C972 584.6 971.1 584.4 970 584.7C968.8 585 968 584.7 968 584.1C968 583.4 967.6 583.2 967 583.5C966.5 583.8 966 583.6 966 583C966 582.3 965.3 582 964.5 582.4C963.7 582.7 963 582.5 963 581.9C963 581.3 962.3 581 961.5 581.4C960.7 581.7 960 581.5 960 580.9C960 580.3 959.6 580.2 959 580.5C958.5 580.8 958 580.6 958 580C958 579.3 957.4 579 956.8 579.2C956.1 579.5 954.9 579 954.1 578.3C953.4 577.5 952.3 577.1 951.6 577.3C951 577.5 949.9 577 949.1 576.3C948.4 575.5 947.1 575.1 946.4 575.4C945.6 575.7 945 575.5 945 574.9C945 574.3 944.6 574.2 944 574.5C943.5 574.8 943 574.6 943 574C943 573.4 942.6 573.2 942 573.5C941.5 573.8 941 573.6 941 573C941 572.4 940.6 572.2 940 572.5C939.5 572.8 939 572.6 939 572C939 571.4 938.6 571.2 938 571.5C937.5 571.8 937 571.6 937 571C937 570.4 936.6 570.2 936 570.5C935.5 570.8 935 570.6 935 570C935 569.4 934.6 569.1 934 569.5C933.5 569.8 932.2 569.2 931.1 568.1C930 567 928.9 566.4 928.6 566.8C928.3 567.1 928 566.9 928 566.3C928 565.8 927.4 565.3 926.7 565.3C925 565.3 920 562 920 560.8C920 560.3 919.6 560.2 919 560.5C918.5 560.8 917 560.1 915.7 558.8C914.4 557.5 913 556.4 912.5 556.2C908.7 555.2 880 529 880 526.6C880 526 879.1 524.9 878.1 524.3C874.9 522.3 859.7 499.2 854.7 489C844.6 468 836.4 441.6 834.4 424C834.2 422.1 833.5 416.7 832.9 412C831.1 398.8 830.6 366.1 832 353C833.9 334.5 836.8 318 840 307.1C857.3 249.1 892 207.7 944.5 182.9C963.9 173.8 988.2 167 1017 162.9C1028.2 161.3 1070.2 161.3 1080 162.9C1099.3 166 1121.9 171.7 1124.4 174.1C1125 174.6 1126.1 175 1127 175C1130 175 1149.1 185 1160.4 192.4C1175 202 1189.7 214.3 1191.7 218.5C1193.8 223 1192.9 225.8 1187.1 232.7C1178.6 242.8 1152.2 268.3 1151 267.5C1149.5 266.6 1144 268.9 1144 270.5C1144 272.2 1135.9 274.1 1132.1 273.4C1130.1 273 1129 273.2 1129 273.9C1129 274.6 1127 275 1124 275C1121.1 275 1119 274.5 1119 273.9C1119 273.3 1118.1 273.1 1117 273.5C1115.8 273.9 1115 273.7 1115 273C1115 272.3 1114.2 272.1 1113 272.5C1111.8 272.9 1111 272.7 1111 272C1111 271.3 1110.3 271 1109.5 271.4C1108.7 271.7 1108 271.5 1108 270.9C1108 270.3 1107.4 270 1106.8 270.2C1106.1 270.5 1104.9 270 1104.1 269.3C1103.4 268.5 1102.1 268.1 1101.4 268.4C1100.6 268.7 1100 268.5 1100 267.9C1100 267.3 1099.6 267.2 1099 267.5C1098.5 267.8 1098 267.6 1098 267C1098 266.4 1097.6 266.2 1097 266.5C1096.5 266.8 1096 266.7 1096 266.1C1096 265.5 1095.3 265.3 1094.5 265.6C1093.7 266 1093 265.8 1093 265.4C1093 264.9 1091.8 264.4 1090.4 264.3C1088.9 264.3 1087.5 263.8 1087.1 263.3C1086.8 262.9 1085.6 262.4 1084.5 262.4C1083.4 262.3 1078.2 261.2 1073 260C1057 256.3 1033.5 257.1 1017.2 261.9C1015.4 262.5 1013.3 262.7 1012.5 262.4C1011.8 262.1 1010.2 262.8 1009 264C1007.4 265.6 1006.2 266 1003.9 265.5C1001.5 264.9 1001.1 265.1 1001.7 266.5C1002.2 267.9 1001.9 268.1 1000.2 267.6C997.8 266.8 987 271.8 987.6 273.4C987.8 274 985.9 275.8 983.3 277.5C975.7 282.2 962.6 294.4 957.1 301.7C954.4 305.4 949.8 312.7 947.1 318C937.1 337.1 932.8 355.7 932.6 380.7C932.6 389.1 932.2 396 931.8 396C931.3 396 931 396.5 931 397C931 397.6 931.7 398 932.5 398C933.5 398 934 399 934 400.8C934 402.3 935.4 408.9 937.1 415.5C942 434.9 951.7 452.6 964.5 465.6C973.6 474.7 980.4 479.7 991.5 485.3C1011.4 495.3 1025 498.3 1050 498.3C1074.3 498.3 1085.8 496 1106.3 487.1C1120.6 480.8 1126.1 479.6 1137 480.3C1153.3 481.2 1159.4 484.9 1184.3 509.2C1201.8 526.3 1202 526.6 1202 530.8C1202 536.5 1198.7 540.5 1185.4 551.2C1174 560.3 1155.2 572.3 1153.8 571.4C1152.4 570.5 1134 579.3 1134 580.8C1134 581.6 1133.2 581.8 1131.5 581.4C1129.6 580.9 1129 581.2 1129 582.4C1129 584 1127.4 584.5 1123.6 584.1C1122.6 584.1 1121.2 584.6 1120.6 585.4C1119.6 586.7 1108.9 589.8 1093.9 593C1090.8 593.7 1086.6 594 1084.7 593.6C1082.3 593.2 1081.1 593.3 1080.8 594.2C1080 596.4 1050.2 597.4 1026.5 595.9Z" fill="#21DAC6"/>
<path d="M569 594.2C569 593.7 566.4 593.5 563.3 593.8C554.7 594.5 519.7 589.4 518 587.2C517.7 586.8 515.9 586.4 514 586.3C512.1 586.2 510.4 585.7 510.2 585.2C510.1 584.7 508.9 584.5 507.6 584.7C506.3 585 504.6 584.5 503.8 583.6C502.9 582.8 502 582.4 501.6 582.7C501.3 583.1 501 582.8 501 582.1C501 581.3 500.2 581 499 581.3C497.9 581.6 497 581.4 497 580.9C497 580.5 496.3 580.3 495.5 580.6C494.7 581 494 580.7 494 580C494 579.4 493.6 579.2 493 579.5C492.5 579.8 492 579.6 492 579C492 578.3 491.3 578 490.5 578.4C489.7 578.7 489 578.5 489 578.1C489 577.1 482.9 574.7 482.2 575.4C482 575.7 481.1 575.2 480.3 574.4C479.4 573.6 478.1 573.1 477.4 573.4C476.6 573.7 476 573.5 476 572.9C476 572.3 475.6 572.2 475 572.5C474.5 572.8 474 572.6 474 572C474 571.4 473.6 571.2 473 571.5C472.5 571.8 472 571.6 472 571C472 570.4 471.6 570.2 471 570.5C470.5 570.8 470 570.6 470 570C470 569.4 469.6 569.2 469 569.5C468.5 569.8 468 569.6 468 568.9C468 568.2 467.7 567.9 467.4 568.3C466.5 569.1 459 565.2 459 563.9C459 563.3 458.6 563.2 458 563.5C457.5 563.8 457 563.6 457 563C457 562.4 456.5 562.2 456 562.5C455.4 562.8 454.7 562.4 454.4 561.6C454.1 560.7 453.4 560.3 452.9 560.6C452.4 560.9 452 560.6 452 560C452 559.4 451.6 559.1 451.1 559.4C450.6 559.7 449.9 559.3 449.6 558.4C449.3 557.6 448.6 557.1 448.1 557.5C447.5 557.8 446.7 557.2 446.1 556.3C445.6 555.3 444.8 554.6 444.3 554.8C443 555.3 426 541.7 426 540.2C426 539.5 425.6 539.1 425.2 539.4C423.7 540.3 403 517.7 403 515.2C403 514.7 402.3 514 401.5 513.6C400.7 513.3 400 512.5 400 511.8C400 511.1 399.1 509.9 398 509.2C396.9 508.5 396 507.1 396 506C396 504.9 395.6 504 395.1 504C394 504 388.6 494.6 382.2 481.5C368.2 453.2 360 414.1 360 375.4C360 337 367.7 302.8 383 272.5C392.2 254.2 399.6 243 410.9 230.1C428.1 210.5 447 196 470.7 184.1C506.9 166 560.3 156.5 600.4 161C648.2 166.3 675.7 175.1 705 194.5C733.2 213 756.7 242.3 768.9 274C770.7 278.7 772.6 283.4 773.1 284.5C774.9 288.8 778.8 301.8 780 307.5C780.9 311.8 780.9 313.5 780.1 313.8C778.5 314.3 778.8 316 780.5 316C781.3 316 782 316.7 782 317.5C782 318.3 781.5 319 780.8 319C780.1 319 780.2 319.5 781.2 320.3C783.8 322.3 786.3 343 784 343C783.5 343 783 343.9 783 345C783 346.1 783.7 347 784.5 347C785.3 347 786 347.9 786 349C786 350.1 785.6 351 785 351C784.5 351 784 352.8 784 355C784 357.9 784.4 359 785.5 359C786.8 359 787 361.7 787 377C787 392.3 786.8 395 785.5 395C784.6 395 784 395.9 784 397.5C784 398.9 784.5 400 785 400C786.9 400 786 406.7 783.7 410.1C782 412.5 780.8 413.4 779.2 413.2C778 413 777 413.4 777 413.9C777 414.7 732.9 414.9 625 414.8C537.3 414.6 473 414.9 473 415.4C473 415.9 471.9 417.3 470.5 418.6C469.1 419.9 468 421.8 468 423C468 424.1 467.3 425 466.5 425C465.7 425 465 425.5 465 426C465 426.6 465.6 427 466.4 427C468.2 427 469.3 431.2 467.7 432.2C466.9 432.7 467 433 468.3 433C470.2 433 470.7 435 468.8 435C467.8 435 467.8 435.2 468.8 435.8C469.5 436.3 472 440.6 474.4 445.3C482.5 461.3 498.8 477.9 514.1 485.5C529.6 493.3 546.5 498.6 564 501C577.6 502.9 617.8 501.4 629 498.5C630.4 498.2 633.5 497.4 636 496.8C649.7 493.6 663.4 487.9 676.5 479.8C688.4 472.5 693.8 471.1 701.1 473.5C708.8 476 713.8 480.2 736.8 503.3C757 523.6 757 523.6 757 528C757 532.2 756.6 532.9 750 539.2C740.5 548.3 729.6 556 727 555.3C725.5 554.9 725.1 555.2 725.5 556.2C725.9 557.1 724.7 558.3 722.3 559.7C706 568.6 703.2 569.9 701.2 569.3C699.6 568.9 699.1 569.1 699.5 570.2C700.2 571.9 694.9 574.1 692 573.3C690.6 572.9 690 573.3 690 574.5C690 575.7 689.5 576 688 575.5C685.5 574.7 679 577 679 578.6C679 580 675 581.2 669.2 581.5C666.8 581.6 664.5 582.2 664.1 582.8C663 584.6 657.8 586.1 655 585.5C653.1 585.1 652.1 585.4 651.7 586.3C651.4 587.1 649.4 588 647.3 588.4C645.2 588.7 641.3 589.4 638.5 590C625.5 592.5 616.7 593.5 607.3 593.4C601.6 593.4 597 593.8 597 594.2C597 594.6 590.7 595 583 595C575.3 595 569 594.6 569 594.2ZM682.1 327.1C684.3 324.9 685 323.2 685 320.3C685 312.8 681 302.9 673.4 291.5C671.2 288.3 669 285 668.5 284.1C666.7 281.4 659.1 274.3 658.5 274.8C658.2 275.1 658 274.6 658 273.7C658 272.7 657.7 272.1 657.3 272.2C656.1 272.6 649 268 649 266.9C649 266.3 648.6 266.1 648 266.5C647.5 266.8 646.2 266.2 645.1 265.1C644 264 642.9 263.4 642.6 263.7C642.3 264.1 642 263.8 642 263.1C642 262.4 641.6 262.2 641 262.5C640.5 262.8 640 262.6 640 262C640 261.4 639.6 261.2 639 261.5C638.5 261.8 638 261.6 638 261C638 260.4 637.6 260.1 637.2 260.4C636.3 260.9 621.9 256.2 621 255.1C620.7 254.8 619.4 254.4 618 254.4C613.2 254.1 599.5 251.8 599 251.2C598.2 250.2 563 250.4 563 251.4C563 251.9 561.2 252 559.1 251.6C556.4 251.2 555 251.4 554.8 252.2C554.5 253 552.5 253.4 549.9 253.4C547.5 253.4 545.1 253.9 544.5 254.5C544 255.2 541.5 256.2 539 257C536.5 257.7 530.7 259.9 526 261.9C504 271.5 484.4 289.7 474.7 309.7C470.3 319 470.2 322.8 474.5 327.4L476.9 330H679.2L682.1 327.1Z" fill="#21DAC6"/>
<path d="M192 583C192 582.4 191.6 582.1 191.1 582.4C189.7 583.3 185 578.3 185 575.8C185 574.5 184.9 468.9 184.7 341L184.5 108.5L181.9 104.8C180.5 102.7 179 101.3 178.7 101.7C178.3 102 178 101.9 178 101.4C178 100.9 144.2 100.6 93.5001 100.8C34.0001 100.9 9.00011 100.7 9.00011 100C9.00011 99.4001 8.50011 99.2001 7.90011 99.6001C7.30011 99.9001 6.40011 99.6001 5.90011 98.9001C5.50011 98.1001 4.50011 97.5001 3.90011 97.5001C1.20011 97.5001 0.200112 90.5001 0.100112 71.4001C0.000112318 49.7001 1.40011 41.7001 7.20011 30.7001C11.4001 22.8001 22.7001 11.4001 30.5001 7.30009C43.6001 0.500092 24.9001 1.00009 260.9 1.20009L474.2 1.50009L476.6 4.30009C479 7.10009 479 7.30009 479 28.8001C479 44.6001 478.6 52.2001 477.5 56.9001C473.1 75.3001 457 92.5001 438.7 98.2001C431.5 100.5 431.2 100.5 365.8 100.5C316.7 100.5 300 100.8 300 101.7C300 102.3 299.2 102.6 298.3 102.4C297 102 296.4 102.6 296.1 104.2C295.9 105.5 295.5 203.3 295.1 321.5C294.4 558.7 295 539.2 288.2 552.7C285 558.9 275.3 570.2 269.8 574.1C268.2 575.3 265.7 576.3 264.2 576.5C260.6 576.9 249.7 581.1 248.8 582.5C247.8 584 192 584.5 192 583Z" fill="#21DAC6"/>
<path d="M1255 582.9C1255 582.4 1254.6 582.2 1254 582.5C1253.5 582.8 1251.9 581.9 1250.5 580.4L1248 577.7V6.80005L1254 0.800049L1276.3 1.30005C1295.5 1.70005 1299.4 2.00005 1305.1 3.90005C1317 7.70005 1330.7 18.2001 1337.9 29C1342.1 35.2001 1346 43.2 1346 45.6C1346 46.4 1346.6 48.1 1347.3 49.3C1348.2 51 1348.6 69.2 1349 127.2L1349.5 202.8L1351.8 205.3C1356.4 210.2 1363.9 209.4 1370.4 203.2C1384 190.3 1405.2 178 1423.1 172.6C1443.4 166.5 1451.4 165.5 1479.5 165.5C1507.5 165.6 1517.5 166.6 1538 171.7C1558.5 176.7 1573.2 183.4 1588.6 194.9C1611.4 211.9 1629.2 239.3 1636 268C1637.1 272.7 1638.4 277.9 1638.9 279.5C1639.8 282.3 1640.6 287.2 1643 303.5C1643.5 306.8 1644.2 314.8 1644.6 321.4C1645.1 330.8 1644.9 333.4 1643.9 334.1C1642.8 334.8 1642.9 335 1644.3 335C1645.9 335 1646 341.4 1646 455.3V575.6L1638.8 584H1611.9C1595.1 584 1585 583.6 1585 583C1585 582.5 1583.7 582.3 1582 582.7C1580 583 1579 582.8 1579 582.1C1579 581.4 1578.6 581.2 1578 581.5C1577.5 581.8 1577 581.7 1577 581.2C1577 580.1 1571 577.7 1570.2 578.5C1569.9 578.7 1569.2 578.3 1568.6 577.4C1568 576.6 1566.6 575.8 1565.6 575.6C1564.7 575.5 1563.4 574.7 1562.9 573.9C1562.4 573.1 1562 572.9 1562 573.4C1562 575.3 1554.8 567.4 1551.6 562C1549.7 559 1547.3 553.8 1546.2 550.5C1544.1 544.6 1544.1 542.6 1543.7 443L1543.3 341.5L1540.6 331.5C1535.1 310.7 1531 301.5 1522.8 290.5C1516 281.5 1507.7 274.9 1496.5 269.5C1473.1 258 1444.2 255.9 1421.3 264C1416.4 265.7 1411.6 267.2 1410.5 267.3C1409.4 267.4 1407.6 268.3 1406.5 269.3C1405.4 270.3 1401.1 273.3 1397 275.9C1383.9 284.2 1373.2 295.4 1365.8 308.5C1361.4 316.3 1354.6 333 1353.1 340C1352.4 343 1351.3 347.1 1350.7 349C1350 351.4 1349.5 384.1 1349.1 449.5C1348.5 545.5 1348.5 546.6 1346.4 552.2C1343.5 559.6 1339.6 565.2 1332.3 572.2C1327.7 576.6 1325.8 577.8 1324.1 577.3C1322.4 576.9 1322.1 577.1 1322.7 578.6C1323.2 579.9 1323 580.2 1321.7 579.7C1319.5 578.9 1312.8 580.9 1311.3 582.9C1310.5 583.9 1310.1 584.1 1310 583.3C1310 581.8 1306 581.5 1306 583C1306 583.6 1296.8 584 1280.5 584C1263.2 584 1255 583.7 1255 582.9Z" fill="#21DAC6"/>
<path d="M2340.5 777.3C2336.4 776.8 2332 775 2332 773.8C2332 773.3 2331.6 773.1 2331.1 773.4C2330.6 773.7 2329.9 773.3 2329.6 772.4C2329.3 771.5 2328.4 771 2327.7 771.3C2326.9 771.6 2325.8 770.9 2325.1 769.9C2324.5 768.8 2323.6 768.1 2323.1 768.4C2321.9 769.2 2308.4 754.9 2307 751.3C2306.3 749.5 2305.4 748 2304.9 748C2304.4 748 2304 747.2 2304 746.2C2304 745.1 2303.1 743.5 2302 742.5C2299.1 739.9 2299.5 739.2 2304.1 739.2C2306.4 739.1 2308.5 738.8 2308.9 738.5C2309.2 738.1 2309.6 733.9 2309.6 729.2C2310.3 689.3 2310.2 683.8 2309.1 682.7C2307.7 681.3 2307.7 677.2 2309 673.3C2310 670.5 2310.5 670.3 2319.8 668.7C2325.5 667.7 2338.4 666.8 2351 666.5C2370.9 665.9 2388.6 664.4 2402 662.1C2410.2 660.7 2430.1 656.1 2433 655C2434.4 654.5 2436.4 653.9 2437.5 653.7C2438.6 653.6 2440 653.2 2440.5 652.9C2441.1 652.6 2445.3 651.1 2450 649.5C2462.7 645.4 2473.9 640.6 2489.1 632.8C2498.9 627.8 2503.4 626 2504.9 626.5C2510.5 628.3 2509.2 629.7 2438.3 701.1C2400.5 739.1 2367.7 771.2 2365.5 772.5C2361.2 775.1 2350.2 778.1 2346 777.8C2344.6 777.8 2342.2 777.5 2340.5 777.3Z" fill="#2BC8B7"/>
<path d="M2310.3 666.3C2311.2 666.1 2312.8 666.1 2313.8 666.3C2314.7 666.6 2313.9 666.8 2312 666.8C2310.1 666.8 2309.3 666.6 2310.3 666.3Z" fill="#2BC8B7"/>
<path d="M1543 346.1C1543 341.9 1540.2 329 1536.8 318.2C1532.1 302.6 1522.4 287.5 1511.5 278.7C1488.7 260.3 1449.8 253.9 1421.3 264C1416.4 265.7 1411.4 267.2 1410.1 267.3C1408.8 267.4 1407.5 268 1407.3 268.7C1407 269.4 1406.2 269.6 1405.4 269.3C1404.6 269 1404 269.4 1404 270.3C1404 272 1400.6 273.5 1397.8 273.1C1396.6 273 1396.2 273.4 1396.6 274.3C1396.9 275.1 1395.6 276.7 1393.2 278.3C1387.6 282 1377.8 291.2 1373.4 297C1371.1 300 1368.8 302 1367.5 302.1C1366.4 302.1 1366.1 302.4 1366.8 302.7C1368.8 303.5 1368.2 304.7 1365.5 305.2C1363.6 305.6 1363 305.3 1363 304.1C1363 303.1 1363.5 301.9 1364.1 301.3C1365.2 300.2 1364.6 297.4 1361.9 290.2C1361.4 288.9 1361 274.5 1361 258C1361 239.2 1360.6 227.9 1360 227.5C1358.6 226.6 1358.8 223 1360.5 216.4C1362.2 210 1363.5 208 1366.1 208C1367.1 208 1368.7 206.6 1369.7 205C1375.1 195.8 1403.8 178.4 1423.1 172.6C1443.2 166.5 1451.4 165.5 1479 165.5C1495.1 165.5 1507.6 166 1513 166.8C1526.3 168.9 1541.4 172.1 1542.8 173.3C1543.8 174.1 1544 192.2 1544 262.1C1543.9 310.5 1543.7 350 1543.4 350C1543.2 350 1543 348.2 1543 346.1Z" fill="#2BC8B7"/>
<path d="M1349.2 340.8C1349.5 340.1 1350.5 339.3 1351.4 339.2C1352.6 338.9 1353.1 339.3 1352.8 340.2C1352.5 340.9 1351.5 341.7 1350.6 341.8C1349.4 342.1 1348.9 341.7 1349.2 340.8Z" fill="#2BC8B7"/>
<path d="M1346 64.5C1346 63.7 1346.7 63 1347.5 63C1348.3 63 1349 63.7 1349 64.5C1349 65.3 1348.3 66 1347.5 66C1346.7 66 1346 65.3 1346 64.5Z" fill="#2BC8B7"/>
<path d="M2355 773.2C2355 772.8 2356.4 771.6 2358.2 770.6C2360.8 769 2361.1 768.5 2359.8 767.6C2357.4 765.8 2355.7 759.3 2356.5 754.6C2356.8 752.4 2357 735.2 2356.9 716.5C2356.5 669.7 2356.3 673.1 2359.9 669.8C2363.3 666.7 2363.6 666.6 2380 664.9C2397.6 663.2 2425.5 657.9 2433 655C2434.4 654.5 2436.4 653.9 2437.5 653.7C2438.6 653.6 2440 653.2 2440.5 652.9C2441.1 652.6 2445.3 651.1 2450 649.5C2462.7 645.4 2473.9 640.6 2489.1 632.8C2498.9 627.8 2503.4 626 2504.9 626.5C2510.5 628.3 2509.2 629.8 2440 699.4C2385 754.6 2372.5 766.7 2370.7 766.4C2369.5 766.2 2369.1 766.2 2369.8 766.6C2371.6 767.4 2371.3 769 2369.5 768.3C2368.6 768 2365.3 769.2 2362.1 770.9C2355.9 774.2 2355 774.5 2355 773.2Z" fill="#2EBAAB"/>
<path d="M1543 346.1C1543 341.9 1540.2 329 1536.8 318.2C1532.1 302.6 1522.4 287.5 1511.5 278.7C1493.6 264.2 1463.4 256.5 1438.5 260C1433.6 260.7 1427.8 261.3 1425.8 261.3C1423.3 261.2 1422 261.7 1422 262.5C1422 263.4 1420.7 263.8 1418.2 263.7C1416.2 263.6 1412.8 263.9 1410.8 264.3C1408.3 264.8 1407 264.7 1407 264C1407 263.5 1408 263 1409.3 262.9C1411.4 262.8 1411.3 262.7 1408.8 261.7C1407.4 261.1 1406.1 260 1406 259.1V231C1406.1 216.4 1405.6 201.4 1405.1 197.7C1404.2 191.4 1405 185.7 1406.9 184C1407.2 183.7 1408.2 182.6 1409 181.6C1410.4 179.8 1410.3 179.7 1408.7 180.3C1405.1 181.6 1408.2 178.9 1412.8 176.6C1419 173.6 1429 170.6 1442.5 167.8C1452.3 165.8 1456.3 165.5 1479 165.5C1495.1 165.5 1507.6 166 1513 166.8C1526.3 168.9 1541.4 172.1 1542.8 173.3C1543.8 174.1 1544 192.2 1544 262.1C1543.9 310.5 1543.7 350 1543.4 350C1543.2 350 1543 348.2 1543 346.1Z" fill="#2EBAAB"/>
<path d="M2389.5 743.3C2392.4 739 2392.6 738 2390.5 738C2389.7 738 2389 737.3 2389 736.5C2389 734.5 2391.4 734.6 2393 736.5C2394.1 737.8 2394.5 737.8 2395.1 736.8C2396.4 734.8 2396.2 734 2394.1 734C2390.7 734 2389.6 726 2390.3 704.5C2390.6 694.1 2390.6 684.2 2390.3 682.7C2389.7 679.7 2388 679 2387.9 681.8C2387.9 683 2387.6 682.8 2386.9 681.1C2385.8 678.2 2386.5 675.6 2388.1 676.6C2389 677.1 2389.1 676.3 2388.7 673.5C2388.3 671.3 2388.5 669.1 2389.1 668.4C2389.8 667.6 2389.8 667 2389 666.5C2386.7 665.1 2388.4 664.3 2396.3 663.1C2406.1 661.5 2429.5 656.4 2433 655C2434.4 654.5 2436.4 653.9 2437.5 653.7C2438.6 653.6 2440 653.2 2440.5 652.9C2441.1 652.6 2445.3 651.1 2450 649.5C2462.7 645.4 2473.9 640.6 2489.1 632.8C2503.6 625.4 2507 624.8 2507 629.5C2507 632.6 2398.6 742.2 2396.4 741.3C2395.6 741 2393.4 742.2 2391.5 743.9C2386.8 748 2386.4 747.8 2389.5 743.3Z" fill="#32ACA0"/>
<path d="M1543 346.1C1543 341.9 1540.2 329 1536.8 318.2C1533.9 308.4 1528.8 298.5 1522.8 290.5C1508.7 272 1484.5 260.7 1455.5 259.3C1448.4 259 1441.7 258.3 1440.7 257.8C1439.4 257.2 1438.8 257.4 1438.3 258.6C1437.8 259.9 1436.9 260.1 1433.9 259.6C1431.6 259.2 1430 259.4 1430 260C1430 260.5 1429.3 260.7 1428.5 260.4C1427.7 260 1427.3 259.4 1427.6 258.8C1427.9 258.3 1428.4 258.1 1428.7 258.4C1429 258.7 1429.9 258.3 1430.7 257.5C1431.5 256.7 1433.3 256 1434.8 256C1436.3 256 1438.2 255.5 1439 255C1440.2 254.3 1439.8 253.9 1437.3 253.4L1434 252.8L1434.2 228.6L1434.4 204.5L1435.6 251.5L1435.9 227.5C1436.9 169.8 1437 172.9 1434.2 175.2C1432.9 176.3 1432.7 176.2 1433.2 174.2C1433.8 172.1 1432.6 171.4 1429.5 172C1428.8 172.1 1428.8 171.8 1429.5 171.2C1430.1 170.7 1435.7 169.2 1442 167.9C1452.3 165.7 1456.1 165.5 1479 165.5C1495.1 165.5 1507.6 166 1513 166.8C1526.3 168.9 1541.4 172.1 1542.8 173.3C1543.8 174.1 1544 192.2 1544 262.1C1543.9 310.5 1543.7 350 1543.4 350C1543.2 350 1543 348.2 1543 346.1Z" fill="#32ACA0"/>
<path d="M2429.5 704C2430 703.2 2431.1 701.4 2432.1 700L2433.8 697.5H2427.5L2427.2 686C2427 678.3 2426.6 675 2426 676C2425.3 677 2425 675.1 2425 670C2425 663 2425.2 662.3 2428.1 659.2C2429.8 657.4 2431.6 656.2 2432.1 656.5C2432.6 656.9 2433.3 656.4 2433.6 655.5C2434 654.6 2434.8 654.1 2435.4 654.3C2436 654.5 2437.6 654.3 2439 653.7C2440.4 653.2 2442 652.6 2442.5 652.4C2454.5 648.8 2473.1 641 2489.1 632.8C2503.8 625.3 2507.4 624.6 2506.8 629.6C2506.4 633 2448.5 692.1 2446.4 691.3C2445.4 691 2443.2 692.3 2440.7 694.6C2432.2 702.6 2428.7 705.5 2429.5 704Z" fill="#35A097"/>
<path d="M1543 345.6C1543 338.8 1536.8 316.1 1532.3 306.1C1528.8 298.5 1520.7 286.9 1515.5 282.1C1513.2 279.9 1507.9 276 1503.9 273.3C1499.8 270.7 1496.3 268.2 1496.2 267.7C1496 267.3 1495.4 267.2 1494.9 267.6C1494.4 267.9 1494 267.6 1494 267C1494 266.4 1493.6 266.2 1493 266.5C1492.5 266.8 1492 266.6 1492 266C1492 265.4 1491.6 265.2 1491 265.5C1490.4 265.8 1490 265.6 1490 265C1490 264.3 1489.4 264 1488.6 264.3C1486.7 265 1480 263.2 1480 262C1480 261.5 1479.3 261.3 1478.5 261.6C1476.6 262.4 1467 260.1 1467 258.9C1467 258.4 1467.6 257.8 1468.3 257.6C1473.4 256 1473.4 256.1 1471.7 254.2C1470.4 252.8 1470.3 251.5 1471.1 247.3C1471.7 244.3 1471.9 229.1 1471.6 211.8C1471 171.8 1470.8 168.4 1469.3 168.8C1467.5 169.1 1467.7 167.5 1469.5 166C1471.5 164.3 1503.3 165.3 1517 167.5C1529.9 169.5 1541.2 172.1 1542.8 173.3C1543.8 174.1 1544 192.1 1544 261.6C1543.9 309.7 1543.7 349 1543.4 349C1543.2 349 1543 347.5 1543 345.6Z" fill="#35A097"/>
<path d="M1458 258.1C1458 257.6 1458.7 256.9 1459.6 256.6C1461.8 255.7 1462 255.8 1462 257.5C1462 258.3 1461.1 259 1460 259C1458.9 259 1458 258.6 1458 258.1Z" fill="#35A097"/>
<path d="M2451.6 687.2C2452.9 685.5 2453.1 684.7 2452.2 684.1C2451.3 683.6 2451.8 682.1 2453.9 678.8L2456.9 674.1L2453.7 673.8C2450 673.4 2449.2 671.6 2449.1 662.1C2449 656.7 2449.4 655.2 2451.3 653.2C2452.5 651.8 2452.9 651 2452.3 651.4C2451.6 651.8 2451 651.6 2451 651.1C2451 650.5 2451.6 650 2452.4 650C2453.2 650 2454.5 649.4 2455.2 648.8C2455.9 648.1 2460.3 646 2465 644.1C2469.7 642.3 2480.1 637.4 2488.2 633.3C2498.6 627.9 2503.4 626 2504.9 626.5C2509.8 628 2507.5 631 2478.4 660.5C2462.6 676.5 2450.5 688.5 2451.6 687.2Z" fill="#39918A"/>
<path d="M1543 344.6C1543 341.6 1539.7 327.3 1536.8 318.2C1532.2 303.3 1523.2 288.6 1513.9 280.8C1511 278.5 1507.4 275.3 1505.9 273.9C1504.3 272.4 1502.8 271.5 1502.5 271.8C1502.2 272.1 1502 271.8 1502 271.1C1502 270.4 1501.6 270.1 1501.1 270.5C1500.5 270.8 1499.7 270.2 1499.1 269.3C1498.5 268.3 1498 267.8 1498 268.2C1498 269.4 1493 264 1493 262.7C1493 262 1492.5 260.9 1491.9 260.3C1491.2 259.6 1490.9 245.2 1491 215.4C1491.1 191.3 1491.2 170.3 1491.3 168.8C1491.5 166 1491.5 166 1499.1 166C1510.8 166 1539.7 170.8 1542.8 173.3C1543.8 174.1 1544 191.8 1544 260.6C1543.9 308.1 1543.7 347 1543.4 347C1543.2 347 1543 345.9 1543 344.6Z" fill="#39918A"/>
<path d="M2484 652C2482.7 651.2 2482.7 650.7 2483.8 648.9C2484.9 647.1 2485 646.6 2483.9 645.9C2483.1 645.4 2482.3 645.6 2481.8 646.3C2480.7 648.1 2479.7 644.4 2480.4 641.4C2481 639.3 2480.8 638.9 2479.6 639.3C2478.7 639.7 2478 639.6 2478 639.2C2478 638.4 2498.2 628 2499.9 628C2500.5 628 2501 628.5 2501 629.1C2501 629.6 2501.5 629.8 2502.1 629.4C2502.9 628.9 2502.9 628.5 2502 628C2500.2 626.9 2502.5 625.7 2505 626.5C2509.7 628 2505.9 633.8 2491 647.7C2486.9 651.5 2485 652.6 2484 652Z" fill="#3C8782"/>
<path d="M1541.7 336.8C1537 315.3 1531.6 302.2 1522.7 290.4C1517.6 283.7 1514.8 278.1 1517.2 279.6C1517.9 280.1 1518 279.3 1517.5 277.4C1517.1 275.8 1516.9 271.6 1517.1 268C1517.3 264.4 1517.4 259.3 1517.4 256.5C1517 175.9 1516.9 169.1 1515.2 168.7C1514.3 168.4 1515.4 168.2 1517.7 168.1C1522.6 168 1540.9 171.7 1542.8 173.3C1543.8 174.1 1544 191.6 1544 259.6C1543.9 306.6 1543.8 345 1543.7 345C1543.6 345 1542.7 341.3 1541.7 336.8Z" fill="#3C8782"/>
<path d="M2496 636.4C2496 636.3 2496.7 635.4 2497.6 634.6C2498.9 633.2 2499.3 633.2 2500.6 634.4C2502.5 636.4 2502.4 636.5 2499 636.6C2497.3 636.7 2496 636.6 2496 636.4Z" fill="#3C7F7D"/>
<path d="M1541.7 336.8C1540 329.1 1535.7 313.5 1534.3 310C1534 309.2 1533.6 308.1 1533.5 307.5C1533.5 307 1532.9 305.2 1532.2 303.7C1531.5 302.1 1531 299.8 1531 298.5C1531 297.2 1530.4 295.9 1529.8 295.7C1529.1 295.4 1529 295.1 1529.6 295.1C1530.2 295 1530.5 293.7 1530.2 292C1530 290.3 1530.3 286.8 1531.1 284.2C1532 280.7 1532.4 266.8 1532.5 230.9C1532.6 204.1 1533 181.8 1533.4 181.2C1534.4 179.6 1533 174.7 1531.1 173.2C1529.7 172.1 1529.7 171.8 1531 171C1531.9 170.4 1532.7 170.5 1533.1 171.2C1533.5 171.7 1535.5 172.2 1537.6 172.2C1542.2 172.2 1543.8 172.9 1541.9 174.1C1540.8 174.8 1540.9 175 1542.3 175C1544 175 1544 179.2 1544 260C1543.9 306.8 1543.8 345 1543.7 345C1543.6 345 1542.7 341.3 1541.7 336.8Z" fill="#3C7F7D"/>
</svg>
