<svg width="500" height="500" viewBox="0 0 500 500" fill="none" xmlns="http://www.w3.org/2000/svg">
<path d="M17.3841 302.643H157.718C161.99 302.643 163.559 304.657 163.559 308.463V328.986C163.431 330.193 163.575 331.413 163.98 332.557C164.385 333.702 165.042 334.741 165.901 335.599C166.76 336.458 167.801 337.113 168.946 337.518C170.092 337.923 171.314 338.067 172.522 337.939H330.573C331.79 338.089 333.024 337.961 334.183 337.565C335.343 337.17 336.397 336.516 337.267 335.654C338.137 334.792 338.8 333.744 339.205 332.589C339.61 331.433 339.748 330.202 339.607 328.986V308.519C339.607 304.35 341.33 302.629 345.433 302.629H433.359C436.095 302.908 438.85 302.344 441.254 301.01C443.659 299.677 445.596 297.639 446.804 295.172L490.361 210.114C491.382 208.639 491.951 206.899 492 205.106C491.846 203.02 490.87 201.081 489.288 199.712C487.705 198.343 485.643 197.657 483.555 197.803H345.447C341.862 197.803 339.621 196.824 339.621 191.984V171.083C339.765 169.862 339.63 168.624 339.227 167.463C338.823 166.302 338.16 165.247 337.289 164.378C336.418 163.51 335.361 162.85 334.198 162.448C333.035 162.046 331.796 161.913 330.573 162.06H172.522C171.303 161.911 170.066 162.042 168.906 162.444C167.746 162.846 166.693 163.507 165.828 164.378C164.963 165.249 164.309 166.306 163.915 167.468C163.522 168.63 163.4 169.867 163.559 171.083V191.536C163.559 195.929 161.458 197.356 157.732 197.356H67.2014C64.5249 197.152 61.8488 197.754 59.5175 199.083C57.1862 200.412 55.3065 202.407 54.1203 204.812L9.90519 291.129C9.32751 292.291 9.02104 293.568 9.00884 294.865C8.95594 295.949 9.14093 297.033 9.55089 298.039C9.96085 299.045 10.5859 299.949 11.3822 300.689C12.1786 301.428 13.1271 301.985 14.1614 302.32C15.1957 302.655 16.2908 302.761 17.3701 302.629L17.3841 302.643ZM52.1175 268.396L73.4058 227.658C74.2181 226.091 75.4926 225.195 78.6298 225.195H185.001C185.815 225.322 186.647 225.256 187.43 225C188.213 224.745 188.924 224.308 189.506 223.725C190.088 223.143 190.524 222.431 190.777 221.649C191.031 220.866 191.096 220.034 190.967 219.222V195.355C190.967 191.018 192.76 189.382 196.794 189.382H306.302C310.252 189.382 312.198 191.172 312.198 195.425V218.998C312.198 222.957 314.075 224.818 318.179 224.818H443.961C444.631 224.733 445.312 224.79 445.958 224.987C446.604 225.184 447.2 225.516 447.709 225.96C448.217 226.404 448.625 226.951 448.906 227.564C449.187 228.178 449.335 228.844 449.339 229.518C449.356 230.295 449.12 231.055 448.667 231.687L427.757 272.873C427.185 273.723 426.381 274.392 425.441 274.801C424.5 275.21 423.462 275.342 422.449 275.181H317.885C313.543 275.181 311.974 277.195 311.974 281.155V304.797C311.974 308.686 310.336 310.547 306.078 310.547H196.654C192.984 310.547 190.743 309.288 190.743 304.727V281.085C190.743 276.832 188.726 275.181 184.847 275.181H57.1175C56.4595 275.257 55.7928 275.195 55.1601 274.999C54.5274 274.803 53.9426 274.478 53.4431 274.043C52.9435 273.609 52.5402 273.075 52.2589 272.476C51.9776 271.877 51.8245 271.226 51.8094 270.564C51.8094 269.809 51.9915 269.067 52.3276 268.396H52.1175V268.396Z" fill="white"/>
</svg>
