<svg width="500" height="500" viewBox="0 0 500 500" fill="none" xmlns="http://www.w3.org/2000/svg">
<path d="M248.655 294.752C269.769 294.752 286.667 283.505 286.667 271.156C286.667 258.807 269.769 248.511 248.668 248.511C227.581 248.511 210.298 258.518 210.298 271.156C210.298 283.809 227.87 294.752 248.668 294.752H248.655ZM248.655 250.648C267.344 250.648 282.477 260.213 282.477 271.459C282.477 280.639 273.077 288.44 259.984 291.375C256.321 292.207 252.576 292.623 248.82 292.616C230.145 292.616 215.37 283.064 215.37 271.459C215.37 259.841 229.993 250.358 248.668 250.358V250.648H248.655Z" fill="white"/>
<path d="M231.385 286.675C227.557 282.489 225.435 277.022 225.435 271.349C225.435 265.677 227.557 260.21 231.385 256.023C227.974 256.997 224.924 258.95 222.611 261.639C220.299 264.329 218.826 267.638 218.374 271.156C218.804 274.726 220.263 278.094 222.573 280.85C224.883 283.605 227.945 285.629 231.385 286.675V286.675ZM266.296 286.675C269.74 285.633 272.805 283.61 275.118 280.854C277.431 278.098 278.892 274.729 279.321 271.156C278.894 267.612 277.432 264.272 275.118 261.554C272.804 258.835 269.741 256.859 266.31 255.871C270.138 260.058 272.26 265.525 272.26 271.198C272.26 276.87 270.138 282.337 266.31 286.524V286.662L266.296 286.675Z" fill="white"/>
<path d="M229.69 272.342C229.654 272.635 229.654 272.931 229.69 273.224C229.654 273.613 229.654 274.005 229.69 274.395V275.057C229.77 275.558 229.895 276.052 230.062 276.531C231.291 280.36 233.72 283.692 236.988 286.035C240.257 288.378 244.192 289.608 248.213 289.542C251.177 289.542 254.112 288.922 256.814 287.695L254.981 285.27C252.913 285.931 251.811 287.406 249.399 287.406C246.959 287.406 245.87 285.931 243.362 285.27C240.867 284.608 239.544 284.539 237.408 282.789C236.401 281.007 235.565 279.133 234.913 277.193C233.723 275.532 233.008 273.579 232.846 271.542C233.051 269.417 233.759 267.371 234.913 265.574C235.234 263.504 236.094 261.555 237.408 259.923C239.282 258.848 241.281 257.994 243.362 257.415C245.023 256.226 246.977 255.511 249.013 255.348C251.136 255.564 253.179 256.272 254.981 257.415C257.048 257.732 259.005 258.6 260.632 259.91C262.396 261.674 262.396 263.08 263.429 265.574C264.67 267.187 265.414 269.13 265.566 271.156C265.542 272.951 264.922 274.688 263.802 276.09L265.924 276.821L264.684 282.334C267.109 279.123 268.405 275.195 268.35 271.17C268.35 266.082 266.328 261.202 262.731 257.604C259.133 254.006 254.253 251.985 249.164 251.985C244.076 251.985 239.196 254.006 235.598 257.604C232 261.202 229.979 266.082 229.979 271.17C229.621 271.597 229.703 271.969 229.703 272.342H229.69Z" fill="white"/>
<path d="M260.645 282.472C259.395 283.637 257.798 284.363 256.097 284.539L258.22 287.475L259.253 288.798L259.901 286.524L261.307 281.383C261.233 281.821 260.997 282.214 260.645 282.486V282.472ZM262.423 278.585H263.085L261.321 284.911L262.272 285.49V283.657L263.664 277.041H262.561C262.561 277.041 262.782 277.924 262.423 278.585V278.585ZM249.027 285.642C251.094 285.642 252.197 284.539 253.947 283.878H254.388C254.388 283.505 254.388 283.506 255.05 283.506C256.207 283.189 257.338 282.775 258.44 282.265C258.77 282.036 259.067 281.762 259.322 281.452C259.868 281.088 260.298 280.577 260.563 279.977L261.087 278.654C261.049 278.538 261.049 278.412 261.087 278.296V277.855C261.04 277.535 261.04 277.21 261.087 276.89V275.87C262.044 274.628 262.653 273.153 262.851 271.597C262.699 270.609 262.347 269.661 261.817 268.813L258.881 270.426V271.597C258.864 273.204 258.488 274.786 257.779 276.228C257.821 276.113 257.821 275.986 257.779 275.87H256.015C256.015 275.87 255.27 276.6 255.27 276.973L257.034 276.6C257.103 276.642 257.172 276.656 257.255 276.656C257.332 276.657 257.408 276.638 257.475 276.6C256.992 277.536 256.348 278.381 255.573 279.095L254.981 277.924C254.981 277.924 254.319 278.296 253.947 278.654H256.304L255.339 279.536L253.589 278.806H252.555L254.319 279.536C254.595 279.633 254.912 279.633 255.201 279.536C253.275 280.865 250.995 281.585 248.655 281.604H247.552H248.296L247.042 280.349H246.67C247.256 280.421 247.848 280.421 248.434 280.349C249.645 280.364 250.847 280.136 251.97 279.68C253.092 279.223 254.111 278.546 254.967 277.69C255.824 276.833 256.501 275.814 256.957 274.692C257.414 273.57 257.642 272.368 257.627 271.156L256.235 271.969C256.234 272.966 256.031 273.951 255.638 274.867C255.246 275.783 254.671 276.609 253.949 277.296C253.228 277.982 252.374 278.516 251.44 278.863C250.506 279.21 249.512 279.364 248.517 279.316C247.43 279.294 246.376 278.938 245.498 278.296L243.734 279.247L244.837 279.839H244.244L244.988 281.604C245.231 281.636 245.477 281.636 245.719 281.604C244.584 281.335 243.509 280.859 242.549 280.198V279.467H241.97L238.662 281.383C240.054 282.775 241.46 282.775 243.21 283.506C244.988 284.25 246.518 285.642 249.027 285.642V285.642ZM245.498 279.991H246.822H246.312L247.042 281.369C247.123 281.403 247.209 281.42 247.297 281.42C247.385 281.42 247.471 281.403 247.552 281.369H246.008L245.498 279.991V279.991ZM240.936 264.1L242.714 264.472C242.877 264.44 243.026 264.36 243.142 264.242C243.257 264.124 243.334 263.973 243.362 263.81H241.598C241.474 263.792 241.347 263.809 241.232 263.861C241.117 263.912 241.019 263.995 240.95 264.1H240.936ZM238.814 266.966H240.578C240.936 266.966 241.226 266.236 240.936 265.864H239.462C239.34 265.878 239.223 265.921 239.12 265.988C239.018 266.055 238.932 266.144 238.869 266.25C238.806 266.357 238.769 266.478 238.759 266.602C238.75 266.726 238.769 266.85 238.814 266.966V266.966ZM237.863 272.19L239.696 271.308C239.8 271.047 239.8 270.756 239.696 270.495L238.593 271.528C238.593 271.528 237.78 271.818 237.863 272.19V272.19Z" fill="white"/>
<path d="M244.409 281.011V279.247L243.665 279.688V280.721C243.376 280.721 244.106 281.011 244.409 281.011ZM247.924 280.721L249.027 281.741H250.06L249.027 280.349C248.668 280.349 247.924 280.349 247.924 280.721V280.721ZM251.824 281.369L250.432 280.349C250.06 280.349 249.702 280.349 249.399 280.721L250.805 281.741C250.991 281.762 251.179 281.741 251.356 281.679C251.532 281.617 251.693 281.516 251.824 281.383V281.369ZM253.589 280.721L252.183 279.991C252.114 279.912 252.03 279.849 251.934 279.805C251.839 279.762 251.736 279.74 251.632 279.74C251.527 279.74 251.424 279.762 251.329 279.805C251.234 279.849 251.149 279.912 251.08 279.991L252.555 280.653C252.555 280.653 253.589 281.011 253.589 280.721V280.721ZM257.117 277.924C257.297 277.911 257.468 277.84 257.602 277.72C257.737 277.6 257.828 277.439 257.861 277.262H256.097C255.912 277.258 255.733 277.324 255.595 277.446C255.457 277.569 255.37 277.74 255.353 277.924H257.117ZM257.475 275.429L258.881 274.685C258.881 274.685 259.543 274.326 259.543 273.665L257.847 274.326C257.489 274.685 257.117 275.057 257.489 275.429H257.475ZM259.543 271.901L258.164 272.92V274.023L259.846 272.92C259.846 272.92 259.915 272.259 259.543 271.901ZM259.612 270.123L258.22 271.156C258.081 271.307 258.004 271.503 258.004 271.708C258.004 271.912 258.081 272.109 258.22 272.259L259.598 271.156C259.598 271.156 259.901 270.564 259.598 270.123H259.612ZM254.994 262.708L258.509 260.723C256.967 259.89 255.308 259.295 253.589 258.959C251.452 258.297 250.419 257.263 248.296 257.263C246.16 257.263 245.126 258.297 243.004 258.959C240.867 259.62 239.475 259.689 238.083 261.095C236.773 262.593 235.904 264.425 235.575 266.388C234.913 268.51 233.521 269.544 233.521 271.68C233.563 272.548 233.797 273.403 234.183 274.175L237.491 272.342C237.455 271.998 237.455 271.652 237.491 271.308L239.186 270.274C239.544 270.274 239.544 269.544 239.186 269.254L237.78 270.274V268.951H239.475V268.51C239.016 269.529 238.768 270.631 238.745 271.749L240.509 270.784C240.726 268.993 241.594 267.343 242.949 266.151C244.304 264.959 246.05 264.307 247.855 264.32C248.948 264.303 250.031 264.529 251.025 264.982L252.858 264.031C252.147 263.627 251.394 263.304 250.612 263.066C250.726 263.066 250.838 263.043 250.942 262.997L249.909 261.605H251.094V263.369C251.255 263.441 251.428 263.478 251.604 263.478C251.78 263.478 251.953 263.441 252.114 263.369V261.605C253.037 261.881 253.919 262.253 254.76 262.708H254.981H254.994ZM242.122 265.202C242.194 264.964 242.194 264.71 242.122 264.472H240.357C240.357 264.472 239.627 264.472 239.627 265.574H241.391C241.508 265.607 241.632 265.607 241.749 265.574C241.068 266.261 240.5 267.052 240.068 267.917V267.49L238.304 268.221C238.984 265.859 240.466 263.807 242.494 262.418L244.258 263.149C244.258 263.149 244.919 263.149 244.919 262.418H243.514C243.426 262.367 243.326 262.341 243.224 262.341C243.123 262.341 243.023 262.367 242.935 262.418C243.472 262.081 244.034 261.786 244.616 261.536V262.198L246.022 262.859H247.042L245.65 261.826H244.988H246.38L247.786 263.149C245.723 263.203 243.735 263.929 242.122 265.216V265.202ZM250.432 262.335C249.819 262.259 249.199 262.259 248.586 262.335H247.345C247.681 262.295 247.993 262.139 248.227 261.894L247.042 260.943H246.16C246.722 260.867 247.293 260.867 247.855 260.943L248.82 262.267C248.956 262.4 249.139 262.474 249.33 262.474C249.52 262.474 249.703 262.4 249.84 262.267L248.806 261.164H248.365H249.55L250.432 262.335V262.335Z" fill="white"/>
<path d="M253.589 263.218H254.402V262.046C254.204 261.84 253.941 261.709 253.658 261.674L253.589 263.218V263.218ZM237.711 281.011L241.239 279.095L241.984 278.654L242.714 278.296L257.42 270.054H257.999L259.253 269.392L262.051 267.848C261.679 267.848 261.307 267.187 261.307 266.829C260.776 265.232 260.064 263.701 259.184 262.267L256.097 264.031L255.353 264.472H254.181L239.475 272.92L238.235 273.665L235.437 275.277C235.809 275.277 235.809 275.939 236.099 276.311C236.691 277.924 237.063 279.619 237.711 280.997V281.011ZM257.117 263.81L258.523 263.08C258.608 263.015 258.708 262.972 258.814 262.955C258.92 262.938 259.028 262.948 259.129 262.983C259.229 263.021 259.319 263.082 259.391 263.161C259.463 263.24 259.515 263.335 259.543 263.438V264.844C259.543 265.574 259.543 265.574 258.881 265.864L259.543 268H259.033V267.559L258.661 266.456V265.864V268.441H258.22V262.859L257.117 263.81V263.81ZM255.504 264.775H256.538V265.133H256.014L255.132 265.574V267.642L256.166 266.966V267.628L255.132 268V270.136L256.538 269.392V270.136L254.402 270.577V264.982H254.912L255.504 264.761V264.775ZM252.569 266.236H253.23V271.528L254.402 270.564V271.239L252.638 272.342L252.569 266.236V266.236ZM249.702 271.887V272.92H251.094V270.798L250.06 271.156C249.995 271.214 249.914 271.25 249.828 271.261C249.742 271.273 249.654 271.258 249.576 271.22C249.498 271.182 249.433 271.121 249.389 271.046C249.345 270.971 249.325 270.885 249.33 270.798V269.392C249.33 268.662 249.33 268.662 250.06 268.29L250.722 267.931C251.094 267.931 251.466 267.931 251.466 268.29V269.034H250.722V267.628H250.06V269.764H251.466V271.156C251.466 271.901 251.466 272.19 250.722 272.562H249.344L249.716 271.901L249.702 271.887ZM247.056 269.406L247.717 271.156L248.448 268.372L249.178 268L248.076 271.901V274.326L247.414 274.685V272.259L246.311 269.764L247.056 269.392V269.406ZM244.189 270.784L245.292 270.136C245.953 270.136 246.311 270.136 246.311 270.798V272.92L247.056 275.057L246.311 275.718L245.65 273.651V276.09H244.919L244.189 270.798V270.784ZM241.019 272.562H241.763V274.988L242.783 274.326V271.818L243.527 271.46V277.11H242.783V274.616L241.763 275.346V277.924H241.171V272.273L241.033 272.548L241.019 272.562ZM237.863 275.043C237.823 274.829 237.823 274.609 237.863 274.395H238.304L238.896 274.023C238.896 274.023 239.627 274.023 239.627 274.767V275.787V274.395L238.814 274.905V279.109L239.696 277.924V277.193H240.22V277.924C240.259 278.091 240.259 278.266 240.22 278.433C240.22 278.433 240.22 279.026 239.558 279.026H237.794L237.863 275.057V275.043Z" fill="white"/>
<path d="M245.87 272.273V271.17H245.498V273.293C245.87 272.562 245.87 272.562 245.87 272.259V272.273ZM258.302 265.657V264.251C258.254 264.201 258.196 264.162 258.132 264.136C258.068 264.11 257.999 264.097 257.93 264.1C257.861 264.099 257.793 264.112 257.729 264.138C257.665 264.164 257.607 264.203 257.558 264.251V265.946L258.288 265.643L258.302 265.657ZM244.768 267.27L244.478 266.236L243.375 268.73L244.478 267.628L244.768 268L247.262 265.505L247.634 266.236L248.668 264.1L247.634 265.202L247.276 264.472L244.768 267.27V267.27ZM250.791 276.821L250.06 276.09L249.026 278.585L250.06 277.193L250.791 277.855L253.216 275.429L253.588 276.09L254.608 274.023L253.588 275.057L253.216 274.326L250.791 276.821Z" fill="white"/>
<path d="M303.289 254.631C295.482 254.403 287.803 252.598 280.713 249.325C270.605 244.914 259.696 242.637 248.668 242.637C237.64 242.637 226.731 244.914 216.624 249.325C209.533 252.594 201.853 254.394 194.048 254.617C138.408 254.617 59.53 251.819 43.2941 250.717H40.4962L41.5299 253.225C44.0246 257.773 50.3508 263.438 78.2743 264.182C87.3984 271.901 108.196 272.92 119.815 272.631C127.533 278.213 144.431 280.721 176.489 280.721C189.294 279.989 201.902 284.136 211.772 292.326C222.282 300.383 235.286 304.495 248.517 303.945C261.6 304.531 274.46 300.409 284.765 292.326C294.789 284.017 307.551 279.742 320.558 280.335C352.313 280.335 369.583 277.855 376.929 272.259C388.92 272.259 409.732 271.528 418.828 263.81C447.069 263.08 453.381 257.415 455.586 252.853L456.992 250.358H454.194C438.165 251.833 358.929 254.631 303.275 254.631H303.289ZM194.048 256.381C213.454 256.381 222.275 244.032 248.668 244.032C275.062 244.032 283.511 256.381 303.289 256.381C356.076 256.381 431.549 253.804 452.058 252.343H451.548C451.039 252.824 450.439 253.198 449.784 253.446C440.963 256.974 411.413 260.792 306.817 260.792C301.558 260.765 296.314 260.225 291.16 259.179C289.396 259.179 289.024 260.571 289.754 262.046C290.471 263.259 291.064 264.527 291.518 265.864C291.16 263.438 293.283 264.1 302.103 264.1C376.722 264.1 392.958 262.708 415.451 260.282C405.969 266.608 351.362 266.966 308.057 266.966H293.944C292.566 266.966 291.89 267.339 292.18 268.731C292.364 270.269 292.364 271.823 292.18 273.361C293.586 271.597 293.283 270.191 302.103 270.191C326.195 270.694 350.296 269.866 374.297 267.711C366.937 271.597 356.283 273.361 306.665 273.361C285.495 273.361 283.07 296.599 248.889 296.599C214.708 296.599 212.131 273.361 191.112 273.361C141.426 273.361 130.538 271.597 123.481 267.711C147.447 269.987 171.521 270.939 195.592 270.564C204.412 270.564 204.054 271.969 205.515 273.734C205.33 272.195 205.33 270.641 205.515 269.103C205.515 267.711 205.515 267.339 203.751 267.339H189.638C146.36 267.339 91.7261 267.338 82.1748 260.654C104.737 263.066 120.987 264.472 195.605 264.472C204.426 264.472 206.549 263.81 206.177 266.236C206.645 264.899 207.238 263.617 207.941 262.418C208.685 260.943 208.313 259.538 206.563 259.538C201.325 260.53 195.991 260.999 190.671 260.943C85.7031 260.943 56.5254 257.498 47.7045 253.583C47.0492 253.337 46.4495 252.962 45.9404 252.481H45.4166C65.7873 253.804 141.274 256.381 194.048 256.381V256.381ZM418.098 262.335C411.413 268.372 395.535 271.156 376.502 270.798C368.039 277.482 345.546 278.943 320.489 278.943C281.457 278.943 286.667 302.181 248.682 302.181C210.67 302.181 215.604 278.943 176.778 278.943C151.791 278.943 129.297 277.482 120.835 270.798C101.815 270.798 85.9236 268.358 79.2391 262.335C52.115 261.674 45.4166 256.381 42.9909 252.123H44.8378C45.0866 252.612 45.4123 253.059 45.8025 253.446C49.9787 256.244 57.4075 258.366 80.3417 260.13C85.9236 265.423 100.409 266.829 121.138 267.49C127.823 273.803 145.837 274.836 184.566 274.836C213.978 274.836 213.095 298.432 248.668 298.432C284.241 298.432 283.511 274.836 312.757 274.836C351.5 274.836 369.142 273.734 376.199 267.476C396.569 266.456 411.413 265.064 416.995 260.13C439.929 258.366 447.289 256.244 451.548 253.446C451.938 253.059 452.263 252.612 452.513 252.123H454.346C451.92 256.395 445.525 261.674 418.098 262.335ZM364.208 218.314H334.589V197.943H321.578V222.945H364.208V218.314ZM88.4183 212.732H111.284V222.931H124.294V197.943H111.284V208.087H88.4183V197.943H75.3248V222.945H88.4183V212.718V212.732ZM217.644 222.931H230.737V212.732L247.993 198.026H239.172L226.465 208.459L214.115 197.943H198.968L217.272 212.649L217.644 222.945V222.931ZM421.998 218.672H391.635V212.36H420.895V208.17H391.635V202.119H421.626V197.929H378.624V222.931H421.998V218.658V218.672ZM277.929 219.113C271.616 219.113 265.345 218.286 259.253 216.619L258.151 221.911C264.725 223.441 271.465 224.158 278.218 224.047C290.939 224.047 302.917 221.911 302.917 215.227C302.917 210.665 297.996 207.867 283.883 206.764C278.232 206.102 272.264 205.744 272.264 203.608C272.264 201.472 273.656 201.113 282.119 201.113C287.563 201.279 293.007 201.871 298.355 202.877L299.388 198.315C292.632 197.231 285.786 196.815 278.949 197.075C270.128 197.075 258.523 198.178 258.523 204.862C258.523 210.444 265.207 211.836 274.759 212.939C284.324 214.041 288.817 214.703 288.817 216.77C288.817 218.824 286.005 219.113 277.929 219.113V219.113ZM57.0353 217.652C52.3905 218.385 47.6929 218.73 42.9909 218.686C32.7918 218.686 25.7213 216.246 25.7213 210.596C25.7213 204.945 32.4059 202.147 42.9909 202.147C47.6908 202.147 52.3906 202.491 57.0491 203.167L55.9465 197.957C50.8308 197.272 45.6704 196.977 40.51 197.075C21.8209 197.075 13 202.354 13 210.816C13 219.265 21.8208 224.557 40.1241 224.557C45.4304 224.479 50.7198 223.939 55.9327 222.945L57.0353 217.652V217.652ZM157.441 202.505C159.647 202.174 161.893 202.05 164.126 202.147C166.58 202.049 169.039 202.169 171.472 202.505C175.304 202.505 176.709 204.269 176.709 206.034C176.709 207.798 174.932 209.204 171.114 209.562C167.282 209.934 166.483 210.223 164.415 210.223C163.001 210.39 161.571 210.39 160.157 210.223L174.863 223.317H191.457L176.751 213.09C179.259 212.952 181.726 212.47 184.111 211.698C187.997 210.596 189.762 208.459 190.134 206.406C190.506 204.338 187.997 200.755 180.582 199.046C175.349 198.277 170.062 197.936 164.774 198.026H144.734V223.014H157.745L157.455 202.505H157.441ZM471.602 212.732C474.11 212.649 476.591 212.181 478.961 211.326C482.848 210.223 484.916 208.087 484.916 206.034C484.916 203.966 483.151 200.383 475.805 198.687C470.42 197.917 464.982 197.572 459.542 197.654H439.488V222.642H452.582V202.519C455.007 202.153 457.463 202.024 459.914 202.133C462.381 202.05 464.834 202.174 467.274 202.505C471.161 202.505 472.566 204.269 472.194 206.034C471.822 207.798 470.43 209.204 466.543 209.562C464.324 209.934 462.092 210.155 459.845 210.223C458.579 210.404 457.293 210.404 456.027 210.223L470.72 223.317H487.259L471.602 212.718V212.732Z" fill="white"/>
</svg>
