<svg width="500" height="500" viewBox="0 0 500 500" fill="none" xmlns="http://www.w3.org/2000/svg">
<path d="M234.012 32.7431C199.849 45.2329 148.053 86.4984 75.4402 159.111C31.9707 202.58 15.9298 220.213 11.2767 229.764C4.54202 243.601 3.31753 250.825 4.29713 273.478C5.03182 294.785 6.25632 299.315 11.1543 299.315C12.3788 299.315 20.4604 293.315 29.1543 286.091C110.338 217.519 182.583 169.029 226.053 153.968C234.379 151.152 237.93 150.662 249.318 150.539C261.073 150.539 264.135 151.029 273.196 154.09C317.033 169.152 386.584 215.805 468.38 284.989C493.36 306.172 494.707 305.438 495.197 270.295C495.686 230.866 494.217 228.662 415.115 150.539C359.278 95.4372 323.523 65.1922 289.359 44.3758C266.584 30.2941 250.053 26.8655 234.012 32.7431ZM263.033 47.1921C298.543 60.4166 372.135 123.601 455.033 212.009C473.033 231.233 477.931 239.07 480.135 252.785C481.605 262.091 481.727 274.825 480.503 274.825C479.89 274.825 470.462 267.234 459.319 258.172C435.441 238.458 392.462 206.009 371.768 192.05C320.461 157.397 282.502 138.907 255.931 135.845C218.339 131.437 142.787 174.417 39.4401 258.907C29.1543 267.356 20.2155 274.336 19.6033 274.581C17.7666 275.315 18.3788 253.887 20.338 246.05C23.0319 235.519 26.2156 231.601 42.0115 218.131C91.4811 176.009 142.91 142.09 199.114 114.417C211.237 108.417 224.706 102.172 228.992 100.458C233.277 98.7433 238.665 95.927 240.869 94.2127C248.216 88.7024 249.073 85.3963 249.686 63.8452C250.298 41.6819 249.808 42.2941 263.033 47.1921Z" fill="white"/>
<path d="M234.012 203.07C205.482 213.233 165.563 243.234 104.951 300.295C73.6038 329.683 21.6853 383.805 14.8281 393.969C5.27707 408.173 4.41992 411.846 4.41992 439.52C4.54237 465.969 5.27707 469.52 10.4199 469.52C13.6036 469.52 15.5628 468.173 31.971 454.214C92.8283 402.418 156.747 356.989 198.135 336.295C230.339 320.132 247.727 316.826 269.645 323.07C310.543 334.581 386.707 385.397 473.523 458.989C492.625 475.153 494.34 473.928 495.564 444.418C496.176 428.499 495.932 423.234 494.34 416.377C491.401 403.765 484.666 392.254 473.523 380.254C405.809 307.887 346.054 252.785 304.421 224.376C270.625 201.233 253.482 196.091 234.012 203.07ZM272.706 222.05C298.911 235.152 332.707 262.091 386.829 313.03C414.993 339.601 465.931 392.499 471.809 401.193C477.809 410.01 480.381 418.826 481.115 433.397C481.727 446.499 481.727 446.867 479.401 445.03C478.176 444.05 472.176 439.03 466.054 433.887C438.013 410.377 396.993 379.275 369.564 360.785C309.686 320.377 266.951 302.499 240.625 306.662C198.869 313.275 129.441 355.642 39.318 429.234C29.1547 437.561 20.2159 444.663 19.4812 444.908C18.624 445.152 18.3791 440.377 18.624 430.826C19.3587 409.887 21.3179 406.214 41.2772 389.071C78.8691 356.989 118.42 329.07 160.665 305.07C177.686 295.397 214.665 276.785 229.237 270.662C247.604 262.825 249.931 258.172 249.931 229.764V214.458L255.074 215.193C258.013 215.56 265.849 218.621 272.706 222.05Z" fill="white"/>
</svg>
