<svg width="500" height="500" viewBox="0 0 500 500" fill="none" xmlns="http://www.w3.org/2000/svg">
<path d="M237.124 159.103C193.516 159.918 149.424 165.449 113.678 174.609C78.5511 183.614 51.422 195.239 32.6388 209.328C28.2819 212.608 26.1905 214.413 22.5694 218.061C14.3784 226.251 9.65356 234.227 7.79461 242.999C3.90242 261.28 14.359 279.31 38.0607 295.146C86.3549 327.419 181.336 345.604 278.95 341.295C343.239 338.443 401.409 326.177 441.842 306.965C460.76 297.979 475.109 287.596 484.017 276.476C487.793 271.76 490.988 265.822 492.556 260.582C493.815 256.371 494.318 250.704 493.795 246.318C492.924 238.827 489.477 231.258 483.61 223.883C480.202 219.614 473.986 213.792 468.351 209.561C426.641 178.374 341.032 158.618 249.13 159.006C243.921 159.025 238.518 159.064 237.124 159.103ZM265.589 167.118C313.612 168.321 356.697 174.201 394.07 184.603C443.003 198.266 474.896 218.469 482.235 240.496C483.436 244.047 483.804 246.473 483.804 250.471C483.804 255.09 483.242 258.059 481.577 262.27C473.715 282.065 446.353 300.114 404.14 313.349C352.883 329.418 284.74 336.618 217.082 333.145C139.819 329.147 73.3615 311.603 39.6099 286.257C16.9732 269.276 11.1833 249.636 23.3634 231.219C43.8119 200.323 111.644 176.2 198.105 169.058C219.619 167.292 244.192 166.574 265.589 167.118Z" fill="white"/>
<path d="M234.607 174.104C195.937 175.113 159.977 179.208 128.298 186.233C78.6287 197.237 43.9088 214.121 30.8767 233.625C28.4562 237.235 26.5972 241.602 25.8227 245.464C25.3579 247.831 25.3579 253.11 25.8227 255.478C29.1533 272.051 47.8397 287.616 79.4807 300.172C130.292 320.336 206.742 330.039 284.179 326.158C359.079 322.393 424.182 305.586 455.822 281.852C458.901 279.542 460.605 278.067 463.375 275.35C469.881 268.927 473.618 262.697 475.148 255.769C475.419 254.527 475.496 253.323 475.496 250.471C475.496 247.618 475.419 246.415 475.148 245.172C473.618 238.244 469.881 232.034 463.375 225.591C456.868 219.167 448.832 213.675 437.543 207.969C431.869 205.097 428.48 203.564 422.051 200.983C386.518 186.699 336.326 177.267 282.242 174.686C269.075 174.065 246.729 173.794 234.607 174.104ZM201.688 190.6C211.021 191.338 218.341 192.327 236.408 195.355C260.438 199.353 272.328 200.517 286.406 200.245C296.804 200.032 305.131 199.139 314.193 197.276C316.013 196.907 317.756 196.539 318.105 196.48C319.712 196.189 321.222 197.121 321.648 198.635C322.462 201.565 319.906 205.563 315.258 208.629C313.012 210.123 308.229 212.491 305.867 213.287C300.29 215.169 295.275 215.887 287.761 215.887C277.13 215.868 268.688 214.354 249.227 208.94C242.12 206.96 231.412 204.185 230.908 204.185C230.734 204.185 230.637 204.554 230.598 205.194L230.54 206.223L227.229 208.746C218.593 215.305 213.113 220.409 208.581 226.115C206.219 229.065 203.14 233.761 203.392 233.994C203.527 234.149 217.741 233.431 219.561 233.179L220.374 233.082V230.889C220.374 226.872 221.478 224.038 224.053 221.438C227.074 218.391 230.811 217.44 233.968 218.934C235.846 219.808 237.047 221.302 237.531 223.378C237.86 224.776 237.86 225.707 237.511 227.337C236.698 231.219 233.677 234.712 229.824 236.206C229.088 236.498 228.391 236.827 228.275 236.944C227.926 237.293 228.488 237.914 230.56 239.409C232.767 241.019 233.058 241.466 232.477 242.533C232.031 243.348 231.082 243.969 230.269 243.969C228.991 243.969 226.086 242.145 223.724 239.836L222.117 238.283L219.541 238.419C214.391 238.671 200.1 240.127 199.17 240.476C198.628 240.689 198.686 240.612 194.852 246.919C182.788 266.753 175.507 276.961 167.607 285.093C158.099 294.874 149.153 299.667 138.561 300.638C127.697 301.627 118.538 298.037 113.058 290.662C108.314 284.297 107.036 274.671 109.786 266.287C110.463 264.25 112.38 260.504 113.697 258.622C115.285 256.409 118.131 253.556 120.475 251.868C122.798 250.199 126.807 248.2 129.13 247.54C131.357 246.9 134.068 246.919 135.153 247.56C136.218 248.2 136.953 249.248 137.07 250.335C137.186 251.732 136.798 252.334 135.114 253.304C132.345 254.876 129.847 256.681 128.065 258.389C124.057 262.231 122.295 265.686 122.062 270.091C121.927 272.672 122.256 274.458 123.244 276.495C125.509 281.192 129.518 283.637 135.366 283.889C141.446 284.142 148.127 281.716 154.4 276.981C159.396 273.216 167.336 265.045 173.823 256.972C177.56 252.314 184.163 243.309 184.163 242.863C184.163 242.611 183.931 242.572 182.575 242.708C177.87 243.096 174.113 244.435 170.124 247.133C168.788 248.045 168.168 248.316 167.491 248.394C165.302 248.608 163.966 246.57 164.973 244.59C165.438 243.698 165.903 243.271 167.607 242.164C172.157 239.253 176.708 237.798 186.564 236.109C189.275 235.644 190.534 235.333 190.805 235.1C190.999 234.906 192.761 232.616 194.678 229.996C201.087 221.302 204.011 218.022 210.111 212.685C214.971 208.454 217.547 206.553 221.11 204.651C222.039 204.146 223.124 203.525 223.55 203.273C224.208 202.846 224.266 202.749 224.015 202.516C223.511 202.011 207.962 199.159 201.494 198.382C186.526 196.577 174.926 197.839 165.632 202.244C162.398 203.797 160.055 205.427 157.634 207.872C154.4 211.133 152.696 214.49 152.464 218.061C152.212 221.904 153.839 224.776 156.918 225.94C157.944 226.348 158.448 226.406 160.442 226.387C162.514 226.387 162.979 226.309 164.605 225.766C166.658 225.086 169.059 223.786 171.441 222.098C173.494 220.642 176.785 217.343 178.257 215.266C178.896 214.354 179.613 213.423 179.864 213.19C180.794 212.278 182.052 212.433 182.885 213.559C183.214 214.005 183.292 214.374 183.272 215.402C183.234 216.858 182.711 218.313 181.026 221.457C176.456 230.054 170.008 236.265 162.766 238.982C159.706 240.146 158.389 240.36 154.633 240.379C150.547 240.379 149.269 240.107 146.326 238.594C144.893 237.856 144.215 237.332 142.705 235.818C141.078 234.188 140.729 233.722 139.839 231.937C138.328 228.851 138.018 227.435 137.999 223.689C137.98 220.312 138.173 218.915 139.064 216.159C143.402 202.749 159.9 192.58 180.387 190.697C182.091 190.542 184.105 190.367 184.841 190.328C187.203 190.212 199.074 190.387 201.688 190.6ZM393.373 223.32C393.799 223.475 393.76 223.902 393.257 224.737C393.025 225.125 388.513 232.17 383.207 240.398C362.313 272.866 355.013 284.588 353.832 287.519C352.863 289.906 353.289 291.71 355.032 292.506C357.065 293.438 359.738 292.623 363.475 289.964C366.748 287.616 369.071 285.539 375.403 279.251C379.721 274.962 381.735 273.08 382.026 273.08C382.684 273.08 385.937 276.088 385.937 276.67C385.937 277.951 375.074 289.517 369.575 294.117C364.366 298.464 359.602 301.142 354.877 302.423C352.554 303.064 348.565 303.044 346.919 302.384C345.292 301.744 344.537 301.239 343.394 299.978C342.02 298.464 340.819 295.728 340.819 294.078C340.819 293.826 340.722 293.457 340.625 293.244C340.354 292.739 339.967 292.952 338.108 294.66C332.434 299.861 325.366 302.714 320.003 302.016C313.942 301.2 309.449 297.086 307.745 290.779C307.28 289.032 307.242 288.625 307.28 285.306C307.3 283.327 307.338 281.328 307.358 280.843C307.435 279.678 307.106 279.639 305.557 280.648C302.497 282.647 297.985 284.375 295.003 284.724C287.897 285.52 282.823 281.231 282.01 273.759C281.894 272.827 281.778 272.4 281.603 272.4C281.332 272.4 277.808 277.757 268.939 291.71C266.054 296.252 263.479 300.191 263.208 300.482L262.704 301.026H256.372C250.873 301.026 249.982 300.987 249.73 300.715C249.556 300.56 249.42 300.366 249.42 300.308C249.42 299.997 251.105 297.203 255.326 290.546C266.248 273.332 271.592 264.23 272.347 261.649C272.986 259.437 272.522 257.903 271.05 257.418C268.358 256.526 262.394 260.523 255.965 267.529C252.557 271.236 246.516 278.844 243.282 283.482C240.087 288.062 235.575 292.991 232.206 295.572C224.092 301.783 215.533 303.51 208 300.502C203.798 298.833 200.293 295.32 198.512 291.051C198.183 290.255 197.912 289.498 197.912 289.382C197.912 288.993 197.331 288.023 197.079 288.023C196.943 288.023 196.014 288.858 195.007 289.886C191.735 293.185 188.404 295.786 187.416 295.786C187.029 295.786 186.661 295.592 186.274 295.165C185.519 294.35 183.873 291.943 183.698 291.4C183.505 290.779 183.892 290.177 185.112 289.11C191.657 283.404 193.206 281.367 195.762 275.234C199.926 265.259 205.464 258.039 212.338 253.615C218.399 249.733 227.81 246.9 230.715 248.122C231.625 248.51 231.993 249.093 232.767 251.325C233.29 252.819 233.387 253.362 233.232 253.615C233.116 253.789 231.896 254.43 230.502 255.031C225.157 257.341 221.458 259.767 217.954 263.279C212.822 268.403 210.092 274.205 210.092 279.989C210.092 283.385 211.002 285.791 212.938 287.635C219.541 293.903 232.36 286.374 236.543 273.798C237.841 269.897 238.092 268.247 238.092 263.376C238.092 258.893 238.034 258.33 237.085 254.643C236.892 253.867 236.834 253.149 236.911 252.799C237.124 251.984 238.131 251.13 240.358 249.869C243.669 247.967 244.889 248.2 246.458 250.956C247.852 253.401 248.897 257.108 249.13 260.465C249.285 262.619 249.362 262.988 249.711 262.988C249.846 262.988 251.841 260.95 254.145 258.466C259.799 252.334 262.84 249.733 266.596 247.812C272.328 244.862 277.479 244.843 280.597 247.773C282.301 249.364 283.288 252.14 283.307 255.264C283.307 257.865 283.579 257.962 285.166 255.846C288.187 251.79 292.854 248.491 297.037 247.443C298.373 247.094 299.089 247.036 301.026 247.113C303.253 247.191 303.446 247.23 304.86 247.909C309.081 249.908 311.172 254.216 310.107 258.719C309.333 261.998 307.338 264.618 304.531 266.016C303.059 266.734 302.885 266.772 301.142 266.772C299.496 266.772 299.147 266.714 298.082 266.21C295.429 264.987 294.035 262.386 294.306 259.165C294.442 257.282 293.532 257.651 291.731 260.174C289.949 262.678 289.097 265.084 289.059 267.743C289.039 270.634 289.911 272.73 291.712 274.011C292.951 274.904 294.035 275.253 295.701 275.253C300.29 275.292 305.402 272.206 314.948 263.648C320.719 258.486 322.171 257.244 324.669 255.342C331.563 250.16 337.353 247.967 343.336 248.297C347.035 248.51 350.114 249.714 352.418 251.848C354.083 253.401 354.916 254.682 355.458 256.564C356.039 258.583 356.388 258.641 357.53 256.836C357.995 256.118 360.764 251.887 363.669 247.463C371.511 235.527 376.004 228.618 377.611 226.057C378.385 224.795 379.218 223.631 379.431 223.475C379.76 223.262 381 223.204 386.441 223.204C390.081 223.204 393.199 223.262 393.373 223.32Z" fill="white"/>
<path d="M229.378 223.165C227.577 224.019 225.989 226.697 225.835 229.142C225.718 231.103 225.854 231.549 226.59 231.549C228.12 231.549 230.966 229.259 231.992 227.221C232.767 225.669 232.806 224.077 232.109 223.417C231.47 222.816 230.346 222.719 229.378 223.165Z" fill="white"/>
<path d="M340.064 257.865C337.314 258.796 334.39 260.873 331.331 264.075C325.173 270.518 321.61 277.835 321.571 284.142C321.571 286.044 321.629 286.548 322.017 287.519C323.624 291.555 328.484 291.846 333.887 288.198C336.288 286.587 339.096 284.142 340.664 282.298C342.736 279.853 347.229 272.866 347.674 271.391C347.79 271.042 347.693 270.906 347.229 270.654C346.319 270.188 346.28 269.625 347.093 267.685C348.003 265.492 348.371 263.959 348.371 262.503C348.352 260.291 347.519 258.893 345.641 257.962C344.053 257.166 342.194 257.127 340.064 257.865Z" fill="white"/>
</svg>
