<svg width="500" height="500" viewBox="0 0 500 500" fill="none" xmlns="http://www.w3.org/2000/svg">
<path d="M226.45 58.3304C184.63 58.9768 147.498 61.0177 119.097 64.2833C83.9008 68.2972 63.0075 74.8964 46.9045 87.0742C30.3258 99.6262 20.3038 118.369 16.7027 143.507C14.9701 155.685 14.2906 167.557 14.0528 191.47C13.6791 229.228 15.2419 256.612 20.2359 301.513C23.1915 327.808 28.4233 355.395 33.1795 369.818C38.3094 385.295 44.4924 397.303 51.4908 405.365C56.5187 411.148 65.4196 418.121 72.7237 422.067C77.1062 424.414 83.1194 426.897 89.7101 429.108C113.491 437.034 141.009 440.266 203.519 442.409C220.233 442.987 283.796 442.987 300.681 442.409C324.36 441.592 342.433 440.606 357.245 439.279C396.246 435.741 422.473 428.122 438.372 415.672C450.84 405.943 457.635 396.555 464.362 379.751C472.821 358.626 478.256 329.679 483.25 279.062C486.342 248.209 487.429 223.65 486.851 198.308C486.002 159.733 484.677 143.541 481.246 130.581C472.855 98.6058 452.811 79.7267 417.547 70.5763C397.469 65.3378 370.563 62.2763 323.782 59.8272C306.796 58.9427 258.555 57.8202 246.324 58.0243C244.558 58.0583 235.623 58.1944 226.45 58.3304ZM284.544 73.6038C331.528 74.9644 368.864 78.0599 393.766 82.6521C431.782 89.6255 451.418 107.348 458.145 140.786C462.765 163.679 464.022 219.33 460.862 260.523C454.204 347.129 444.012 383.901 421.624 401.963C409.122 412.032 394.548 417.305 368.456 421.08C328.708 426.829 244.286 428.632 178.379 425.162C121.033 422.135 95.8592 416.114 78.1254 401.317C56.1111 382.948 45.3757 342.979 39.4644 257.632C38.2414 240.182 37.9696 228.99 38.1735 204.26C38.3433 181.367 38.5472 175.755 39.6343 162.386C41.265 141.738 43.9828 129.833 49.4524 118.845C57.9796 101.803 72.7237 90.9861 95.6553 84.9992C114.748 79.9988 153.545 75.9169 197.743 74.2501C222.747 73.3316 264.262 72.9915 284.544 73.6038Z" fill="white"/>
<path d="M135.744 92.891C122.121 93.4013 109.109 94.5578 108.803 95.3062C108.701 95.5783 109.041 102.245 109.551 110.137C118.859 256.203 122.8 313.725 128.1 380.771C130.478 410.501 130.648 412.712 130.987 413.052C131.905 413.869 159.457 415.91 173.589 416.216L178.176 416.284L179.976 409.345C185.31 388.867 186.771 383.356 188.741 376.519C193.565 359.715 198.084 347.945 202.092 341.652C206.781 334.271 214.085 329.815 224.005 328.216C240.278 325.597 257.638 325.426 273.333 327.74C279.992 328.692 283.015 329.542 286.922 331.447C293.105 334.475 296.978 338.455 300.681 345.734C306.151 356.483 310.601 370.328 318.517 401.181C320.318 408.188 321.914 414.481 322.118 415.162L322.424 416.352L325.549 416.25C340.531 415.74 351.708 415.025 362.682 413.937C370.393 413.155 369.476 413.903 369.918 408.052C370.156 405.297 370.937 395.466 371.684 386.214C376.237 329.713 380.925 262.088 387.651 157.284C388.773 139.595 390.131 118.403 390.675 110.171C391.185 101.837 391.49 95.1021 391.321 95C390.573 94.4898 376.508 93.4013 363.463 92.823C359.556 92.6529 359.148 92.6869 358.978 93.2312C358.877 93.5713 355.649 108.164 351.81 125.649C342.706 167.149 341.618 171.877 333.601 203.886C324.53 240.284 321.778 250.046 317.43 261.204C313.387 271.647 309.48 278.076 303.569 284.029C295.042 292.635 285.801 296.683 270.038 298.69C266.403 299.166 262.564 299.268 250.062 299.268C233.687 299.302 229.78 299.03 221.865 297.397C204.912 293.893 193.259 284.675 185.65 268.687C180.69 258.278 176.749 245.624 170.226 219.092C159.932 177.183 157.486 166.91 152.085 142.317C150.658 135.854 147.6 122.077 145.324 111.702L141.179 92.823L139.82 92.789C139.073 92.789 137.238 92.823 135.744 92.891Z" fill="white"/>
</svg>
