<svg width="500" height="500" viewBox="0 0 500 500" fill="none" xmlns="http://www.w3.org/2000/svg">
<path d="M237.573 126.14C219.422 126.837 199.835 128.425 187.85 130.167C183.468 130.825 179.318 131.406 178.658 131.483C175.517 131.909 171.444 132.606 165.045 133.884C161.205 134.658 157.714 135.316 157.287 135.394C155.775 135.549 141.308 139.15 134.986 140.892C105.587 149.062 79.135 160.484 59.1606 173.764C47.4087 181.547 42.2502 185.69 33.9501 194.053C20.2589 207.876 12.3855 221.544 9.04997 237.418C8.11913 241.677 8.00277 243.149 8.00277 249.808C7.96398 257.785 8.31305 260.495 10.2911 267.813C12.1528 274.705 16.3416 283.61 20.8795 290.386C39.0698 317.334 75.2565 340.449 123.156 355.627C128.974 357.447 141.308 360.932 144.488 361.667C145.574 361.9 148.949 362.674 152.051 363.41C156.9 364.533 169.582 367.127 173.189 367.669C186.609 369.76 196.228 371.076 202.085 371.579C203.248 371.657 206.235 371.928 208.678 372.16C234.393 374.483 260.146 374.6 286.249 372.547C303.159 371.192 304.827 370.999 318.828 368.869C322.125 368.366 325.616 367.824 326.585 367.708C330.27 367.166 347.801 363.565 353.076 362.287C383.173 354.853 408.035 345.367 429.948 332.977C464.933 313.23 486.265 288.295 491.307 261.308C492.237 256.12 492.237 244.001 491.268 238.774C488.824 225.532 483.201 213.993 473.349 201.991C454.461 178.953 422.773 159.593 381.467 145.887C374.563 143.564 359.786 139.266 357.226 138.801C356.683 138.724 354.162 138.104 351.602 137.485C345.823 136.013 327.128 132.258 323.133 131.716C321.505 131.522 316.618 130.825 312.235 130.206C302.073 128.773 301.53 128.696 288.964 127.689C273.682 126.411 249.286 125.675 237.573 126.14ZM275.777 146.042C279.306 146.274 283.068 146.506 284.115 146.622C285.201 146.739 287.645 146.893 289.545 147.01C295.596 147.397 304.4 148.365 312.817 149.565C317.316 150.223 321.505 150.804 322.125 150.882C323.676 151.036 327.128 151.656 334.342 153.05C337.639 153.708 340.781 154.327 341.324 154.405C345.59 155.102 362.268 159.322 369.831 161.607C376.269 163.543 378.17 164.859 378.17 167.414C378.17 168.692 377.86 169.234 376.153 171.054C372.779 174.616 363.199 181.508 352.959 187.742C340.005 195.602 321 204.972 304.672 211.477C301.918 212.6 299.125 213.722 298.466 213.993C295.286 215.349 277.793 221.776 270.928 224.099C257.198 228.784 240.831 233.082 232.996 234.127C227.877 234.785 220.43 234.902 217.211 234.36C213.1 233.663 212.557 233.546 210.423 232.733C202.434 229.752 198.206 223.131 198.206 213.567C198.206 206.676 200.649 196.647 204.528 187.665C205.226 185.961 206.7 182.554 207.747 180.114C213.177 167.26 219.072 158.548 225.899 153.166C231.057 149.062 235.789 147.087 243.391 145.809C246.804 145.229 263.986 145.383 275.777 146.042ZM170.668 154.56C172.336 156.225 171.599 158.045 167.023 163.465C149.492 184.296 129.789 214.923 111.986 248.84C107.914 256.662 98.838 275.014 95.4249 282.332C91.3524 291.083 90.9258 292.051 87.0473 300.801C82.2379 311.643 81.7337 312.611 80.2598 313.85C79.1738 314.74 78.7472 314.895 77.1958 314.74C74.8687 314.508 73.9378 314.004 67.3055 309.59C46.3227 295.652 32.709 278.77 28.7141 261.618C22.7024 235.947 36.7427 210.509 68.4691 189.6C84.5262 179.03 104.733 169.854 127.229 162.884C130.37 161.916 133.279 161.065 133.667 160.987C134.094 160.91 136.576 160.213 139.252 159.438C141.928 158.664 145.691 157.696 147.591 157.27C149.53 156.844 153.603 155.915 156.706 155.179C163.803 153.553 169.388 153.282 170.668 154.56ZM425.294 185.767C427.272 186.58 433.71 190.801 438.442 194.363C454.926 206.714 465.67 220.305 470.207 234.514C471.953 239.974 472.496 243.381 472.535 248.995C472.573 254.571 472.224 257.939 471.255 261.85C468.191 273.698 461.985 283.959 451.319 294.529C436.231 309.474 414.318 322.252 385.888 332.667C380.962 334.487 368.435 338.552 366.34 339.056C365.138 339.327 363.199 339.83 359.863 340.837C357.769 341.417 354.899 342.192 353.464 342.502C352.029 342.811 348.46 343.586 345.59 344.283C338.958 345.831 338.764 345.87 334.226 346.102C330.658 346.296 330.348 346.257 329.455 345.405C327.516 343.586 327.943 342.734 335.545 333.364C343.185 323.955 348.771 316.25 356.373 304.828C361.066 297.781 362.85 294.993 368.861 285.236C371.615 280.784 378.092 269.516 382.63 261.23C392.21 243.807 404.078 219.491 413.658 197.538C417.304 189.213 418.274 187.355 419.67 186.154C421.105 184.954 423.083 184.838 425.294 185.767ZM283.029 265.335C293.502 266.729 299.785 271.568 301.918 279.893C303.198 284.733 302.538 293.328 300.367 300.53C297.07 311.449 289.584 328.33 284.736 335.648C283.417 337.584 281.013 340.604 279.384 342.385C273.837 348.232 269.067 351.175 261.93 353.072C258.246 354.079 257.741 354.117 246.3 354.195C234.781 354.272 227.916 354.04 217.211 353.227C214.341 352.994 210.501 352.723 208.678 352.607C200.456 352.065 183.778 349.858 172.026 347.729C167.333 346.877 162.989 346.102 162.33 345.986C157.714 345.289 134.133 339.327 128.509 337.468C126.027 336.655 123.467 335.145 122.962 334.216C122.342 333.015 122.536 331.312 123.467 329.918C125.328 327.13 137.158 318.457 147.863 312.03C158.606 305.564 172.53 298.401 185.601 292.67C192.815 289.534 210.966 282.332 219.15 279.428C225.899 277.028 237.379 273.117 237.379 273.233C237.379 273.272 239.163 272.73 241.374 272.033C247.735 269.904 263.52 266.148 268.601 265.528C274.38 264.87 279.073 264.793 283.029 265.335Z" fill="white"/>
</svg>
