<svg width="500" height="500" viewBox="0 0 500 500" fill="none" xmlns="http://www.w3.org/2000/svg">
<path d="M335.398 234.117C328.157 234.117 316.649 232.317 317.008 242.817C326.849 243.229 337.147 242.817 346.727 242.817C348.557 235.415 340.793 233.873 335.398 234.117Z" fill="white"/>
<path d="M468.093 201.235C461.563 200.191 454.935 199.228 448.144 198.363C424.211 115.746 344.706 55 250.248 55C155.773 55 77.5913 114.718 52.8585 196.453L37.2678 199.587C22.7383 202.198 21.7587 212.383 21.7587 213.068C18.559 226.206 20.4527 269.816 21.7587 284.619C21.6362 286.543 21.9149 288.473 22.5772 290.284C23.2396 292.095 24.2711 293.749 25.6064 295.141C26.9418 296.532 28.5517 297.632 30.3343 298.369C32.1169 299.106 34.0332 299.464 35.9618 299.422C40.843 300.466 46.1488 301.413 51.8953 302.294C75.7629 385.074 155.43 446 249.987 446C344.527 446 423.509 385.074 447.703 303.159C460.077 301.593 466.967 300.466 466.967 300.466C478.623 299.504 478.884 285.582 478.884 285.484C481.055 265.213 479.407 215.859 479.309 215.859C479.309 201.496 468.077 201.235 468.077 201.235H468.093ZM250.411 102.706C280.278 102.399 309.602 110.698 334.876 126.611C360.15 142.524 380.305 165.377 392.931 192.438C298.293 185.676 203.326 184.776 108.577 189.745C121.555 163.343 141.747 141.155 166.817 125.751C191.887 110.347 220.808 102.357 250.232 102.706H250.411V102.706ZM362.387 254.164C362.811 261.117 362.387 267.988 362.387 275.055C357.571 275.3 352.755 275.3 347.922 275.055C347.318 268.086 348.445 261.9 347.237 254.768C337.199 254.201 327.138 254.201 317.1 254.768C316.699 260.56 316.699 266.374 317.1 272.166C317.1 274.451 316.153 275.822 313.623 275.659C311.073 275.173 308.467 275.058 305.885 275.316C305.365 275.47 304.816 275.498 304.284 275.397C303.752 275.296 303.251 275.069 302.825 274.735C302.398 274.401 302.058 273.97 301.832 273.478C301.606 272.985 301.501 272.446 301.526 271.905C300.677 258.538 300.873 245.139 302.048 231.788C302.3 230.271 302.904 228.835 303.811 227.593C304.718 226.352 305.904 225.34 307.272 224.64C309.966 223.269 312.954 222.567 315.974 222.55H339.482C346.796 222.55 358.73 221.865 361.26 230.482C362.583 238.3 362.893 246.248 362.207 254.148H362.37L362.387 254.164ZM249.448 238.659C263.684 243.392 277.609 248.99 291.159 255.372C294.032 256.939 294.032 261.557 294.212 264.087C294.148 265.792 293.699 267.459 292.899 268.966C292.099 270.472 290.968 271.778 289.592 272.786C287.379 274.24 284.732 274.886 282.099 274.614H230.56C230.251 270.938 230.251 267.242 230.56 263.565H272.45C275.226 263.565 275.062 259.909 272.45 259.028C260.957 255.372 251.015 251.112 239.8 247.358C237.786 246.747 235.965 245.624 234.514 244.1C233.064 242.575 232.033 240.701 231.523 238.659C230.652 236.272 230.652 233.653 231.523 231.266C236.045 218.046 251.195 222.55 262.263 222.126C273.316 221.685 284.188 222.126 294.637 222.126C294.963 225.831 294.963 229.552 294.637 233.273H251.113C247.799 233.959 246.673 237.435 249.464 238.659H249.448ZM159.251 264.25H201.403C204.26 264.25 204.015 260.594 201.403 259.729C189.91 256.074 180.065 251.814 168.834 248.06C166.82 247.449 164.999 246.326 163.548 244.801C162.097 243.277 161.067 241.402 160.557 239.361C159.682 236.969 159.682 234.344 160.557 231.951C164.997 218.731 180.245 223.252 191.297 222.812C202.349 222.387 213.238 222.812 223.687 222.812C224.029 226.565 224.029 230.319 223.687 234.057H180.751C179.675 234.036 178.618 234.338 177.715 234.922C175.968 236.064 177.715 238.48 179.282 238.92C189.469 241.532 198.791 247.636 209.059 249.447C219.344 251.292 230.739 263.483 218.887 273.929C217.761 274.875 217.761 273.929 216.455 274.777C215.467 275.295 214.329 275.45 213.238 275.218H160.116C159.61 271.583 159.321 267.92 159.251 264.25V264.25ZM152.296 275.3C146.811 275.822 142.974 275.3 137.228 275.3V223.073C142.272 222.828 147.333 222.828 152.378 223.073C152.427 240.487 152.41 257.902 152.296 275.3ZM98.3082 267.825C93.9493 258.587 89.5905 250.41 84.9867 241.091C83.9419 238.92 80.3666 238.578 80.2034 241.091V272.264C80.2034 274.353 79.7626 276.099 77.0689 275.74C75.0527 275.347 72.9795 275.347 70.9633 275.74C67.9267 276.181 66.8819 274.598 66.9636 272.264V235.346C66.8244 233.716 67.0762 232.077 67.698 230.564C68.3198 229.051 69.2937 227.708 70.5388 226.647C72.9784 225 75.7795 223.967 78.7042 223.635C81.6288 223.302 84.5905 223.68 87.3376 224.737C89.1075 225.465 90.7132 226.54 92.0593 227.9C93.4054 229.26 94.4645 230.876 95.1737 232.653C99.6142 242.054 103.875 250.068 109.099 259.909C109.423 260.587 109.981 261.127 110.67 261.428C111.359 261.73 112.133 261.774 112.851 261.552C113.57 261.331 114.185 260.858 114.584 260.221C114.983 259.584 115.14 258.824 115.025 258.081C114.323 245.889 115.025 235.526 115.025 223.693H128.086V265.115C128.11 266.581 127.8 268.033 127.181 269.362C126.562 270.691 125.648 271.862 124.51 272.786C122.466 274.221 120.152 275.226 117.708 275.741C115.264 276.256 112.741 276.269 110.291 275.781C107.842 275.293 105.517 274.313 103.457 272.9C101.397 271.488 99.6457 269.672 98.3082 267.564V267.825ZM250.232 398.392C220.224 398.734 190.756 390.396 165.378 374.383C140 358.371 119.792 335.365 107.189 308.137C174.58 313.164 252.158 313.523 252.158 313.523C306.848 314.388 355.595 311.875 392.866 308.823C380.188 335.85 359.998 358.659 334.706 374.527C309.414 390.394 280.089 398.651 250.232 398.31V398.392V398.392ZM429.859 270.518C428.053 272.25 425.911 273.592 423.564 274.461C421.217 275.33 418.717 275.707 416.219 275.57C413.72 275.432 411.276 274.782 409.039 273.66C406.803 272.538 404.821 270.969 403.216 269.049C397.649 260.333 393.552 250.068 388.426 241.091C387.724 239.965 386.858 238.316 385.634 238.757C384.933 239.062 384.345 239.578 383.952 240.234C383.56 240.889 383.383 241.651 383.446 242.413V275.055C378.843 275.577 375.447 275.055 370.566 275.055V243.621C370.566 238.235 368.917 232.033 372.394 227.61C374.646 225.4 377.456 223.844 380.525 223.108C383.593 222.372 386.804 222.484 389.813 223.432C391.739 224.117 393.504 225.189 395 226.581C396.496 227.973 397.692 229.656 398.515 231.527C403.135 241.091 408.277 250.149 413.24 259.811C413.475 260.17 413.793 260.468 414.166 260.68C414.539 260.892 414.957 261.013 415.386 261.032C415.814 261.051 416.242 260.968 416.632 260.79C417.023 260.612 417.365 260.343 417.632 260.007C417.98 259.552 418.175 258.997 418.187 258.424V222.73H431.426V262.52C431.934 265.288 431.374 268.146 429.859 270.518V270.518Z" fill="white"/>
</svg>
