<svg width="500" height="500" viewBox="0 0 500 500" fill="none" xmlns="http://www.w3.org/2000/svg">
<path d="M217.506 4.3123C160.626 5.7834 101.179 11.2914 44.6064 20.3575C31.0959 22.547 28.7358 22.9576 28.4964 23.197C28.257 23.4365 27.8123 34.6921 27.3335 53.1663C26.8888 70.6826 26.8888 110.505 27.3335 123.676C29.6593 192.681 40.2283 249.301 59.8955 298.326C81.6833 352.551 114.279 398.155 159.531 437.772C178.309 454.194 202.833 471.299 225.202 483.547C230.23 486.318 243.57 493.058 247.879 495.008L250.034 496L252.839 494.7C286.666 478.997 320.084 456.623 348.233 430.861C353.603 425.935 366.088 413.482 370.979 408.145C400.668 375.781 423.755 339.106 440.105 298.326C459.84 249.027 470.341 192.783 472.666 123.676C473.111 110.471 473.111 70.58 472.666 53.1321C472.188 34.4526 471.743 23.4365 471.504 23.197C471.264 22.9576 468.904 22.547 455.394 20.3575C397.794 11.1204 340.059 5.81761 280.612 4.27809C265.665 3.90176 232.864 3.90176 217.506 4.3123ZM278.389 16.5942C338.998 18.1337 402.207 24.2576 458.335 34.0421L460.593 34.4526L460.832 40.816C461.892 71.6747 462.166 113.789 461.413 132.571C457.548 228.432 438.052 297.676 397.726 358.367C367.558 403.8 325.522 442.527 276.166 470.376C267.683 475.165 251.163 483.342 250 483.342C248.837 483.342 232.317 475.165 223.834 470.376C174.854 442.733 133.126 404.416 102.924 359.393C70.7381 311.361 51.584 256.964 43.1014 189.704C39.0312 157.409 37.492 122.239 38.2787 78.0039C38.4839 65.9614 38.7917 52.2768 38.9628 47.5556C39.1338 42.8687 39.3048 37.9764 39.3048 36.7448V34.4526L41.6307 34.0421C116.571 21.0075 202.423 14.6784 278.389 16.5942Z" fill="white"/>
<path d="M236.318 24.326C178.959 25.0103 118.623 30.0736 61.3662 39.0028C56.0988 39.8238 50.763 40.6791 49.5317 40.8844L47.2743 41.2949L47.0348 45.7766C46.0771 66.0298 45.9403 121.418 46.7954 138.216C48.7108 174.925 52.097 202.5 58.1169 230.587C70.0198 286.112 91.9444 334.043 124.267 375.097C155.803 415.192 196.608 448.309 242.578 471.128L250 474.823L257.456 471.128C322.17 439.004 375.904 386.9 408.398 324.703C436.718 270.512 450.879 209 453.512 128.637C454.128 109.752 453.854 67.9799 452.965 46.6319L452.76 41.2949L450.468 40.8844C421.566 35.8553 375.87 30.3472 341.153 27.7472C308.078 25.2497 268.607 23.9839 236.318 24.326ZM268.47 57.9901V60.3849H253.113C238.131 60.3849 237.755 60.3849 236.866 61.1034L235.976 61.7876V70.2721C235.976 78.6881 235.976 78.7565 236.763 79.475C237.55 80.2276 237.687 80.2276 251.402 80.3303L265.221 80.3987V76.4644V72.53L257.456 72.4274L249.658 72.359V69.9642V67.5694H256.943C260.979 67.5694 265.665 67.672 267.376 67.7746L270.522 68.0141V76.6354V85.2567L253.694 85.1199C244.425 85.0172 236.284 84.812 235.634 84.6409C233.651 84.1277 232.214 83.033 231.53 81.4934C230.914 80.1934 230.846 79.2013 230.846 70.7168C230.846 63.0534 230.948 61.1718 231.359 60.1113C232.351 57.8191 234.061 56.4848 236.763 55.9375C237.55 55.8006 245.006 55.6638 253.352 55.6295L268.47 55.5953V57.9901ZM217.848 68.1852C217.848 80.296 217.848 80.4671 217.062 81.9724C216.446 83.1356 215.865 83.683 214.36 84.4356C212.615 85.3251 211.897 85.462 207.348 85.7357C204.577 85.9067 197.839 86.112 192.367 86.1462C181.25 86.2146 181.182 86.2146 179.301 83.7514L178.343 82.5198V69.9984V57.477L180.669 57.3743L182.961 57.2717V68.5957V79.9539L183.987 80.9803C185.013 82.0066 185.047 82.0066 187.852 81.8013C189.391 81.6987 195.206 81.425 200.747 81.2197C209.605 80.9118 210.939 80.8092 211.692 80.2618L212.547 79.646L212.649 68.0483C212.718 59.3244 212.821 56.4164 213.163 56.2111C213.368 56.0743 214.531 55.9375 215.728 55.9375H217.848V68.1852ZM302.332 56.6559C308.249 56.8612 314.816 57.1349 316.868 57.2717L320.631 57.477L320.733 59.8376L320.836 62.1982L315.774 61.9587C301.271 61.3087 295.32 61.0692 292.002 61.0692H288.308V64.6614V68.2536H290.805C293.747 68.2536 308.557 68.8352 313.551 69.1431L317.039 69.3484V71.7432V74.1038L313.893 73.8985C309.275 73.6248 294.431 73.0432 291.147 73.0432H288.308V76.9433V80.8092L294.054 81.0487C297.201 81.1855 303.837 81.425 308.83 81.6303C313.824 81.8013 318.544 82.0408 319.365 82.1435L320.836 82.3145L320.733 84.6067L320.631 86.8989L319.605 86.8304C317.21 86.6594 298.775 85.9751 291.387 85.7699L283.349 85.5304L283.246 70.7168L283.178 55.9032L287.351 56.1085C289.676 56.2111 296.415 56.4506 302.332 56.6559ZM165.175 60.6586V62.985L156.213 63.6008C151.254 63.9429 144.071 64.4561 140.206 64.764L133.194 65.3456L133.092 69.0405L132.989 72.7011L134.289 72.53C136.101 72.2905 152.109 71.0589 157.445 70.7852L161.788 70.5458L161.686 72.9064L161.583 75.2669L157.821 75.5064C149.92 76.0196 134.528 77.1828 133.81 77.3539C133.057 77.4907 133.023 77.6275 133.023 81.4592V85.4278L134.665 85.2225C135.554 85.0856 141.574 84.6409 148.073 84.1619C154.571 83.7172 161.07 83.2382 162.541 83.1356L165.175 82.9303V85.3251C165.175 87.412 165.106 87.7541 164.593 87.7541C163.464 87.7541 140.48 89.4647 134.562 89.9779C131.381 90.2516 128.577 90.4911 128.337 90.4911C127.995 90.4911 127.893 87.6173 127.893 75.8143V61.1376L129.363 60.9323C131.826 60.5902 159.257 58.5375 163.225 58.4007L165.175 58.3323V60.6586ZM353.637 59.5297C364.856 60.3849 367.319 60.6928 369.2 61.4113C370.842 62.0271 372.415 63.3956 373.236 64.9351C373.954 66.3377 373.989 66.6799 373.989 75.9512C373.989 84.6067 373.92 85.6672 373.339 86.7962C372.347 88.8147 370.773 89.5674 367.353 89.7384C364.514 89.8753 348.096 88.8147 341.871 88.0963C337.185 87.5489 335.338 86.5225 334.107 83.8198C333.526 82.5882 333.457 81.4592 333.457 73.2143C333.457 68.1167 333.628 63.4298 333.799 62.7455C334.483 60.3165 337.254 58.7428 340.982 58.7086C341.837 58.6744 347.515 59.0507 353.637 59.5297ZM391.98 62.9508C401.728 63.9772 420.437 66.1325 421.806 66.4062C422.695 66.5772 422.729 66.6457 422.729 68.972V71.2984L421.806 71.1616C420.848 70.9905 406.653 69.2799 406.209 69.2799C406.072 69.2799 405.969 74.8564 405.969 81.6303V94.0149L404.191 93.7754C403.199 93.6727 402.036 93.5701 401.625 93.5701H400.839V81.2882C400.839 74.5143 400.702 68.9036 400.531 68.801C400.291 68.6299 384.831 66.8851 383.737 66.8851C383.531 66.8851 383.395 65.893 383.395 64.4903C383.395 63.1561 383.463 62.0955 383.531 62.0955C383.6 62.0955 387.397 62.4718 391.98 62.9508ZM112.74 63.7719C113.63 64.1824 114.519 64.9693 115.135 65.893C116.092 67.3299 116.092 67.4325 116.092 72.53C116.092 77.696 116.092 77.7302 115.066 79.4065C114.279 80.6382 113.527 81.3224 112.125 82.0408C110.107 83.0672 110.893 82.9645 91.9786 85.1199L82.5726 86.2146L82.4699 90.7305C82.3673 95.8281 82.641 95.4175 79.2548 95.7938L77.271 95.9991V81.3224V66.6114L78.2287 66.4062C78.7417 66.3035 83.7697 65.6877 89.4133 65.0377C95.0569 64.3535 100.837 63.7035 102.24 63.5324C106.926 62.9508 111.133 63.0534 112.74 63.7719ZM287.453 117.484C298.467 118.202 300.074 118.442 303.495 119.776C312.524 123.334 348.404 142.39 353.466 146.256C355.245 147.624 372.586 164.73 372.381 164.901C372.313 164.97 371.218 164.798 369.918 164.525C367.935 164.114 366.737 163.498 362.565 160.83C353.398 154.98 342.008 148.377 336.125 145.572C333.491 144.306 332.739 144.1 328.805 143.69C326.377 143.45 322.307 143.143 319.776 143.006C312.49 142.629 311.704 142.458 305.752 139.619C298.911 136.334 290.531 132.742 288.069 132.024C286.359 131.511 284.888 131.511 273.464 131.853C266.486 132.092 257.559 132.4 253.591 132.605C246.785 132.948 243.296 132.845 241.757 132.263C240.047 131.648 271.104 128.261 293.712 126.618C297.338 126.345 300.382 126.071 300.485 126.003C300.553 125.9 299.048 125.353 297.099 124.771L293.61 123.71L282.152 123.505C265.494 123.197 234.54 124.053 225.75 125.045C223.218 125.318 222.227 125.66 218.259 127.611C212 130.655 199.686 137.258 183.645 146.187C176.222 150.327 170.066 153.645 169.997 153.611C169.963 153.543 170.408 152.824 171.023 152.038C171.708 151.182 174.273 149.232 177.317 147.18C183.645 142.972 185.013 141.911 192.538 135.616C199.686 129.663 201.225 127.987 204.201 123.3C205.877 120.597 206.732 119.571 207.622 119.16C208.853 118.579 217.712 117.792 230.162 117.176C238.2 116.8 280.168 117.005 287.453 117.484ZM222.056 142.253C222.295 142.869 209.947 164.012 208.921 164.73C208.066 165.346 186.552 172.188 182.619 173.078C180.669 173.557 176.462 173.83 162.712 174.48C157.581 174.686 157.821 174.001 163.807 171.504L167.398 169.999L172.289 164.012C180.327 154.193 179.267 155.151 184.91 152.414C190.725 149.574 197.668 146.564 203.996 144.1C207.827 142.629 208.887 142.356 211.863 142.15C218.019 141.706 221.85 141.774 222.056 142.253ZM277.226 155.527C279.005 156.314 280.578 157.135 280.749 157.34C281.194 157.888 283.178 167.57 283.178 169.246C283.178 170.957 282.494 172.222 277.158 180.399C275.003 183.683 273.259 186.625 273.259 186.968C273.259 187.618 275.721 199.899 277.534 208.281C278.218 211.463 278.731 214.2 278.663 214.371C278.594 214.542 277.773 213.892 276.782 212.9C275.174 211.223 274.935 210.744 273.635 206.776C270.454 196.889 267.444 186.489 267.444 185.36C267.444 184.402 267.889 183.581 269.77 181.186C276.063 173.249 278.389 169.828 278.389 168.562C278.389 167.706 275.961 163.019 275.208 162.438C274.558 161.89 271.514 160.967 270.454 160.967C269.462 160.967 260.295 164.319 250.889 168.151C245.075 170.478 244.698 170.512 239.192 169.52C234.095 168.596 233.924 168.562 233.924 167.98C233.924 167.159 237.071 161.959 237.823 161.48C238.644 161.001 251.197 158.298 263.339 156.04C272.643 154.296 272.951 154.227 273.532 154.159C273.806 154.159 275.448 154.774 277.226 155.527ZM335.954 155.493C338.622 156.485 349.294 161.822 354.835 164.901C371.047 173.933 388.559 185.428 389.654 187.72C390.304 189.089 391.74 197.539 392.527 204.757C393.28 211.429 393.382 236.574 392.698 242.527L392.288 246.29L388.833 253.133C383.258 264.149 377.58 274.036 371.663 282.931C367.866 288.61 363.42 294.528 363.283 294.084C363.214 293.878 363.317 291.86 363.522 289.636C363.728 287.378 363.899 284.504 363.899 283.239C363.899 280.673 363.283 281.46 368.995 276.567C371.868 274.104 372.757 272.77 377.443 263.943C381.171 256.998 384.968 248.856 386.302 244.956C387.397 241.706 387.465 239.14 386.644 231.271C384.729 212.66 382.369 199.865 380.487 197.368C379.427 195.999 376.554 194.562 366.053 190.218L358.768 187.207L350.662 180.57C334.073 167.022 330.413 164.456 327.608 164.388C327.095 164.388 322.957 165.312 318.373 166.475C310.164 168.528 309.993 168.562 306.607 168.322C304.726 168.22 302.64 168.014 302.024 167.912C300.827 167.706 300.861 167.706 303.734 166.372C308.215 164.285 319.502 159.359 323.333 157.819C331.576 154.501 332.739 154.296 335.954 155.493ZM167.774 161.035C167.295 161.651 164.422 164.08 161.378 166.441C158.334 168.801 155.563 171.093 155.221 171.572C154.811 172.12 154.366 174.172 153.887 177.559C153.511 180.365 152.998 182.862 152.759 183.102C152.519 183.341 149.783 184.504 146.636 185.702C142.361 187.344 140.514 188.233 139.282 189.294C137.47 190.799 136.204 192.099 136.58 192.099C136.683 192.099 139.351 191.483 142.463 190.731C145.61 189.978 148.586 189.362 149.099 189.362C149.612 189.362 150.706 189.67 151.527 190.047C152.348 190.423 153.545 190.731 154.161 190.731C154.811 190.731 158.847 189.875 163.157 188.815C171.639 186.762 171.879 186.66 177.591 182.315C178.754 181.425 179.198 181.22 179.198 181.631C179.198 182.383 175.504 186.591 173.828 187.754C171.742 189.191 152.211 196.889 136.272 202.534C131.997 204.039 130.56 204.689 129.637 205.613L128.474 206.742L129.637 206.947C130.287 207.05 133.263 207.289 136.238 207.529C139.248 207.734 142.156 208.042 142.669 208.213C143.216 208.35 144.55 209.273 145.61 210.231C147.662 212.079 158.06 222.958 157.889 223.095C157.855 223.129 154.571 223.745 150.638 224.429C140.445 226.174 123.138 229.663 122.146 230.177C120.573 230.929 120.094 232.195 118.589 239.037C117.46 244.203 116.982 245.811 116.605 245.811C115.511 245.811 113.459 243.998 110.209 240.098C105.557 234.556 103.608 231.716 103.608 230.587C103.608 229.561 105.797 226.79 111.235 220.905C113.356 218.647 114.348 217.245 114.861 215.91C115.75 213.481 116.674 209.855 116.468 209.616C116.366 209.513 115.682 209.855 114.929 210.334C114.04 210.95 113.185 211.942 112.432 213.379C111.406 215.329 110.859 215.876 106.413 219.195C103.71 221.247 101.282 222.89 101.008 222.89C100.324 222.89 98.4773 220.187 98.4773 219.161C98.4773 216.629 98.922 215.671 101.145 213.276C104.463 209.684 119.82 197.573 132.578 188.507C135.007 186.796 135.999 185.736 139.624 181.015C144.345 174.925 144.858 174.378 148.073 172.222C150.843 170.341 167.979 160.009 168.356 159.975C168.527 159.94 168.253 160.454 167.774 161.035ZM168.185 178.654C168.629 179.817 168.356 182.212 167.672 183.136C167.158 183.82 166.44 184.162 164.32 184.607C162.815 184.949 161.481 185.12 161.344 185.052C161.07 184.881 161.275 180.878 161.617 179.201C161.754 178.415 162.438 178.244 166.132 178.141C167.569 178.073 167.979 178.209 168.185 178.654ZM316.526 200.994C318.271 201.815 319.365 202.773 322.409 206.023C335.373 219.982 350.833 239.311 354.869 246.632C355.929 248.582 356.066 249.198 356.545 254.022C357.297 261.309 357.571 278.962 357.092 286.865C356.134 302.466 353.022 322 349.841 332.777C348.986 335.651 348.302 336.472 343.787 339.961C328.156 351.97 292.857 381.357 285.196 388.713C282.083 391.689 279.962 394.973 274.764 404.621C273.464 407.016 272.301 409 272.198 409C271.925 409 267.239 397.847 264.502 390.765C261.937 384.128 261.903 383.547 263.682 378.039C266.007 370.889 272.78 354.33 279.278 339.893C281.707 334.522 281.981 334.043 282.083 335.138C282.152 335.924 281.536 338.559 280.476 342.082C276.303 355.801 272.609 370.375 271.856 376.157C271.514 378.723 271.548 379.51 272.198 382.863C272.848 386.318 275.071 394.494 275.448 394.871C275.55 394.973 276.029 394.221 276.542 393.194C278.663 388.952 280.476 386.797 286.872 380.81C298.775 369.725 314.474 356.041 330.55 342.63C341.7 333.393 342.897 332.264 343.342 330.861C344.744 326.414 345.771 309.889 345.771 291.997C345.736 278.449 345.428 270.375 344.744 267.536C343.445 262.267 337.869 254.604 327.335 243.656C324.769 240.987 322.478 238.319 322.238 237.772C322.033 237.19 321.144 233.29 320.289 229.048C318.818 221.761 314.474 201.85 314.098 200.549C313.858 199.763 314.029 199.797 316.526 200.994ZM220.38 217.245C222.945 226.345 224.074 231.511 224.074 234.008C224.074 235.685 223.766 236.848 222.363 240.337C218.327 250.464 209.982 269.007 203.757 281.733L199.344 290.799L186.552 303.56C174.478 315.603 173.691 316.424 173.213 318.1C172.631 320.153 171.844 325.935 171.331 331.853C170.784 338.319 171.229 339.517 178.89 351.012C189.904 367.604 214.496 398.395 225.647 409.616C227.597 411.566 230.093 413.55 232.796 415.329C236.318 417.656 237.105 418.306 237.892 419.708L238.781 421.385L230.641 417.245C222.945 413.379 222.261 412.969 219.046 410.095C206.219 398.6 174.683 360.796 164.833 345.025C161.857 340.303 161.652 339.448 161.891 334.248C162.302 324.874 164.012 312.729 165.311 309.958C165.722 309 167.911 306.092 170.134 303.458C190.759 279.031 217.404 241.809 219.285 234.761C219.764 232.948 219.319 227.2 218.156 219.639C217.643 216.321 217.541 214.474 217.712 212.318C217.848 210.744 218.054 209.65 218.19 209.923C218.327 210.197 219.319 213.481 220.38 217.245ZM175.675 232.127C182.926 233.94 188.707 235.514 189.357 235.924C190.896 236.882 193.222 240.816 193.222 242.527C193.222 243.895 190.314 249.506 182.721 262.746C177.693 271.504 175.88 274.207 174.512 274.994C173.897 275.336 167.74 277.56 160.831 279.886C153.922 282.247 148.004 284.402 147.731 284.676C147.286 285.12 147.354 285.941 148.346 291.792C149.817 300.344 149.954 300.823 151.014 301.097C151.733 301.268 162.37 299.079 164.798 298.258C165.517 298.018 161.139 302.123 160.044 302.739C158.744 303.458 149.304 306.024 147.936 306.024C146.534 306.024 146.021 305.305 145.336 302.26C143.284 293.092 141.369 286.078 139.864 282.315C138.29 278.244 138.154 277.731 138.154 274.959C138.154 273.317 138.256 271.162 138.359 270.204L138.598 268.391L140.753 270.409C144.174 273.625 147.594 276.26 148.278 276.26C149.92 276.26 166.372 270.751 168.082 269.622C170.784 267.843 184.089 247.898 184.842 244.477C185.115 243.109 183.782 239.072 182.824 238.456C182.003 237.908 171.879 234.111 163.704 231.271C158.813 229.561 158.334 229.048 161.515 229.048C162.438 229.048 168.629 230.416 175.675 232.127ZM129.261 249.061C128.679 252.825 128.2 256.109 128.166 256.348C128.098 256.588 126.456 254.912 124.506 252.619L120.949 248.446L121.565 247.282C122.42 245.674 125.19 243.724 127.893 242.835C129.09 242.424 130.15 242.116 130.184 242.185C130.218 242.219 129.808 245.332 129.261 249.061ZM177.283 250.327C174.957 254.33 167.261 265.243 165.961 266.407C165.277 267.057 150.775 272.052 151.356 271.47C151.869 270.957 177.283 249.951 177.42 249.917C177.488 249.917 177.42 250.122 177.283 250.327ZM249.521 290.013C243.022 318.716 237.345 351.012 236.797 362.473C236.626 366.03 236.695 366.681 237.481 369.417C239.636 376.636 247.64 397.129 254.652 413.379C255.883 416.185 256.259 417.621 256.67 420.7C256.943 422.787 257.149 424.566 257.08 424.635C257.012 424.669 255.712 422.548 254.173 419.845C244.049 402.124 230.914 375.883 224.484 360.591C222.603 356.143 222.466 355.63 222.5 353.235C222.569 346.154 233.685 310.745 245.622 279.51C249.692 268.87 249.248 269.212 250.41 275.986L251.402 281.733L249.521 290.013Z" fill="white"/>
<path d="M338.998 64.3193C338.28 65.243 338.246 65.5509 338.246 73.2485V81.254L339.203 82.3145C340.127 83.3409 340.264 83.3751 344.06 83.6488C346.215 83.8198 352.303 84.2988 357.537 84.6751C366.977 85.3936 367.079 85.3936 367.969 84.7436L368.858 84.0935L368.961 75.6433L369.029 67.1931L368.037 66.1667C367.49 65.6193 366.737 65.1746 366.395 65.1746C366.053 65.1746 362.017 64.8667 357.4 64.4904C352.782 64.114 346.933 63.7035 344.368 63.6009L339.751 63.3614L338.998 64.3193Z" fill="white"/>
<path d="M103.095 68.1168C88.6609 69.7589 83.4961 70.3405 82.8463 70.5116C82.0596 70.6484 82.0596 70.7511 82.0596 75.9512C82.0596 78.825 82.1964 81.2882 82.3332 81.3908C82.47 81.4593 83.7356 81.3908 85.1379 81.2198C86.5403 81.0487 92.5601 80.3645 98.4774 79.7145C105.763 78.8934 109.491 78.3118 110.038 77.9697C111.235 77.1828 111.543 75.917 111.406 72.2564C111.304 69.1773 111.235 68.801 110.483 68.2194C109.559 67.4668 108.875 67.4668 103.095 68.1168Z" fill="white"/>
</svg>
