<svg width="500" height="500" viewBox="0 0 500 500" fill="none" xmlns="http://www.w3.org/2000/svg">
<path fill-rule="evenodd" clip-rule="evenodd" d="M234.771 391.023C209.288 375.193 190.515 320.564 190.515 255.656C190.515 253.275 190.534 250.927 190.584 248.58L190.615 248.614C119.738 237.567 68.5285 207.301 67.217 171.512L67.009 171.924C49.6669 193.299 39.7681 218.012 39.7681 244.345C39.7681 321.832 125.531 385.322 234.312 390.937L234.771 391.023ZM7 249.999C7 163.297 115.79 93 250 93C384.206 93 493 163.297 493 249.999C493 336.701 384.204 407 250 407C115.79 407 7 336.699 7 249.999ZM250 115.658C275.908 115.658 297.946 154.635 306.109 209.02L306.14 208.938C356.543 201.157 391.834 183.207 391.834 162.319C391.834 134.284 328.326 111.584 250 111.584C171.669 111.584 108.166 134.286 108.166 162.319C108.166 183.207 143.451 201.157 193.86 208.938L193.891 209.02C202.055 154.637 224.098 115.658 250 115.658ZM265.684 390.935C374.465 385.322 460.24 321.83 460.24 244.344C460.24 218.012 450.329 193.299 432.989 171.923L432.777 171.51C431.466 207.299 380.269 237.565 309.385 248.612L309.416 248.578C309.464 250.925 309.489 253.273 309.489 255.655C309.489 320.562 290.703 375.191 265.235 391.021L265.684 390.935ZM250 213.062C261.607 213.062 272.89 212.571 283.687 211.627L283.668 211.645C278.294 176.782 265.245 152.177 249.996 152.177C234.747 152.177 221.7 176.782 216.319 211.645L216.3 211.627C227.096 212.571 238.383 213.062 249.99 213.062H250ZM250 342.165C269.505 342.165 285.416 301.909 286.265 251.416L286.369 251.452C274.612 252.532 262.451 253.095 250.002 253.095C237.542 253.095 225.392 252.532 213.635 251.452L213.744 251.416C214.58 301.907 230.487 342.165 250 342.165Z" fill="white"/>
</svg>
