<svg width="500" height="500" viewBox="0 0 500 500" fill="none" xmlns="http://www.w3.org/2000/svg">
<path d="M250 458.191C136.209 458.191 42.6543 363.791 42.6543 250C42.6543 226.4 46.863 203.646 54.4543 181.737L175.837 417.737C177.509 421.1 179.2 423.637 183.409 423.637C187.637 423.637 189.309 421.1 191 417.737L247.463 292.146C248.309 290.454 249.154 289.609 250 289.609C251.691 289.609 251.691 291.3 252.537 292.146L309.846 417.737C311.537 421.1 313.209 423.637 317.437 423.637C321.646 423.637 323.337 421.1 325.009 417.737L446.391 181.737C453.963 202.8 458.191 225.554 458.191 250C457.346 363.791 363.791 458.191 250 458.191V458.191ZM250 196.054C248.309 196.054 248.309 194.363 247.463 193.537L182.563 53.6087C226.15 37.9061 273.85 37.9061 317.437 53.6087L252.537 193.537C251.691 194.363 251.691 196.054 250 196.054V196.054ZM181.737 347.763C180.046 347.763 180.046 346.091 179.2 345.246L73 141.243C91.5457 110.917 118.509 85.626 149.7 67.926L224.709 229.743C226.4 233.126 228.091 233.972 230.609 233.972H269.391C271.909 233.972 273.6 233.126 275.291 229.743L349.454 67.926C380.646 85.626 407.609 110.917 426.154 141.243L320.8 345.246C319.954 346.937 319.109 347.763 318.263 347.763C316.591 347.763 316.591 346.091 315.746 345.246L275.291 255.9C273.6 252.537 271.909 251.691 269.391 251.691H230.609C228.091 251.691 226.4 252.537 224.709 255.9L184.254 345.246C183.409 346.091 183.409 347.763 181.737 347.763V347.763ZM250 486C380.646 486 486 380.646 486 250C486 119.354 380.646 14 250 14C119.354 14 14 119.354 14 250C14 380.646 119.354 486 250 486Z" fill="white"/>
</svg>
